<?xml version="1.0" standalone="no"?>
<!DOCTYPE svg PUBLIC "-//W3C//DTD SVG 1.1//EN" "http://www.w3.org/Graphics/SVG/1.1/DTD/svg11.dtd" >
<svg xmlns="http://www.w3.org/2000/svg" xmlns:xlink="http://www.w3.org/1999/xlink" version="1.1">
<metadata>
Created by FontForge 20201107 at Fri Mar 27 19:35:17 2020
 By 
Copyright (c) 2014 ParaType Inc., ParaType Ltd. All rights reserved.
</metadata>
<defs>
<font id="TKT-Bold" horiz-adv-x="486" >
  <font-face 
    font-family="TKT"
    font-weight="700"
    font-stretch="normal"
    units-per-em="1000"
    panose-1="2 11 5 4 2 2 2 2 2 4"
    ascent="800"
    descent="-200"
    x-height="500"
    cap-height="690"
    bbox="-378 -297 3054 1010"
    underline-thickness="50"
    underline-position="-250"
    unicode-range="U+000D-1F4F1"
  />
<missing-glyph horiz-adv-x="250" 
 />
    <glyph glyph-name=".notdef" horiz-adv-x="250" 
 />
    <glyph glyph-name=".null" horiz-adv-x="0" 
 />
    <glyph glyph-name="nonmarkingreturn" horiz-adv-x="1000" 
 />
    <glyph glyph-name="uni000D" unicode="&#xd;" horiz-adv-x="333" 
 />
    <glyph glyph-name="space" unicode=" " horiz-adv-x="320" 
 />
    <glyph glyph-name="exclam" unicode="!" horiz-adv-x="250" 
d="M62 690h126v-501h-126v501zM193 0h-136v136h136v-136z" />
    <glyph glyph-name="quotedbl" unicode="&#x22;" horiz-adv-x="362" 
d="M40 690h120v-183h-120v183zM203 690h119v-183h-119v183z" />
    <glyph glyph-name="numbersign" unicode="#" horiz-adv-x="615" 
d="M51 389v112h105l35 189h128l-35 -189h96l35 189h128l-35 -189h79v-112h-100l-16 -85h79v-112h-100l-36 -192h-127l35 192h-96l-35 -192h-129l36 192h-84v112h105l16 85h-84zM359 389h-96l-16 -85h96z" />
    <glyph glyph-name="dollar" unicode="$" horiz-adv-x="540" 
d="M515 583l-105 -75q-35 53 -83 66v-174q104 -29 149 -75q46 -46 46 -131q0 -83 -48.5 -135.5t-138.5 -64.5v-110h-116v111q-128 16 -201 112l107 75q44 -56 101 -68v180q-97 28 -143 78.5t-46 130.5q0 79 47 129.5t135 62.5v117h116v-118q119 -18 180 -111zM382 187
q0 48 -55 75v-146q55 16 55 71zM177 504q0 -47 49 -72v141q-49 -16 -49 -69z" />
    <glyph glyph-name="percent" unicode="%" horiz-adv-x="759" 
d="M739 200v-59q0 -150 -151 -150q-73 0 -111.5 38.5t-38.5 111.5v59q0 72 39 110t111 38q151 0 151 -148zM588 78q48 0 48 63v56q0 63 -48 63q-46 0 -46 -63v-56q0 -63 46 -63zM323 551v-59q0 -150 -152 -150q-73 0 -111 38.5t-38 111.5v59q0 72 38.5 110t110.5 38
q152 0 152 -148zM172 429q48 0 48 63v56q0 63 -48 63q-46 0 -46 -63v-56q0 -63 46 -63zM124 0l386 690h123l-385 -690h-124z" />
    <glyph glyph-name="ampersand" unicode="&#x26;" horiz-adv-x="666" 
d="M35 183q0 58 28 105.5t88 94.5q-66 81 -66 159q0 69 53 113t136 44q86 0 136.5 -38.5t50.5 -98.5q0 -34 -23 -72q-24 -37 -49 -59q-25 -21 -71 -55l132 -147q14 45 14 93h132q0 -110 -54 -195l115 -127h-161l-38 41q-77 -50 -185 -50q-109 0 -174 57q-64 57 -64 135z
M279 109q56 0 97 23l-153 168q-52 -49 -52 -97q0 -43 29.5 -68.5t78.5 -25.5zM218 542q0 -38 35 -88q44 31 63 53.5t19 46.5q0 32 -29.5 44t-58.5 -3.5t-29 -52.5z" />
    <glyph glyph-name="quotesingle" unicode="'" horiz-adv-x="200" 
d="M40 690h120v-183h-120v183z" />
    <glyph glyph-name="parenleft" unicode="(" horiz-adv-x="317" 
d="M307 -17l-70 -99q-101 64 -138 124q-36 60 -36 147v386q0 87 36 146q35 60 138 125l70 -99q-50 -37 -70 -57q-47 -47 -47 -141v-334q0 -94 47 -141q20 -20 70 -57z" />
    <glyph glyph-name="parenright" unicode=")" horiz-adv-x="317" 
d="M93 -116l-70 99q49 37 69 57q48 46 48 141v334q0 50 -14 87q-13 33 -34 54q-20 20 -69 57l70 99q103 -65 138 -125q36 -59 36 -146v-386q0 -87 -36 -147q-37 -60 -138 -124z" />
    <glyph glyph-name="asterisk" unicode="*" horiz-adv-x="425" 
d="M159 690h95l-5 -102l85 56l47 -82l-88 -46l89 -47l-48 -81l-85 54l5 -101h-95l4 100l-83 -54l-48 82l90 46l-89 47l46 82l84 -54z" />
    <glyph glyph-name="plus" unicode="+" horiz-adv-x="540" 
d="M197 300h-139v108h139v141h110v-141h140v-108h-140v-140h-110v140z" />
    <glyph glyph-name="comma" unicode="," horiz-adv-x="256" 
d="M60 156h136v-202l-136 -116v318z" />
    <glyph glyph-name="hyphen" unicode="-" horiz-adv-x="319" 
d="M289 233h-259v112h259v-112z" />
    <glyph glyph-name="period" unicode="." horiz-adv-x="276" 
d="M60 156h156v-156h-156v156z" />
    <glyph glyph-name="slash" unicode="/" horiz-adv-x="485" 
d="M498 812l-336 -928h-115l336 928h115z" />
    <glyph glyph-name="zero" unicode="0" horiz-adv-x="540" 
d="M502 480v-269q0 -109 -66 -165q-64 -55 -166 -55q-103 0 -167 55q-65 56 -65 165v268q0 110 62.5 165t169.5 55t169.5 -55t62.5 -164zM362 223v244q0 114 -92 114q-93 0 -93 -114v-244q0 -114 93 -114q92 0 92 114z" />
    <glyph glyph-name="one" unicode="1" horiz-adv-x="540" 
d="M238 690h126v-690h-140v544l-99 -65v135z" />
    <glyph glyph-name="two" unicode="2" horiz-adv-x="540" 
d="M239 118h238v-118h-426v90l231 272q64 73 64 137q0 38 -24 61t-62 23q-36 0 -59.5 -22.5t-26.5 -61.5h-124q0 89 63 144q65 56 154 56q94 0 155 -58q63 -57 63 -142q0 -45 -19 -86q-21 -46 -37 -68q-17 -23 -48 -60z" />
    <glyph glyph-name="three" unicode="3" horiz-adv-x="540" 
d="M245 297h-51v118h51q45 0 70.5 23t25.5 65q0 35 -24 57.5t-62 22.5q-35 0 -58 -20t-28 -54h-124q4 84 65 137q62 53 152 53q93 0 155 -56q63 -55 63 -134q0 -100 -94 -151q104 -51 104 -165q0 -86 -59 -145q-59 -57 -161 -57q-105 0 -167.5 52.5t-66.5 141.5h123
q13 -76 102 -76q41 0 65.5 25.5t24.5 65.5q0 97 -106 97z" />
    <glyph glyph-name="four" unicode="4" horiz-adv-x="540" 
d="M9 195l236 495h153l-215 -473h132v176h140v-176h63v-119h-63v-98h-140v98h-306v97z" />
    <glyph glyph-name="five" unicode="5" horiz-adv-x="540" 
d="M272 355q-48 0 -73 -51h-126v386h393v-127h-256v-118q38 36 102 36q84 0 132 -64.5t48 -181.5q0 -244 -216 -244q-93 0 -154 49q-62 49 -70 138h138q16 -69 82 -69q80 0 80 119q0 127 -80 127z" />
    <glyph glyph-name="six" unicode="6" horiz-adv-x="540" 
d="M240 690h150l-144 -284q25 13 67 13q80 0 134 -59q55 -58 55 -147q0 -106 -62 -164t-169 -58q-106 0 -169.5 57.5t-63.5 163.5q0 70 63 197zM178 207q0 -47 29 -74t63 -27t63 27t29 74q0 37 -19 62.5t-46 31.5t-54 0t-46 -31.5t-19 -62.5z" />
    <glyph glyph-name="seven" unicode="7" horiz-adv-x="540" 
d="M185 571v-107h-119v226h422v-98l-199 -592h-145l200 571h-159z" />
    <glyph glyph-name="eight" unicode="8" horiz-adv-x="540" 
d="M35 192q0 53 29 99t74 67q-42 21 -67.5 62.5t-25.5 89.5q0 85 64.5 137t160.5 52q94 0 159 -51q66 -50 66 -138q0 -48 -25.5 -89.5t-67.5 -62.5q46 -21 74.5 -66.5t28.5 -99.5q0 -93 -68 -147q-67 -54 -167 -54t-168 54q-67 54 -67 147zM175 205q0 -40 27 -68.5t68 -28.5
q40 0 68 28.5t28 68.5q0 41 -28.5 68.5t-67.5 27.5q-40 0 -67.5 -27.5t-27.5 -68.5zM184 496q0 -36 25 -61.5t61 -25.5q35 0 60.5 25.5t25.5 61.5q0 35 -25.5 60t-60.5 25q-36 0 -61 -25t-25 -60z" />
    <glyph glyph-name="nine" unicode="9" horiz-adv-x="540" 
d="M300 0h-150l145 284q-26 -13 -67 -13q-81 0 -135.5 58.5t-54.5 147.5q0 109 65 165q65 57 167 57q106 0 169.5 -57.5t63.5 -163.5q0 -69 -64 -197zM363 483q0 47 -29 73.5t-63.5 26.5t-63.5 -26.5t-29 -73.5q0 -46 29 -72.5t63.5 -26.5t63.5 26.5t29 72.5z" />
    <glyph glyph-name="colon" unicode=":" horiz-adv-x="246" 
d="M60 500h136v-137h-136v137zM60 136h136v-136h-136v136z" />
    <glyph glyph-name="semicolon" unicode=";" horiz-adv-x="246" 
d="M60 500h136v-137h-136v137zM60 136h136v-188l-136 -117v305z" />
    <glyph glyph-name="less" unicode="&#x3c;" horiz-adv-x="540" 
d="M426 580v-144l-181 -94l181 -93v-144l-325 183v109z" />
    <glyph glyph-name="equal" unicode="=" horiz-adv-x="540" 
d="M465 359h-389v120h389v-120zM465 182h-389v119h389v-119z" />
    <glyph glyph-name="greater" unicode="&#x3e;" horiz-adv-x="540" 
d="M112 249l181 93l-181 94v144l325 -183v-109l-325 -183v144z" />
    <glyph glyph-name="question" unicode="?" horiz-adv-x="487" 
d="M297 220v-31h-121v69q0 35 8 56.5t31 41.5l45 43q38 36 51 58t13 52q0 27 -15.5 46t-38 24t-45.5 1.5t-39 -21.5t-17 -45h-132q0 89 59 137q60 48 151 48q94 0 155 -49q62 -50 62 -142q0 -50 -24 -94t-76 -96l-33 -32q-24 -24 -29 -39q-3 -8 -5 -27zM305 0h-137v136h137
v-136z" />
    <glyph glyph-name="at" unicode="@" horiz-adv-x="898" 
d="M513 484h127v-243q0 -41 11 -58t35 -17q58 0 58 127q0 142 -80 213t-215 71q-155 0 -226 -97q-63 -88 -63 -204q0 -149 82 -225q82 -75 212 -75q118 0 221 52l47 -91q-96 -69 -273 -69q-167 0 -287 102q-61 51 -95 130.5t-34 175.5q0 127 59 222q57 92 149.5 139.5
t207.5 47.5q185 0 303 -105q119 -105 119 -288q0 -111 -47.5 -172.5t-134.5 -61.5q-92 0 -133 65q-33 -65 -131 -65q-78 0 -123 51t-45 139v52q0 90 45 139.5t123 49.5q50 0 88 -23v18zM446 166q36 0 51.5 19t15.5 61v50q0 47 -15.5 66t-51.5 19q-61 0 -61 -85v-38
q0 -48 14 -70t47 -22z" />
    <glyph glyph-name="A" unicode="A" horiz-adv-x="607" 
d="M188 131l-42 -131h-150l240 690h134l240 -690h-149l-42 131h-231zM381 249l-78 243l-78 -243h156z" />
    <glyph glyph-name="B" unicode="B" horiz-adv-x="606" 
d="M68 0v690h231q252 0 252 -181q0 -102 -91 -147q113 -41 113 -164q0 -93 -64.5 -145.5t-187.5 -52.5h-253zM296 299h-88v-181h101q124 0 124 91q0 48 -32.5 69t-104.5 21zM286 572h-78v-155h93q110 0 110 79q0 40 -28 58t-97 18z" />
    <glyph glyph-name="C" unicode="C" horiz-adv-x="594" 
d="M564 476h-134q-21 105 -119 105q-124 0 -124 -187v-98q0 -187 124 -187q51 0 79 25t40 80h133q-33 -223 -252 -223q-126 0 -195 78t-69 227v98q0 149 68.5 227t195.5 78q106 0 171 -56.5t82 -166.5z" />
    <glyph glyph-name="D" unicode="D" horiz-adv-x="625" 
d="M313 0h-245v690h245q265 0 265 -300v-90q0 -300 -265 -300zM208 118h105q66 0 95.5 43t29.5 139v90q0 95 -29.5 138t-95.5 43h-105v-453z" />
    <glyph glyph-name="E" unicode="E" horiz-adv-x="527" 
d="M68 0v690h430v-119h-290v-155h260v-118h-260v-180h290v-118h-430z" />
    <glyph glyph-name="F" unicode="F" horiz-adv-x="521" 
d="M68 0v690h430v-119h-290v-171h260v-118h-260v-282h-140z" />
    <glyph glyph-name="G" unicode="G" horiz-adv-x="612" 
d="M314 241v118h251v-63q0 -151 -65 -228t-189 -77q-126 0 -195 78t-69 227v88q0 156 68 235.5t196 79.5q107 0 172 -57.5t81 -165.5h-134q-20 105 -119 105q-124 0 -124 -187v-98q0 -187 124 -187q56 0 84.5 32.5t34.5 99.5h-116z" />
    <glyph glyph-name="H" unicode="H" horiz-adv-x="656" 
d="M68 690h140v-274h239v274h140v-690h-140v298h-239v-298h-140v690z" />
    <glyph glyph-name="I" unicode="I" horiz-adv-x="296" 
d="M78 690h140v-690h-140v690z" />
    <glyph glyph-name="J" unicode="J" horiz-adv-x="512" 
d="M-9 94l116 65q35 -50 94 -50q55 0 79 36t24 120v425h140v-425q0 -140 -58.5 -207t-175.5 -67q-147 0 -219 103z" />
    <glyph glyph-name="K" unicode="K" horiz-adv-x="645" 
d="M381 411l252 -411h-167l-176 291l-82 -108v-183h-140v690h140v-298l218 298h166z" />
    <glyph glyph-name="L" unicode="L" horiz-adv-x="504" 
d="M68 690h140v-572h290v-118h-430v690z" />
    <glyph glyph-name="M" unicode="M" horiz-adv-x="786" 
d="M68 690h131l194 -376l192 376h133v-690h-134v428l-150 -304h-85l-148 301v-425h-133v690z" />
    <glyph glyph-name="N" unicode="N" horiz-adv-x="656" 
d="M454 257v433h133v-690h-117l-269 427v-427h-133v690h116z" />
    <glyph glyph-name="O" unicode="O" horiz-adv-x="623" 
d="M576 394v-98q0 -149 -69 -227t-196 -78q-126 0 -195 78t-69 227v98q0 149 68.5 227t195.5 78t196 -78t69 -227zM187 394v-98q0 -187 124 -187q125 0 125 187v98q0 187 -125 187q-124 0 -124 -187z" />
    <glyph glyph-name="P" unicode="P" horiz-adv-x="590" 
d="M315 243h-107v-243h-140v690h247q124 0 191 -57t67 -164t-68.5 -166.5t-189.5 -59.5zM208 571v-210h87q72 0 105 26t33 82q0 102 -138 102h-87z" />
    <glyph glyph-name="Q" unicode="Q" horiz-adv-x="630" 
d="M576 394v-98q0 -100 -31 -165l96 -82l-74 -88l-93 79q-64 -49 -163 -49q-126 0 -195 78t-69 227v98q0 149 68.5 227t195.5 78t196 -78t69 -227zM187 394v-98q0 -187 124 -187q38 0 63 16l-78 67l76 89l59 -52q5 42 5 67v98q0 187 -125 187q-124 0 -124 -187z" />
    <glyph glyph-name="R" unicode="R" horiz-adv-x="617" 
d="M455 294l143 -294h-154l-124 271h-112v-271h-140v690h247q123 0 190.5 -54.5t67.5 -156.5q0 -136 -118 -185zM208 571v-182h94q70 0 100.5 20t30.5 70t-31 71t-100 21h-94z" />
    <glyph glyph-name="S" unicode="S" horiz-adv-x="575" 
d="M532 586l-105 -75q-24 37 -55 53.5t-81 16.5q-47 0 -72 -20t-25 -56q0 -38 30.5 -60.5t105.5 -40.5q109 -28 160 -76q49 -46 49 -136q0 -93 -62.5 -147t-175.5 -54q-180 0 -266 113l107 74q30 -37 64.5 -53t85.5 -16q107 0 107 77q0 38 -30 60q-33 23 -111 44
q-105 27 -154.5 79t-49.5 136q0 91 61.5 142.5t174.5 51.5q168 0 242 -113z" />
    <glyph glyph-name="T" unicode="T" horiz-adv-x="536" 
d="M8 571v119h520v-119h-190v-571h-140v571h-190z" />
    <glyph glyph-name="U" unicode="U" horiz-adv-x="666" 
d="M458 279v411h140v-410q0 -141 -69.5 -215t-195.5 -74t-195.5 73.5t-69.5 214.5v411h140v-411q0 -88 30 -129t95 -41t95 41t30 129z" />
    <glyph glyph-name="V" unicode="V" horiz-adv-x="614" 
d="M244 0l-241 690h153l151 -464l151 464h153l-240 -690h-127z" />
    <glyph glyph-name="W" unicode="W" horiz-adv-x="889" 
d="M590 0l-146 475l-146 -475h-133l-158 690h150l92 -454l131 454h126l135 -457l91 457h151l-159 -690h-134z" />
    <glyph glyph-name="X" unicode="X" horiz-adv-x="592" 
d="M296 235l-131 -235h-152l194 356l-173 334h152l110 -220l111 220h151l-174 -334l195 -356h-151z" />
    <glyph glyph-name="Y" unicode="Y" horiz-adv-x="583" 
d="M221 282l-215 408h162l123 -257l124 257h161l-215 -408v-282h-140v282z" />
    <glyph glyph-name="Z" unicode="Z" horiz-adv-x="519" 
d="M30 571v119h456v-92l-278 -480h288v-118h-466v92l280 479h-280z" />
    <glyph glyph-name="bracketleft" unicode="[" horiz-adv-x="335" 
d="M309 -102h-239v894h239v-108h-112v-678h112v-108z" />
    <glyph glyph-name="backslash" unicode="\" horiz-adv-x="485" 
d="M361 -116l-336 928h116l336 -928h-116z" />
    <glyph glyph-name="bracketright" unicode="]" horiz-adv-x="335" 
d="M26 686v106h239v-894h-239v106h112v682h-112z" />
    <glyph glyph-name="asciicircum" unicode="^" horiz-adv-x="540" 
d="M38 437l174 253h115l176 -253h-144l-89 129l-82 -129h-150z" />
    <glyph glyph-name="underscore" unicode="_" horiz-adv-x="526" 
d="M0 -169v103h526v-103h-526z" />
    <glyph glyph-name="grave" unicode="`" horiz-adv-x="337" 
d="M62 725h143l70 -158h-122z" />
    <glyph glyph-name="a" unicode="a" 
d="M202 -9q-82 0 -129 41.5t-47 115.5q0 73 49.5 112.5t135.5 39.5h99v29q0 43 -18 58.5t-71 15.5q-40 0 -59.5 -8t-34.5 -32l-90 63q27 45 72.5 64t123.5 19q107 0 154.5 -41.5t47.5 -139.5v-328h-125v44q-32 -53 -108 -53zM310 187v19h-84q-75 0 -75 -56t73 -56
q45 0 65.5 21.5t20.5 71.5z" />
    <glyph glyph-name="b" unicode="b" horiz-adv-x="510" 
d="M51 690h121v-221q37 40 108 40q94 0 145.5 -59t51.5 -169v-60q0 -108 -51.5 -169t-145.5 -61q-72 0 -108 39v-30h-121v690zM350 225v52q0 124 -89 124t-89 -124v-52q0 -126 89 -126t89 126z" />
    <glyph glyph-name="c" unicode="c" horiz-adv-x="446" 
d="M343 142l95 -66q-49 -85 -182 -85q-105 0 -164 60.5t-59 165.5v68q0 109 59 166.5t171 57.5q122 0 175 -83l-96 -67q-30 42 -82 42q-100 0 -100 -124v-52q0 -60 21 -93q23 -33 79 -33q58 0 83 43z" />
    <glyph glyph-name="d" unicode="d" horiz-adv-x="517" 
d="M338 474v216h127v-690h-127v29q-41 -38 -107 -38q-94 0 -146 60.5t-52 165.5v68q0 105 52.5 164.5t145.5 59.5q66 0 107 -35zM249 99q47 0 68 31t21 95v63q0 113 -89 113t-89 -124v-52q0 -126 89 -126z" />
    <glyph glyph-name="e" unicode="e" 
d="M343 142l95 -66q-49 -85 -183 -85q-105 0 -163.5 61t-58.5 165v68q0 110 53 167t153 57q206 0 206 -234v-57h-285q2 -119 94 -119q35 0 54 9.5t35 33.5zM317 309q-5 92 -77 92t-80 -92h157z" />
    <glyph glyph-name="f" unicode="f" horiz-adv-x="301" 
d="M14 392v108h64v27q0 93 38 128q41 35 133 35h37v-112h-24q-33 0 -45 -15.5t-12 -55.5v-7h81v-108h-81v-392h-127v392h-64z" />
    <glyph glyph-name="g" unicode="g" horiz-adv-x="517" 
d="M338 474v26h127v-490q0 -121 -63 -166q-56 -40 -157 -40q-73 0 -118.5 20.5t-77.5 69.5l86 62q33 -45 98 -45q58 0 81.5 21.5t23.5 77.5v16q-41 -35 -107 -35q-94 0 -146 60.5t-52 165.5v68q0 105 52.5 164.5t145.5 59.5q66 0 107 -35zM338 214v63q0 124 -89 124
t-89 -124v-52q0 -126 89 -126t89 115z" />
    <glyph glyph-name="h" unicode="h" horiz-adv-x="526" 
d="M179 0h-128v690h128v-229q36 48 112 48q183 0 183 -196v-313h-127v293q0 56 -19 81t-61 25q-88 0 -88 -105v-294z" />
    <glyph glyph-name="i" unicode="i" horiz-adv-x="260" 
d="M199 566h-138v124h138v-124zM194 0h-128v500h128v-500z" />
    <glyph glyph-name="j" unicode="j" horiz-adv-x="251" 
d="M67 500h127v-527q0 -93 -45 -128q-47 -35 -149 -35v110q37 0 52 16.5t15 54.5v509zM199 566h-137v124h137v-124z" />
    <glyph glyph-name="k" unicode="k" horiz-adv-x="502" 
d="M179 318l140 182h152l-173 -209l202 -291h-150l-137 188l-34 -42v-146h-128v690h128v-372z" />
    <glyph glyph-name="l" unicode="l" horiz-adv-x="285" 
d="M51 160v530h128v-501q0 -43 15.5 -61t54.5 -18v-110q-108 0 -153 35.5t-45 124.5z" />
    <glyph glyph-name="m" unicode="m" horiz-adv-x="795" 
d="M461 294v-294h-127v293q0 106 -76 106q-37 0 -58 -27.5t-21 -77.5v-294h-128v500h125v-42q38 51 111 51q94 0 140 -67q55 67 144 67q84 0 128.5 -50t44.5 -146v-313h-128v293q0 106 -77 106q-37 0 -57.5 -27t-20.5 -78z" />
    <glyph glyph-name="n" unicode="n" horiz-adv-x="526" 
d="M179 0h-128v500h125v-42q39 51 115 51q183 0 183 -196v-313h-127v293q0 56 -19 81t-61 25q-88 0 -88 -105v-294z" />
    <glyph glyph-name="o" unicode="o" horiz-adv-x="499" 
d="M465 281v-60q0 -110 -55 -170t-161 -60q-104 0 -160 60t-56 170v60q0 111 55.5 169.5t160.5 58.5t160.5 -58t55.5 -170zM249 99q89 0 89 126v52q0 124 -89 124t-89 -124v-52q0 -64 21 -95t68 -31z" />
    <glyph glyph-name="p" unicode="p" horiz-adv-x="517" 
d="M484 285v-68q0 -101 -51 -164q-50 -62 -144 -62q-75 0 -110 29v-210h-128v690h128v-33q37 42 111 42q90 0 142 -59.5t52 -164.5zM268 99q88 0 88 126v52q0 124 -88 124q-89 0 -89 -113v-63q0 -64 21 -95t68 -31z" />
    <glyph glyph-name="q" unicode="q" horiz-adv-x="517" 
d="M338 475v25h127v-690h-127v218q-40 -37 -107 -37q-94 0 -146 60.5t-52 165.5v68q0 105 52.5 164.5t145.5 59.5q67 0 107 -34zM249 99q47 0 68 31t21 95v52q0 124 -89 124t-89 -124v-52q0 -126 89 -126z" />
    <glyph glyph-name="r" unicode="r" horiz-adv-x="410" 
d="M420 431l-98 -70q-25 37 -59.5 39.5t-59 -27.5t-24.5 -79v-294h-128v500h125v-42q34 51 109 51q90 0 135 -78z" />
    <glyph glyph-name="s" unicode="s" horiz-adv-x="464" 
d="M419 426l-94 -67q-19 22 -40.5 31t-57.5 9q-63 0 -63 -39q0 -21 18.5 -32t61.5 -17q96 -15 140.5 -54.5t44.5 -110.5q0 -73 -51.5 -114t-144.5 -41q-147 0 -207 83l98 70q31 -43 107 -43q71 0 71 41q0 22 -17 33q-18 9 -68 18q-180 29 -180 162q0 73 50.5 113.5
t142.5 40.5q138 0 189 -83z" />
    <glyph glyph-name="t" unicode="t" horiz-adv-x="331" 
d="M78 392h-64v108h64v110h127v-110h98v-108h-98v-209q0 -40 12 -55.5t45 -15.5h41v-112h-54q-96 0 -133 34q-38 35 -38 129v229z" />
    <glyph glyph-name="u" unicode="u" horiz-adv-x="526" 
d="M347 500h127v-500h-125v42q-18 -28 -43.5 -39.5t-70.5 -11.5q-184 0 -184 197v312h128v-293q0 -56 19.5 -81t61.5 -25q87 0 87 105v294z" />
    <glyph glyph-name="v" unicode="v" horiz-adv-x="504" 
d="M252 176l111 324h141l-190 -500h-120l-194 500h140z" />
    <glyph glyph-name="w" unicode="w" horiz-adv-x="716" 
d="M471 0l-113 313l-113 -313h-104l-138 500h132l71 -286l101 286h94l108 -287l71 287h133l-139 -500h-103z" />
    <glyph glyph-name="x" unicode="x" horiz-adv-x="490" 
d="M319 256l165 -256h-142l-97 152l-97 -152h-141l164 256l-151 244h141l84 -143l84 143h141z" />
    <glyph glyph-name="y" unicode="y" horiz-adv-x="479" 
d="M192 -7l-187 507h134l111 -320l100 320h129l-175 -523q-34 -102 -79 -134q-45 -33 -150 -33v114q55 0 78.5 13.5t38.5 55.5z" />
    <glyph glyph-name="z" unicode="z" horiz-adv-x="449" 
d="M30 0v89l220 303h-217v108h382v-89l-217 -303h224v-108h-392z" />
    <glyph glyph-name="braceleft" unicode="{" horiz-adv-x="328" 
d="M227 606v-190q0 -55 -45 -70q45 -15 45 -70v-190q0 -44 13.5 -58.5t50.5 -14.5h14v-108h-41q-83 0 -124 32q-40 31 -40 123v178q0 28 -11.5 40t-38.5 12h-19v112h19q27 0 38.5 12t11.5 40v178q0 92 40 123q41 32 124 32h41v-108h-14q-37 0 -50.5 -14.5t-13.5 -58.5z" />
    <glyph glyph-name="bar" unicode="|" horiz-adv-x="290" 
d="M85 812h121v-928h-121v928z" />
    <glyph glyph-name="braceright" unicode="}" horiz-adv-x="317" 
d="M108 416v190q0 44 -13 58.5t-50 14.5h-14v108h41q83 0 124 -32q40 -31 40 -123v-178q0 -28 11.5 -40t38.5 -12h19v-112h-19q-27 0 -38.5 -12t-11.5 -40v-178q0 -92 -40 -123q-41 -32 -124 -32h-41v108h14q37 0 50 14.5t13 58.5v190q0 55 45 70q-45 15 -45 70z" />
    <glyph glyph-name="asciitilde" unicode="~" horiz-adv-x="540" 
d="M355 259q-49 0 -96 22q-51 23 -75 23q-54 0 -88 -45l-85 69q69 86 173 86q45 0 96 -23q47 -22 75 -22q54 0 88 46l86 -70q-71 -86 -174 -86z" />
    <glyph glyph-name="uni00A0" unicode="&#xa0;" horiz-adv-x="250" 
 />
    <glyph glyph-name="exclamdown" unicode="&#xa1;" horiz-adv-x="250" 
d="M57 500h136v-136h-136v136zM188 -190h-126v501h126v-501z" />
    <glyph glyph-name="cent" unicode="&#xa2;" horiz-adv-x="540" 
d="M371 145l95 -66q-40 -69 -126 -82v-113h-114v115q-78 16 -121.5 74t-43.5 146v64q0 187 165 218v121h114v-120q85 -16 126 -79l-96 -67q-30 42 -82 42q-100 0 -100 -124v-46q0 -65 23 -95.5t77 -30.5q58 0 83 43z" />
    <glyph glyph-name="sterling" unicode="&#xa3;" horiz-adv-x="540" 
d="M499 0h-472v118h73v159h-73v119h73v31q0 272 219 272q136 0 203 -103l-115 -65q-38 50 -82 50q-43 0 -64 -36.5t-21 -117.5v-31h131v-119h-131v-159h259v-118z" />
    <glyph glyph-name="currency" unicode="&#xa4;" horiz-adv-x="540" 
d="M72 366q0 49 22 92l-79 79l84 84l77 -78q45 24 95 24t94 -23l78 78l84 -84l-78 -78q23 -44 23 -94q0 -49 -24 -94l79 -78l-84 -84l-79 78q-43 -22 -93 -22t-94 23l-78 -78l-84 84l79 79q-22 40 -22 92zM271 271q44 0 69 30t24.5 65.5t-25.5 65.5t-68 30t-67.5 -30
t-24.5 -65.5t24.5 -65.5t67.5 -30z" />
    <glyph glyph-name="yen" unicode="&#xa5;" horiz-adv-x="540" 
d="M60 119v112h137v51h-137v112h74l-112 296h155l90 -293l95 293h157l-119 -296h74v-112h-137v-51h137v-112h-137v-119h-140v119h-137z" />
    <glyph glyph-name="brokenbar" unicode="&#xa6;" horiz-adv-x="268" 
d="M69 690h140v-243h-140v243zM69 243h140v-243h-140v243z" />
    <glyph glyph-name="section" unicode="&#xa7;" horiz-adv-x="533" 
d="M72 -35h127q4 -46 51 -46q53 0 53 43q0 47 -82 75q-94 32 -136 77t-42 136q0 111 91 160q-62 50 -62 125q0 72 49.5 114t133.5 42q176 0 176 -156h-126q-3 24 -14.5 35t-37.5 11q-52 0 -52 -43q0 -24 20 -42t67 -35q92 -31 132 -77.5t40 -133.5q0 -112 -91 -161
q62 -50 62 -124q0 -72 -49.5 -114t-132.5 -42q-175 0 -177 156zM252 169q52 0 73 40.5t-0.5 81t-72.5 40.5q-38 0 -60 -22q-22 -21 -22 -59t22 -60q22 -21 60 -21z" />
    <glyph glyph-name="dieresis" unicode="&#xa8;" horiz-adv-x="426" 
d="M173 573h-124v117h124v-117zM376 573h-123v117h123v-117z" />
    <glyph glyph-name="copyright" unicode="&#xa9;" horiz-adv-x="956" 
d="M162 -62q-128 128 -128 312t128 312q131 128 312 128q183 0 311 -128q129 -128 129 -312t-129 -312q-128 -128 -311 -128q-181 0 -312 128zM474 -77q135 0 227 94.5t92 232.5q0 136 -92 231t-227 95q-134 0 -227 -95t-93 -231q0 -138 93 -232q93 -95 227 -95zM565 142
l95 -66q-49 -85 -182 -85q-105 0 -164 60.5t-59 165.5v68q0 109 59 166.5t171 57.5q122 0 175 -83l-96 -67q-30 42 -82 42q-100 0 -100 -124v-52q0 -60 21 -93q23 -33 79 -33q58 0 83 43z" />
    <glyph glyph-name="ordfeminine" unicode="&#xaa;" horiz-adv-x="316" 
d="M16 467q0 98 120 98h60v15q0 24 -11 34t-41 10q-23 0 -36 -7.5t-25 -25.5l-60 41q32 60 130 60q67 0 98.5 -24t31.5 -77v-217h-87v23q-21 -27 -71 -27t-79.5 25.5t-29.5 71.5zM196 489v11h-47q-45 0 -45 -33q0 -29 41 -29q28 0 39.5 11t11.5 40z" />
    <glyph glyph-name="guillemotleft" unicode="&#xab;" horiz-adv-x="519" 
d="M262 52l-232 231l232 231v-143l-90 -88l90 -89v-142zM477 52l-232 231l232 231v-143l-89 -88l89 -89v-142z" />
    <glyph glyph-name="logicalnot" unicode="&#xac;" horiz-adv-x="534" 
d="M484 412v-245h-129v133h-318v112h447z" />
    <glyph glyph-name="uni00AD" unicode="&#xad;" horiz-adv-x="319" 
d="M289 233h-259v112h259v-112z" />
    <glyph glyph-name="registered" unicode="&#xae;" horiz-adv-x="544" 
d="M454 316q-76 -76 -185 -76t-185 76t-76 185t76 185t185 76t185 -76t76 -185t-76 -185zM401 633q-36 36 -78.5 49.5t-80.5 4.5t-73 -30t-56 -56t-30 -73t4.5 -80.5t49.5 -78.5q78 -78 176 -50q77 22 119 93q49 84 8 167q-14 29 -39 54zM230 464v-90h-67v261h111
q48 0 74.5 -22.5t26.5 -60.5q0 -55 -48 -76l61 -102h-76l-51 90h-31zM230 579v-59h30q46 0 46 31q0 28 -41 28h-35z" />
    <glyph glyph-name="overscore" unicode="&#xaf;" horiz-adv-x="405" 
d="M344 573h-283v111h283v-111z" />
    <glyph glyph-name="degree" unicode="&#xb0;" horiz-adv-x="308" 
d="M54 458q-41 41 -41 101q0 38 15.5 68t40.5 45.5t55 23t60 0t55 -23t40.5 -45.5t15.5 -68q0 -60 -41 -101q-40 -40 -100 -40t-100 40zM204 559q0 33 -25.5 46t-51 0t-25.5 -46t25.5 -46.5t51 0t25.5 46.5z" />
    <glyph glyph-name="plusminus" unicode="&#xb1;" horiz-adv-x="506" 
d="M198 340h-139v108h139v141h109v-141h141v-108h-141v-105h-109v105zM448 104h-389v108h389v-108z" />
    <glyph glyph-name="uni00B2" unicode="&#xb2;" horiz-adv-x="278" 
d="M149 442h115v-68h-233v63l103 89q36 32 36 58q0 31 -30 31q-32 0 -33 -33h-82q0 42 24 71t58.5 36t69 1t58.5 -33.5t24 -67.5q0 -52 -63 -106z" />
    <glyph glyph-name="uni00B3" unicode="&#xb3;" horiz-adv-x="301" 
d="M132 507h-13v59h13q39 0 39 30q0 25 -29 25t-32 -27h-84q0 44 33.5 71.5t85.5 27.5q51 0 80.5 -23.5t29.5 -65.5q0 -47 -43 -66q49 -16 49 -70q0 -45 -31 -71t-85 -26t-87.5 28t-35.5 73h85q5 -27 35 -27q33 0 33 30q0 32 -43 32z" />
    <glyph glyph-name="acute" unicode="&#xb4;" horiz-adv-x="399" 
d="M215 567h-122l70 158h143z" />
    <glyph glyph-name="uni00B5" unicode="&#x3bc;" horiz-adv-x="518" 
d="M175 6v-143h-127v637h127v-291q0 -59 20.5 -83.5t63.5 -24.5q85 0 85 106v293h113v-500h-111v42q-32 -51 -103 -51q-41 0 -68 15z" />
    <glyph glyph-name="uni00B5" unicode="&#xb5;" horiz-adv-x="518" 
d="M175 6v-143h-127v637h127v-291q0 -59 20.5 -83.5t63.5 -24.5q85 0 85 106v293h113v-500h-111v42q-32 -51 -103 -51q-41 0 -68 15z" />
    <glyph glyph-name="paragraph" unicode="&#xb6;" horiz-adv-x="655" 
d="M235 690h341v-880h-133v761h-75v-761h-133v500q-80 0 -135 55t-55 135q0 79 55 134q56 56 135 56z" />
    <glyph glyph-name="middot" unicode="&#xb7;" horiz-adv-x="216" 
d="M33 423h150v-150h-150v150z" />
    <glyph glyph-name="cedilla" unicode="&#xb8;" horiz-adv-x="350" 
d="M116 -72l20 97l81 -3l-12 -44q52 -19 52 -72q0 -40 -32 -63t-86 -23q-33 0 -46 4l15 65q5 0 9.5 -0.5t6.5 -1t3 -0.5q33 0 33 21q0 20 -44 20z" />
    <glyph glyph-name="uni00B9" unicode="&#xb9;" horiz-adv-x="277" 
d="M134 690h81v-316h-88v223l-57 -37v87z" />
    <glyph glyph-name="ordmasculine" unicode="&#xba;" horiz-adv-x="350" 
d="M308 555v-45q0 -66 -37 -102.5t-103 -36.5q-64 0 -101.5 37t-37.5 102v45q0 66 37 102t102 36q66 0 103 -35.5t37 -102.5zM168 451q52 0 52 60v43q0 59 -52 59q-51 0 -51 -59v-43q0 -60 51 -60z" />
    <glyph glyph-name="guillemotright" unicode="&#xbb;" horiz-adv-x="519" 
d="M41 371v143l232 -231l-232 -231v142l90 89zM257 371v143l232 -231l-232 -231v142l89 89z" />
    <glyph glyph-name="onequarter" unicode="&#xbc;" horiz-adv-x="658" 
d="M13 0l475 690h127l-474 -690h-128zM129 690h81v-316h-88v223l-57 -37v87zM326 111l131 205h102l-123 -198h51v45h88v-45h39v-71h-39v-47h-88v47h-161v64z" />
    <glyph glyph-name="onehalf" unicode="&#xbd;" horiz-adv-x="650" 
d="M496 68h115v-68h-233v63l103 89q36 31 36 58q0 31 -30 31q-29 0 -33 -33h-82q0 42 24 71t58.5 36t69 1t58.5 -33.5t24 -67.5q0 -52 -63 -106zM13 0l475 690h127l-474 -690h-128zM129 690h81v-316h-88v223l-57 -37v87z" />
    <glyph glyph-name="threequarters" unicode="&#xbe;" horiz-adv-x="632" 
d="M126 507h-13v59h13q39 0 39 30q0 25 -29 25t-32 -27h-84q0 44 33.5 71.5t85.5 27.5q51 0 80.5 -23.5t29.5 -65.5q0 -47 -43 -66q49 -16 49 -70q0 -45 -31 -71t-85 -26t-87.5 28t-35.5 73h85q5 -27 35 -27q33 0 33 30q0 32 -43 32zM13 0l475 690h127l-474 -690h-128z
M326 111l131 205h102l-123 -198h51v45h88v-45h39v-71h-39v-47h-88v47h-161v64z" />
    <glyph glyph-name="questiondown" unicode="&#xbf;" horiz-adv-x="487" 
d="M204 280v31h121v-69q0 -35 -8 -56.5t-31 -41.5l-45 -43q-38 -36 -51 -58t-13 -52q0 -27 15.5 -46t38 -24t45.5 -1.5t39 21.5t17 45h132q0 -89 -60 -137q-58 -48 -150 -48q-98 0 -157.5 50t-59.5 141q0 50 24 94t76 96l33 32q12 12 17.5 19t10.5 19t6 28zM333 364h-137
v136h137v-136z" />
    <glyph glyph-name="Agrave" unicode="&#xc0;" horiz-adv-x="607" 
d="M134 871h148l80 -129h-125zM188 131l-42 -131h-150l240 690h134l240 -690h-149l-42 131h-231zM381 249l-78 243l-78 -243h156z" />
    <glyph glyph-name="Aacute" unicode="&#xc1;" horiz-adv-x="607" 
d="M368 742h-124l80 129h147zM188 131l-42 -131h-150l240 690h134l240 -690h-149l-42 131h-231zM381 249l-78 243l-78 -243h156z" />
    <glyph glyph-name="Acircumflex" unicode="&#xc2;" horiz-adv-x="607" 
d="M113 737l138 142h105l138 -142h-133l-58 61l-57 -61h-133zM188 131l-42 -131h-150l240 690h134l240 -690h-149l-42 131h-231zM381 249l-78 243l-78 -243h156z" />
    <glyph glyph-name="Atilde" unicode="&#xc3;" horiz-adv-x="607" 
d="M365 738q-25 0 -65 14q-38 15 -53 15q-29 0 -52 -26l-68 69q50 60 118 60q25 0 62 -15q40 -14 55 -14q28 0 50 27l68 -69q-49 -61 -115 -61zM188 131l-42 -131h-150l240 690h134l240 -690h-149l-42 131h-231zM381 249l-78 243l-78 -243h156z" />
    <glyph glyph-name="Adieresis" unicode="&#xc4;" horiz-adv-x="607" 
d="M264 752h-124v117h124v-117zM467 752h-124v117h124v-117zM188 131l-42 -131h-150l240 690h134l240 -690h-149l-42 131h-231zM381 249l-78 243l-78 -243h156z" />
    <glyph glyph-name="Aring" unicode="&#xc5;" horiz-adv-x="607" 
d="M188 131l-42 -131h-150l230 661q-38 27 -38 76q0 45 32 72t83 27q52 0 84.5 -27t32.5 -72q0 -50 -40 -77l230 -660h-149l-42 131h-231zM303 706q37 0 37 31t-37 31q-36 0 -36 -31t36 -31zM381 249l-78 243l-78 -243h156z" />
    <glyph glyph-name="AE" unicode="&#xc6;" horiz-adv-x="894" 
d="M237 138l-77 -138h-164l391 690h477v-119h-289v-155h259v-118h-259v-180h289v-118h-429v138h-198zM435 494l-133 -238h133v238z" />
    <glyph glyph-name="Ccedilla" unicode="&#xc7;" horiz-adv-x="594" 
d="M262 -72l13 65q-109 10 -168.5 87.5t-59.5 215.5v98q0 149 68.5 227t195.5 78q106 0 171 -56.5t82 -166.5h-134q-21 105 -119 105q-124 0 -124 -187v-98q0 -187 124 -187q51 0 79 25t40 80h133q-30 -201 -208 -220l-4 -16q53 -20 53 -72q0 -39 -32.5 -62.5t-86.5 -23.5
q-33 0 -46 4l15 65q5 0 9.5 -0.5t6.5 -1t3 -0.5q33 0 33 21q0 20 -44 20z" />
    <glyph glyph-name="Egrave" unicode="&#xc8;" horiz-adv-x="527" 
d="M141 871h148l80 -129h-125zM68 0v690h430v-119h-290v-155h260v-118h-260v-180h290v-118h-430z" />
    <glyph glyph-name="Eacute" unicode="&#xc9;" horiz-adv-x="527" 
d="M325 742h-124l80 129h147zM68 0v690h430v-119h-290v-155h260v-118h-260v-180h290v-118h-430z" />
    <glyph glyph-name="Ecircumflex" unicode="&#xca;" horiz-adv-x="527" 
d="M92 737l138 142h105l138 -142h-133l-58 61l-57 -61h-133zM68 0v690h430v-119h-290v-155h260v-118h-260v-180h290v-118h-430z" />
    <glyph glyph-name="Edieresis" unicode="&#xcb;" horiz-adv-x="527" 
d="M243 752h-124v117h124v-117zM446 752h-124v117h124v-117zM68 0v690h430v-119h-290v-155h260v-118h-260v-180h290v-118h-430z" />
    <glyph glyph-name="Igrave" unicode="&#xcc;" horiz-adv-x="296" 
d="M-9 871h148l80 -129h-125zM78 690h140v-690h-140v690z" />
    <glyph glyph-name="Iacute" unicode="&#xcd;" horiz-adv-x="296" 
d="M202 742h-124l80 129h147zM78 690h140v-690h-140v690z" />
    <glyph glyph-name="Icircumflex" unicode="&#xce;" horiz-adv-x="296" 
d="M-42 737l138 142h105l138 -142h-133l-58 61l-57 -61h-133zM78 690h140v-690h-140v690z" />
    <glyph glyph-name="Idieresis" unicode="&#xcf;" horiz-adv-x="296" 
d="M109 752h-124v117h124v-117zM312 752h-124v117h124v-117zM78 690h140v-690h-140v690z" />
    <glyph glyph-name="Eth" unicode="&#xd0;" horiz-adv-x="626" 
d="M314 0h-245v298h-79v118h79v274h245q265 0 265 -300v-90q0 -300 -265 -300zM209 118h105q66 0 95.5 43t29.5 139v90q0 95 -29.5 138t-95.5 43h-105v-155h136v-118h-136v-180z" />
    <glyph glyph-name="Ntilde" unicode="&#xd1;" horiz-adv-x="656" 
d="M389 738q-25 0 -65 14q-37 15 -53 15q-29 0 -52 -26l-68 69q49 60 118 60q25 0 62 -15q40 -14 55 -14q27 0 50 27l68 -69q-49 -61 -115 -61zM454 257v433h133v-690h-117l-269 427v-427h-133v690h116z" />
    <glyph glyph-name="Ograve" unicode="&#xd2;" horiz-adv-x="623" 
d="M576 394v-98q0 -149 -69 -227t-196 -78q-126 0 -195 78t-69 227v98q0 149 68.5 227t195.5 78t196 -78t69 -227zM187 394v-98q0 -187 124 -187q125 0 125 187v98q0 187 -125 187q-124 0 -124 -187zM164 871h148l80 -129h-125z" />
    <glyph glyph-name="Oacute" unicode="&#xd3;" horiz-adv-x="623" 
d="M576 394v-98q0 -149 -69 -227t-196 -78q-126 0 -195 78t-69 227v98q0 149 68.5 227t195.5 78t196 -78t69 -227zM187 394v-98q0 -187 124 -187q125 0 125 187v98q0 187 -125 187q-124 0 -124 -187zM361 742h-124l80 129h147z" />
    <glyph glyph-name="Ocircumflex" unicode="&#xd4;" horiz-adv-x="623" 
d="M576 394v-98q0 -149 -69 -227t-196 -78q-126 0 -195 78t-69 227v98q0 149 68.5 227t195.5 78t196 -78t69 -227zM187 394v-98q0 -187 124 -187q125 0 125 187v98q0 187 -125 187q-124 0 -124 -187zM121 737l138 142h105l138 -142h-133l-58 61l-57 -61h-133z" />
    <glyph glyph-name="Otilde" unicode="&#xd5;" horiz-adv-x="623" 
d="M576 394v-98q0 -149 -69 -227t-196 -78q-126 0 -195 78t-69 227v98q0 149 68.5 227t195.5 78t196 -78t69 -227zM187 394v-98q0 -187 124 -187q125 0 125 187v98q0 187 -125 187q-124 0 -124 -187zM373 738q-25 0 -65 14q-37 15 -53 15q-29 0 -52 -26l-68 69q49 60 118 60
q25 0 62 -15q40 -14 55 -14q28 0 50 27l68 -69q-49 -61 -115 -61z" />
    <glyph glyph-name="Odieresis" unicode="&#xd6;" horiz-adv-x="623" 
d="M576 394v-98q0 -149 -69 -227t-196 -78q-126 0 -195 78t-69 227v98q0 149 68.5 227t195.5 78t196 -78t69 -227zM187 394v-98q0 -187 124 -187q125 0 125 187v98q0 187 -125 187q-124 0 -124 -187zM272 752h-124v117h124v-117zM475 752h-124v117h124v-117z" />
    <glyph glyph-name="multiply" unicode="&#xd7;" horiz-adv-x="563" 
d="M286 276l-116 -117l-78 78l117 117l-117 118l77 77l118 -118l118 118l77 -77l-118 -118l117 -117l-78 -78z" />
    <glyph glyph-name="Oslash" unicode="&#xd8;" horiz-adv-x="623" 
d="M245 -2l-41 -114h-115l57 157q-99 77 -99 255v98q0 149 68.5 227t195.5 78q38 0 70 -7l44 120h115l-60 -166q96 -76 96 -252v-98q0 -149 -69 -227t-196 -78q-34 0 -66 7zM187 394v-98q0 -67 13 -105l140 387q-14 3 -29 3q-124 0 -124 -187zM436 296v98q0 58 -12 99
l-138 -382q14 -2 25 -2q125 0 125 187z" />
    <glyph glyph-name="Ugrave" unicode="&#xd9;" horiz-adv-x="666" 
d="M458 279v411h140v-410q0 -141 -69.5 -215t-195.5 -74t-195.5 73.5t-69.5 214.5v411h140v-411q0 -88 30 -129t95 -41t95 41t30 129zM177 871h148l80 -129h-125z" />
    <glyph glyph-name="Uacute" unicode="&#xda;" horiz-adv-x="666" 
d="M458 279v411h140v-410q0 -141 -69.5 -215t-195.5 -74t-195.5 73.5t-69.5 214.5v411h140v-411q0 -88 30 -129t95 -41t95 41t30 129zM385 742h-124l80 129h147z" />
    <glyph glyph-name="Ucircumflex" unicode="&#xdb;" horiz-adv-x="666" 
d="M458 279v411h140v-410q0 -141 -69.5 -215t-195.5 -74t-195.5 73.5t-69.5 214.5v411h140v-411q0 -88 30 -129t95 -41t95 41t30 129zM143 737l138 142h105l138 -142h-133l-58 61l-57 -61h-133z" />
    <glyph glyph-name="Udieresis" unicode="&#xdc;" horiz-adv-x="666" 
d="M458 279v411h140v-410q0 -141 -69.5 -215t-195.5 -74t-195.5 73.5t-69.5 214.5v411h140v-411q0 -88 30 -129t95 -41t95 41t30 129zM294 752h-124v117h124v-117zM497 752h-124v117h124v-117z" />
    <glyph glyph-name="Yacute" unicode="&#xdd;" horiz-adv-x="583" 
d="M345 742h-124l80 129h147zM221 282l-215 408h162l123 -257l124 257h161l-215 -408v-282h-140v282z" />
    <glyph glyph-name="Thorn" unicode="&#xde;" horiz-adv-x="590" 
d="M315 136h-107v-136h-140v690h140v-107h107q124 0 191 -56.5t67 -163.5q0 -108 -68.5 -167.5t-189.5 -59.5zM208 465v-210h87q72 0 105 26t33 82q0 102 -138 102h-87z" />
    <glyph glyph-name="germandbls" unicode="&#xdf;" horiz-adv-x="513" 
d="M462 565q0 -70 -61 -98q34 -12 47.5 -38t13.5 -77v-212q0 -84 -33 -113q-33 -27 -113 -27h-63v106h33q27 0 38 13t11 43v187q0 31 -11 45t-38 14h-33v99h33q49 0 49 47q0 46 -69 46q-87 0 -87 -109v-491h-128v499q0 200 215 200q94 0 145 -36.5t51 -97.5z" />
    <glyph glyph-name="agrave" unicode="&#xe0;" 
d="M202 -9q-82 0 -129 41.5t-47 115.5q0 73 49.5 112.5t135.5 39.5h99v29q0 43 -18 58.5t-71 15.5q-40 0 -59.5 -8t-34.5 -32l-90 63q27 45 72.5 64t123.5 19q107 0 154.5 -41.5t47.5 -139.5v-328h-125v44q-32 -53 -108 -53zM310 187v19h-84q-75 0 -75 -56t73 -56
q45 0 65.5 21.5t20.5 71.5zM107 725h143l70 -158h-122z" />
    <glyph glyph-name="aacute" unicode="&#xe1;" 
d="M202 -9q-82 0 -129 41.5t-47 115.5q0 73 49.5 112.5t135.5 39.5h99v29q0 43 -18 58.5t-71 15.5q-40 0 -59.5 -8t-34.5 -32l-90 63q27 45 72.5 64t123.5 19q107 0 154.5 -41.5t47.5 -139.5v-328h-125v44q-32 -53 -108 -53zM310 187v19h-84q-75 0 -75 -56t73 -56
q45 0 65.5 21.5t20.5 71.5zM284 567h-122l70 158h143z" />
    <glyph glyph-name="acircumflex" unicode="&#xe2;" 
d="M202 -9q-82 0 -129 41.5t-47 115.5q0 73 49.5 112.5t135.5 39.5h99v29q0 43 -18 58.5t-71 15.5q-40 0 -59.5 -8t-34.5 -32l-90 63q27 45 72.5 64t123.5 19q107 0 154.5 -41.5t47.5 -139.5v-328h-125v44q-32 -53 -108 -53zM310 187v19h-84q-75 0 -75 -56t73 -56
q45 0 65.5 21.5t20.5 71.5zM80 568l108 142h106l108 -142h-114l-47 65l-47 -65h-114z" />
    <glyph glyph-name="atilde" unicode="&#xe3;" 
d="M202 -9q-82 0 -129 41.5t-47 115.5q0 73 49.5 112.5t135.5 39.5h99v29q0 43 -18 58.5t-71 15.5q-40 0 -59.5 -8t-34.5 -32l-90 63q27 45 72.5 64t123.5 19q107 0 154.5 -41.5t47.5 -139.5v-328h-125v44q-32 -53 -108 -53zM310 187v19h-84q-75 0 -75 -56t73 -56
q45 0 65.5 21.5t20.5 71.5zM307 569q-24 0 -64 14q-37 15 -53 15q-30 0 -53 -27l-67 64q48 61 117 61q25 0 62 -15q40 -14 55 -14q27 0 51 27l67 -64q-46 -61 -115 -61z" />
    <glyph glyph-name="adieresis" unicode="&#xe4;" 
d="M202 -9q-82 0 -129 41.5t-47 115.5q0 73 49.5 112.5t135.5 39.5h99v29q0 43 -18 58.5t-71 15.5q-40 0 -59.5 -8t-34.5 -32l-90 63q27 45 72.5 64t123.5 19q107 0 154.5 -41.5t47.5 -139.5v-328h-125v44q-32 -53 -108 -53zM310 187v19h-84q-75 0 -75 -56t73 -56
q45 0 65.5 21.5t20.5 71.5zM193 573h-124v117h124v-117zM396 573h-123v117h123v-117z" />
    <glyph glyph-name="aring" unicode="&#xe5;" 
d="M202 -9q-82 0 -129 41.5t-47 115.5q0 73 49.5 112.5t135.5 39.5h99v29q0 43 -18 58.5t-71 15.5q-40 0 -59.5 -8t-34.5 -32l-90 63q27 45 72.5 64t123.5 19q107 0 154.5 -41.5t47.5 -139.5v-328h-125v44q-32 -53 -108 -53zM310 187v19h-84q-75 0 -75 -56t73 -56
q45 0 65.5 21.5t20.5 71.5zM155 567q-34 31 -34 79t34.5 79t88.5 31q55 0 89 -31t34 -79t-34 -79q-35 -30 -89 -30t-89 30zM207 646q0 -20 10 -32t27 -12q37 0 37 44q0 43 -37 43t-37 -43z" />
    <glyph glyph-name="ae" unicode="&#xe6;" horiz-adv-x="760" 
d="M618 142l94 -66q-49 -85 -182 -85q-114 0 -163 69q-55 -69 -164 -69q-82 0 -129.5 41.5t-47.5 113.5q0 75 50 114.5t139 39.5h95v25q0 45 -17.5 61.5t-68.5 16.5q-42 0 -62 -8.5t-35 -31.5l-90 61q51 85 199 85q102 0 146 -48q48 48 132 48q206 0 206 -235v-58h-285
q1 -117 95 -117q33 0 52.5 9.5t35.5 33.5zM310 186v20h-85q-74 0 -74 -56t73 -56q45 0 65.5 21t20.5 71zM435 307h157q-4 94 -77 94t-80 -94z" />
    <glyph glyph-name="ccedilla" unicode="&#xe7;" horiz-adv-x="446" 
d="M204 -72l13 66q-87 10 -135.5 69.5t-48.5 153.5v68q0 109 59 166.5t171 57.5q122 0 175 -83l-96 -67q-30 42 -82 42q-100 0 -100 -124v-52q0 -60 21 -93q23 -33 79 -33q58 0 83 43l95 -66q-44 -73 -141 -83l-4 -15q52 -19 52 -72q0 -40 -32 -63t-86 -23q-33 0 -46 4
l15 65q5 0 9.5 -0.5t6.5 -1t3 -0.5q33 0 33 21q0 20 -44 20z" />
    <glyph glyph-name="egrave" unicode="&#xe8;" 
d="M343 142l95 -66q-49 -85 -183 -85q-105 0 -163.5 61t-58.5 165v68q0 110 53 167t153 57q206 0 206 -234v-57h-285q2 -119 94 -119q35 0 54 9.5t35 33.5zM317 309q-5 92 -77 92t-80 -92h157zM113 725h143l70 -158h-122z" />
    <glyph glyph-name="eacute" unicode="&#xe9;" 
d="M343 142l95 -66q-49 -85 -183 -85q-105 0 -163.5 61t-58.5 165v68q0 110 53 167t153 57q206 0 206 -234v-57h-285q2 -119 94 -119q35 0 54 9.5t35 33.5zM317 309q-5 92 -77 92t-80 -92h157zM286 567h-122l70 158h143z" />
    <glyph glyph-name="ecircumflex" unicode="&#xea;" 
d="M343 142l95 -66q-49 -85 -183 -85q-105 0 -163.5 61t-58.5 165v68q0 110 53 167t153 57q206 0 206 -234v-57h-285q2 -119 94 -119q35 0 54 9.5t35 33.5zM317 309q-5 92 -77 92t-80 -92h157zM78 568l108 142h106l108 -142h-114l-47 65l-47 -65h-114z" />
    <glyph glyph-name="edieresis" unicode="&#xeb;" 
d="M343 142l95 -66q-49 -85 -183 -85q-105 0 -163.5 61t-58.5 165v68q0 110 53 167t153 57q206 0 206 -234v-57h-285q2 -119 94 -119q35 0 54 9.5t35 33.5zM317 309q-5 92 -77 92t-80 -92h157zM199 573h-124v117h124v-117zM402 573h-123v117h123v-117z" />
    <glyph glyph-name="igrave" unicode="&#xec;" horiz-adv-x="260" 
d="M-24 725h143l70 -158h-122zM194 0h-128v500h128v-500z" />
    <glyph glyph-name="iacute" unicode="&#xed;" horiz-adv-x="260" 
d="M183 567h-122l70 158h143zM194 0h-128v500h128v-500z" />
    <glyph glyph-name="icircumflex" unicode="&#xee;" horiz-adv-x="260" 
d="M-36 568l108 142h106l108 -142h-114l-47 65l-47 -65h-114zM194 0h-128v500h128v-500z" />
    <glyph glyph-name="idieresis" unicode="&#xef;" horiz-adv-x="260" 
d="M85 573h-124v117h124v-117zM288 573h-123v117h123v-117zM194 0h-128v500h128v-500z" />
    <glyph glyph-name="eth" unicode="&#xf0;" horiz-adv-x="505" 
d="M238 524l-73 38l22 42q-25 9 -54 21l45 85l53 -22l26 50l73 -39l-24 -45q91 -43 125 -97q34 -52 34 -167v-98v-14v-57q0 -110 -55 -170t-161 -60q-104 0 -160 60t-56 170v60q0 110 55 169t157 59q69 0 110 -35q-6 35 -26 56t-66 42zM249 99q89 0 89 126v52q0 124 -89 124
t-89 -124v-52q0 -64 21 -95t68 -31z" />
    <glyph glyph-name="ntilde" unicode="&#xf1;" horiz-adv-x="526" 
d="M179 0h-128v500h125v-42q39 51 115 51q183 0 183 -196v-313h-127v293q0 56 -19 81t-61 25q-88 0 -88 -105v-294zM324 569q-24 0 -64 14q-38 15 -53 15q-31 0 -53 -27l-67 64q48 61 117 61q24 0 62 -15q40 -14 55 -14q27 0 51 27l67 -64q-46 -61 -115 -61z" />
    <glyph glyph-name="ograve" unicode="&#xf2;" horiz-adv-x="499" 
d="M465 281v-60q0 -110 -55 -170t-161 -60q-104 0 -160 60t-56 170v60q0 111 55.5 169.5t160.5 58.5t160.5 -58t55.5 -170zM249 99q89 0 89 126v52q0 124 -89 124t-89 -124v-52q0 -64 21 -95t68 -31zM126 725h143l70 -158h-122z" />
    <glyph glyph-name="oacute" unicode="&#xf3;" horiz-adv-x="499" 
d="M465 281v-60q0 -110 -55 -170t-161 -60q-104 0 -160 60t-56 170v60q0 111 55.5 169.5t160.5 58.5t160.5 -58t55.5 -170zM249 99q89 0 89 126v52q0 124 -89 124t-89 -124v-52q0 -64 21 -95t68 -31zM301 567h-122l70 158h143z" />
    <glyph glyph-name="ocircumflex" unicode="&#xf4;" horiz-adv-x="499" 
d="M465 281v-60q0 -110 -55 -170t-161 -60q-104 0 -160 60t-56 170v60q0 111 55.5 169.5t160.5 58.5t160.5 -58t55.5 -170zM249 99q89 0 89 126v52q0 124 -89 124t-89 -124v-52q0 -64 21 -95t68 -31zM88 568l108 142h106l108 -142h-114l-47 65l-47 -65h-114z" />
    <glyph glyph-name="otilde" unicode="&#xf5;" horiz-adv-x="499" 
d="M465 281v-60q0 -110 -55 -170t-161 -60q-104 0 -160 60t-56 170v60q0 111 55.5 169.5t160.5 58.5t160.5 -58t55.5 -170zM249 99q89 0 89 126v52q0 124 -89 124t-89 -124v-52q0 -64 21 -95t68 -31zM311 569q-24 0 -64 14q-38 15 -53 15q-30 0 -53 -27l-67 64q48 61 117 61
q25 0 62 -15q40 -14 55 -14q27 0 51 27l67 -64q-46 -61 -115 -61z" />
    <glyph glyph-name="odieresis" unicode="&#xf6;" horiz-adv-x="499" 
d="M465 281v-60q0 -110 -55 -170t-161 -60q-104 0 -160 60t-56 170v60q0 111 55.5 169.5t160.5 58.5t160.5 -58t55.5 -170zM249 99q89 0 89 126v52q0 124 -89 124t-89 -124v-52q0 -64 21 -95t68 -31zM209 573h-124v117h124v-117zM412 573h-123v117h123v-117z" />
    <glyph glyph-name="divide" unicode="&#xf7;" horiz-adv-x="506" 
d="M313 460h-121v121h121v-121zM447 298h-389v112h389v-112zM313 128h-121v120h121v-120z" />
    <glyph glyph-name="oslash" unicode="&#xf8;" horiz-adv-x="499" 
d="M175 0l-35 -79h-77l49 109q-79 58 -79 191v60q0 111 55.5 169.5t160.5 58.5q40 0 73 -9l37 82h77l-50 -111q79 -55 79 -190v-60q0 -110 -55 -170t-161 -60q-41 0 -74 9zM160 277v-52q0 -39 8 -69l108 241q-13 4 -27 4q-89 0 -89 -124zM249 99q89 0 89 126v52q0 39 -9 66
l-108 -241q12 -3 28 -3z" />
    <glyph glyph-name="ugrave" unicode="&#xf9;" horiz-adv-x="526" 
d="M347 500h127v-500h-125v42q-18 -28 -43.5 -39.5t-70.5 -11.5q-184 0 -184 197v312h128v-293q0 -56 19.5 -81t61.5 -25q87 0 87 105v294zM138 725h143l70 -158h-122z" />
    <glyph glyph-name="uacute" unicode="&#xfa;" horiz-adv-x="526" 
d="M347 500h127v-500h-125v42q-18 -28 -43.5 -39.5t-70.5 -11.5q-184 0 -184 197v312h128v-293q0 -56 19.5 -81t61.5 -25q87 0 87 105v294zM318 567h-122l70 158h143z" />
    <glyph glyph-name="ucircumflex" unicode="&#xfb;" horiz-adv-x="526" 
d="M347 500h127v-500h-125v42q-18 -28 -43.5 -39.5t-70.5 -11.5q-184 0 -184 197v312h128v-293q0 -56 19.5 -81t61.5 -25q87 0 87 105v294zM102 568l108 142h106l108 -142h-114l-47 65l-47 -65h-114z" />
    <glyph glyph-name="udieresis" unicode="&#xfc;" horiz-adv-x="526" 
d="M347 500h127v-500h-125v42q-18 -28 -43.5 -39.5t-70.5 -11.5q-184 0 -184 197v312h128v-293q0 -56 19.5 -81t61.5 -25q87 0 87 105v294zM223 573h-124v117h124v-117zM426 573h-123v117h123v-117z" />
    <glyph glyph-name="yacute" unicode="&#xfd;" horiz-adv-x="479" 
d="M192 -7l-187 507h134l111 -320l100 320h129l-175 -523q-34 -102 -79 -134q-45 -33 -150 -33v114q55 0 78.5 13.5t38.5 55.5zM309 567h-122l70 158h143z" />
    <glyph glyph-name="thorn" unicode="&#xfe;" horiz-adv-x="517" 
d="M484 285v-68q0 -101 -51 -164q-50 -62 -144 -62q-75 0 -110 29v-210h-128v880h128v-223q37 42 111 42q90 0 142 -59.5t52 -164.5zM268 99q88 0 88 126v52q0 124 -88 124q-89 0 -89 -113v-63q0 -64 21 -95t68 -31z" />
    <glyph glyph-name="ydieresis" unicode="&#xff;" horiz-adv-x="479" 
d="M192 -7l-187 507h134l111 -320l100 320h129l-175 -523q-34 -102 -79 -134q-45 -33 -150 -33v114q55 0 78.5 13.5t38.5 55.5zM208 573h-124v117h124v-117zM411 573h-123v117h123v-117z" />
    <glyph glyph-name="Amacron" unicode="&#x100;" horiz-adv-x="607" 
d="M465 744h-322v112h322v-112zM188 131l-42 -131h-150l240 690h134l240 -690h-149l-42 131h-231zM381 249l-78 243l-78 -243h156z" />
    <glyph glyph-name="amacron" unicode="&#x101;" 
d="M202 -9q-82 0 -129 41.5t-47 115.5q0 73 49.5 112.5t135.5 39.5h99v29q0 43 -18 58.5t-71 15.5q-40 0 -59.5 -8t-34.5 -32l-90 63q27 45 72.5 64t123.5 19q107 0 154.5 -41.5t47.5 -139.5v-328h-125v44q-32 -53 -108 -53zM310 187v19h-84q-75 0 -75 -56t73 -56
q45 0 65.5 21.5t20.5 71.5zM386 573h-283v111h283v-111z" />
    <glyph glyph-name="Abreve" unicode="&#x102;" horiz-adv-x="607" 
d="M383 879h112q0 -42 -21 -75t-55 -50.5t-74.5 -25.5t-81 0t-74.5 25.5t-55 50.5t-21 75h111q10 -54 80 -54q68 0 79 54zM188 131l-42 -131h-150l240 690h134l240 -690h-149l-42 131h-231zM381 249l-78 243l-78 -243h156z" />
    <glyph glyph-name="abreve" unicode="&#x103;" 
d="M202 -9q-82 0 -129 41.5t-47 115.5q0 73 49.5 112.5t135.5 39.5h99v29q0 43 -18 58.5t-71 15.5q-40 0 -59.5 -8t-34.5 -32l-90 63q27 45 72.5 64t123.5 19q107 0 154.5 -41.5t47.5 -139.5v-328h-125v44q-32 -53 -108 -53zM310 187v19h-84q-75 0 -75 -56t73 -56
q45 0 65.5 21.5t20.5 71.5zM310 690h92q-2 -51 -32.5 -86t-73.5 -43t-86.5 0t-74 43t-32.5 86h93q8 -53 57 -53t57 53z" />
    <glyph glyph-name="Aogonek" unicode="&#x104;" horiz-adv-x="607" 
d="M188 131l-42 -131h-150l240 690h134l240 -690q-58 -51 -41 -74q7 -9 24 -9q1 0 19 2l15 -65q-13 -4 -48 -4q-49 0 -79.5 20t-30.5 56q0 42 35 74h-43l-42 131h-231zM381 249l-78 243l-78 -243h156z" />
    <glyph glyph-name="aogonek" unicode="&#x105;" horiz-adv-x="495" 
d="M202 -9q-82 0 -129 41.5t-47 115.5q0 73 49.5 112.5t135.5 39.5h99v29q0 43 -18 58.5t-71 15.5q-40 0 -59.5 -8t-34.5 -32l-90 63q27 45 72.5 64t123.5 19q107 0 154.5 -41.5t47.5 -139.5v-328q-26 -23 -34 -33.5t-11 -27.5q0 -22 27 -22q1 0 19 2l15 -65q-13 -4 -48 -4
q-49 0 -79.5 20t-30.5 56q0 42 35 74h-18v44q-32 -53 -108 -53zM310 187v19h-84q-75 0 -75 -56t73 -56q45 0 65.5 21.5t20.5 71.5z" />
    <glyph glyph-name="Cacute" unicode="&#x106;" horiz-adv-x="594" 
d="M564 476h-134q-21 105 -119 105q-124 0 -124 -187v-98q0 -187 124 -187q51 0 79 25t40 80h133q-33 -223 -252 -223q-126 0 -195 78t-69 227v98q0 149 68.5 227t195.5 78q106 0 171 -56.5t82 -166.5zM345 742h-124l80 129h147z" />
    <glyph glyph-name="cacute" unicode="&#x107;" horiz-adv-x="446" 
d="M343 142l95 -66q-49 -85 -182 -85q-105 0 -164 60.5t-59 165.5v68q0 109 59 166.5t171 57.5q122 0 175 -83l-96 -67q-30 42 -82 42q-100 0 -100 -124v-52q0 -60 21 -93q23 -33 79 -33q58 0 83 43zM305 567h-122l70 158h143z" />
    <glyph glyph-name="Ccircumflex" unicode="&#x108;" horiz-adv-x="594" 
d="M564 476h-134q-21 105 -119 105q-124 0 -124 -187v-98q0 -187 124 -187q51 0 79 25t40 80h133q-33 -223 -252 -223q-126 0 -195 78t-69 227v98q0 149 68.5 227t195.5 78q106 0 171 -56.5t82 -166.5zM118 737l138 142h105l138 -142h-133l-58 61l-57 -61h-133z" />
    <glyph glyph-name="ccircumflex" unicode="&#x109;" horiz-adv-x="446" 
d="M343 142l95 -66q-49 -85 -182 -85q-105 0 -164 60.5t-59 165.5v68q0 109 59 166.5t171 57.5q122 0 175 -83l-96 -67q-30 42 -82 42q-100 0 -100 -124v-52q0 -60 21 -93q23 -33 79 -33q58 0 83 43zM98 568l108 142h106l108 -142h-114l-47 65l-47 -65h-114z" />
    <glyph glyph-name="Cdotaccent" unicode="&#x10a;" horiz-adv-x="594" 
d="M564 476h-134q-21 105 -119 105q-124 0 -124 -187v-98q0 -187 124 -187q51 0 79 25t40 80h133q-33 -223 -252 -223q-126 0 -195 78t-69 227v98q0 149 68.5 227t195.5 78q106 0 171 -56.5t82 -166.5zM380 759h-141v110h141v-110z" />
    <glyph glyph-name="cdotaccent" unicode="&#x10b;" horiz-adv-x="446" 
d="M343 142l95 -66q-49 -85 -182 -85q-105 0 -164 60.5t-59 165.5v68q0 109 59 166.5t171 57.5q122 0 175 -83l-96 -67q-30 42 -82 42q-100 0 -100 -124v-52q0 -60 21 -93q23 -33 79 -33q58 0 83 43zM320 566h-138v124h138v-124z" />
    <glyph glyph-name="Ccaron" unicode="&#x10c;" horiz-adv-x="594" 
d="M564 476h-134q-21 105 -119 105q-124 0 -124 -187v-98q0 -187 124 -187q51 0 79 25t40 80h133q-33 -223 -252 -223q-126 0 -195 78t-69 227v98q0 149 68.5 227t195.5 78q106 0 171 -56.5t82 -166.5zM496 879l-138 -142h-105l-138 142h133l57 -61l58 61h133z" />
    <glyph glyph-name="ccaron" unicode="&#x10d;" horiz-adv-x="446" 
d="M343 142l95 -66q-49 -85 -182 -85q-105 0 -164 60.5t-59 165.5v68q0 109 59 166.5t171 57.5q122 0 175 -83l-96 -67q-30 42 -82 42q-100 0 -100 -124v-52q0 -60 21 -93q23 -33 79 -33q58 0 83 43zM416 710l-108 -142h-106l-108 142h114l47 -65l47 65h114z" />
    <glyph glyph-name="Dcaron" unicode="&#x10e;" horiz-adv-x="625" 
d="M313 0h-245v690h245q265 0 265 -300v-90q0 -300 -265 -300zM208 118h105q66 0 95.5 43t29.5 139v90q0 95 -29.5 138t-95.5 43h-105v-453zM479 879l-138 -142h-105l-138 142h133l57 -61l58 61h133z" />
    <glyph glyph-name="dcaron" unicode="&#x10f;" horiz-adv-x="538" 
d="M338 474v216h127v-690h-127v29q-41 -38 -107 -38q-94 0 -146 60.5t-52 165.5v68q0 105 52.5 164.5t145.5 59.5q66 0 107 -35zM249 99q47 0 68 31t21 95v63q0 113 -89 113t-89 -124v-52q0 -126 89 -126zM499 689h137v-129l-137 -117v246z" />
    <glyph glyph-name="Dcroat" unicode="&#x110;" horiz-adv-x="636" 
d="M324 0h-245v298h-89v118h89v274h245q265 0 265 -300v-90q0 -300 -265 -300zM219 118h105q66 0 95.5 43t29.5 139v90q0 95 -29.5 138t-95.5 43h-105v-155h140v-118h-140v-180z" />
    <glyph glyph-name="dslash" unicode="&#x111;" horiz-adv-x="517" 
d="M338 474v64h-124v105h124v47h127v-47h75v-105h-75v-538h-127v29q-41 -38 -107 -38q-94 0 -146 60.5t-52 165.5v68q0 105 52.5 164.5t145.5 59.5q66 0 107 -35zM249 99q47 0 68 31t21 95v63q0 113 -89 113t-89 -124v-52q0 -126 89 -126z" />
    <glyph glyph-name="Emacron" unicode="&#x112;" horiz-adv-x="527" 
d="M444 744h-322v112h322v-112zM68 0v690h430v-119h-290v-155h260v-118h-260v-180h290v-118h-430z" />
    <glyph glyph-name="emacron" unicode="&#x113;" 
d="M343 142l95 -66q-49 -85 -183 -85q-105 0 -163.5 61t-58.5 165v68q0 110 53 167t153 57q206 0 206 -234v-57h-285q2 -119 94 -119q35 0 54 9.5t35 33.5zM317 309q-5 92 -77 92t-80 -92h157zM381 573h-283v111h283v-111z" />
    <glyph glyph-name="Edotaccent" unicode="&#x116;" horiz-adv-x="527" 
d="M353 759h-141v110h141v-110zM68 0v690h430v-119h-290v-155h260v-118h-260v-180h290v-118h-430z" />
    <glyph glyph-name="edotaccent" unicode="&#x117;" 
d="M343 142l95 -66q-49 -85 -183 -85q-105 0 -163.5 61t-58.5 165v68q0 110 53 167t153 57q206 0 206 -234v-57h-285q2 -119 94 -119q35 0 54 9.5t35 33.5zM317 309q-5 92 -77 92t-80 -92h157zM308 566h-138v124h138v-124z" />
    <glyph glyph-name="Eogonek" unicode="&#x118;" horiz-adv-x="527" 
d="M68 0v690h430v-119h-290v-155h260v-118h-260v-180h290v-118h-111q-26 -23 -34 -33.5t-11 -27.5q0 -22 27 -22q1 0 19 2l15 -65q-13 -4 -48 -4q-49 0 -79.5 20t-30.5 56q0 42 35 74h-212z" />
    <glyph glyph-name="eogonek" unicode="&#x119;" 
d="M343 142l95 -66q-38 -65 -120 -80q-40 -34 -40 -57q0 -22 27 -22q1 0 19 2l15 -65q-13 -4 -48 -4q-48 0 -79 19q-31 20 -31 57t29 69q-84 12 -130.5 70.5t-46.5 151.5v68q0 110 53 167t153 57q206 0 206 -234v-57h-285q2 -119 94 -119q35 0 54 9.5t35 33.5zM317 309
q-5 92 -77 92t-80 -92h157z" />
    <glyph glyph-name="Ecaron" unicode="&#x11a;" horiz-adv-x="527" 
d="M473 879l-138 -142h-105l-138 142h133l57 -61l58 61h133zM68 0v690h430v-119h-290v-155h260v-118h-260v-180h290v-118h-430z" />
    <glyph glyph-name="ecaron" unicode="&#x11b;" 
d="M343 142l95 -66q-49 -85 -183 -85q-105 0 -163.5 61t-58.5 165v68q0 110 53 167t153 57q206 0 206 -234v-57h-285q2 -119 94 -119q35 0 54 9.5t35 33.5zM317 309q-5 92 -77 92t-80 -92h157zM403 710l-108 -142h-106l-108 142h114l47 -65l47 65h114z" />
    <glyph glyph-name="Gcircumflex" unicode="&#x11c;" horiz-adv-x="612" 
d="M314 241v118h251v-63q0 -151 -65 -228t-189 -77q-126 0 -195 78t-69 227v88q0 156 68 235.5t196 79.5q107 0 172 -57.5t81 -165.5h-134q-20 105 -119 105q-124 0 -124 -187v-98q0 -187 124 -187q56 0 84.5 32.5t34.5 99.5h-116zM115 737l138 142h105l138 -142h-133
l-58 61l-57 -61h-133z" />
    <glyph glyph-name="gcircumflex" unicode="&#x11d;" horiz-adv-x="517" 
d="M338 474v26h127v-490q0 -121 -63 -166q-56 -40 -157 -40q-73 0 -118.5 20.5t-77.5 69.5l86 62q33 -45 98 -45q58 0 81.5 21.5t23.5 77.5v16q-41 -35 -107 -35q-94 0 -146 60.5t-52 165.5v68q0 105 52.5 164.5t145.5 59.5q66 0 107 -35zM338 214v63q0 124 -89 124
t-89 -124v-52q0 -126 89 -126t89 115zM122 568l108 142h106l108 -142h-114l-47 65l-47 -65h-114z" />
    <glyph glyph-name="Gbreve" unicode="&#x11e;" horiz-adv-x="612" 
d="M314 241v118h251v-63q0 -151 -65 -228t-189 -77q-126 0 -195 78t-69 227v88q0 156 68 235.5t196 79.5q107 0 172 -57.5t81 -165.5h-134q-20 105 -119 105q-124 0 -124 -187v-98q0 -187 124 -187q56 0 84.5 32.5t34.5 99.5h-116zM385 879h112q0 -42 -21 -75t-55 -50.5
t-74.5 -25.5t-81 0t-74.5 25.5t-55 50.5t-21 75h111q10 -54 80 -54q68 0 79 54z" />
    <glyph glyph-name="gbreve" unicode="&#x11f;" horiz-adv-x="517" 
d="M338 474v26h127v-490q0 -121 -63 -166q-56 -40 -157 -40q-73 0 -118.5 20.5t-77.5 69.5l86 62q33 -45 98 -45q58 0 81.5 21.5t23.5 77.5v16q-41 -35 -107 -35q-94 0 -146 60.5t-52 165.5v68q0 105 52.5 164.5t145.5 59.5q66 0 107 -35zM338 214v63q0 124 -89 124
t-89 -124v-52q0 -126 89 -126t89 115zM341 690h92q-2 -51 -32.5 -86t-73.5 -43t-86.5 0t-74 43t-32.5 86h93q8 -53 57 -53t57 53z" />
    <glyph glyph-name="Gdotaccent" unicode="&#x120;" horiz-adv-x="612" 
d="M314 241v118h251v-63q0 -151 -65 -228t-189 -77q-126 0 -195 78t-69 227v88q0 156 68 235.5t196 79.5q107 0 172 -57.5t81 -165.5h-134q-20 105 -119 105q-124 0 -124 -187v-98q0 -187 124 -187q56 0 84.5 32.5t34.5 99.5h-116zM381 759h-141v110h141v-110z" />
    <glyph glyph-name="gdotaccent" unicode="&#x121;" horiz-adv-x="517" 
d="M338 474v26h127v-490q0 -121 -63 -166q-56 -40 -157 -40q-73 0 -118.5 20.5t-77.5 69.5l86 62q33 -45 98 -45q58 0 81.5 21.5t23.5 77.5v16q-41 -35 -107 -35q-94 0 -146 60.5t-52 165.5v68q0 105 52.5 164.5t145.5 59.5q66 0 107 -35zM338 214v63q0 124 -89 124
t-89 -124v-52q0 -126 89 -126t89 115zM346 566h-138v124h138v-124z" />
    <glyph glyph-name="uni0122" unicode="&#x122;" horiz-adv-x="612" 
d="M314 241v118h251v-63q0 -151 -65 -228t-189 -77q-126 0 -195 78t-69 227v88q0 156 68 235.5t196 79.5q107 0 172 -57.5t81 -165.5h-134q-20 105 -119 105q-124 0 -124 -187v-98q0 -187 124 -187q56 0 84.5 32.5t34.5 99.5h-116zM238 -51h137v-129l-137 -117v246z" />
    <glyph glyph-name="uni0123" unicode="&#x123;" horiz-adv-x="517" 
d="M338 474v26h127v-490q0 -121 -63 -166q-56 -40 -157 -40q-73 0 -118.5 20.5t-77.5 69.5l86 62q33 -45 98 -45q58 0 81.5 21.5t23.5 77.5v16q-41 -35 -107 -35q-94 0 -146 60.5t-52 165.5v68q0 105 52.5 164.5t145.5 59.5q66 0 107 -35zM338 214v63q0 124 -89 124
t-89 -124v-52q0 -126 89 -126t89 115zM326 542h-137v129l137 117v-246z" />
    <glyph glyph-name="Hcircumflex" unicode="&#x124;" horiz-adv-x="656" 
d="M137 737l138 142h105l138 -142h-133l-58 61l-57 -61h-133zM68 690h140v-274h239v274h140v-690h-140v298h-239v-298h-140v690z" />
    <glyph glyph-name="hcircumflex" unicode="&#x125;" horiz-adv-x="526" 
d="M179 0h-128v690h128v-229q36 48 112 48q183 0 183 -196v-313h-127v293q0 56 -19 81t-61 25q-88 0 -88 -105v-294zM-46 734l108 142h106l108 -142h-114l-47 65l-47 -65h-114z" />
    <glyph glyph-name="Hbar" unicode="&#x126;" horiz-adv-x="672" 
d="M76 690h140v-97h239v97h140v-97h87v-125h-87v-468h-140v298h-239v-298h-140v468h-86v125h86v97zM216 468v-52h239v52h-239z" />
    <glyph glyph-name="hbar" unicode="&#x127;" horiz-adv-x="529" 
d="M54 538h-80v105h80v47h128v-47h131v-105h-131v-77q36 48 112 48q183 0 183 -196v-313h-127v293q0 56 -19 81t-61 25q-88 0 -88 -105v-294h-128v538z" />
    <glyph glyph-name="Imacron" unicode="&#x12a;" horiz-adv-x="296" 
d="M310 744h-322v112h322v-112zM78 690h140v-690h-140v690z" />
    <glyph glyph-name="imacron" unicode="&#x12b;" horiz-adv-x="260" 
d="M267 573h-283v111h283v-111zM194 0h-128v500h128v-500z" />
    <glyph glyph-name="Iogonek" unicode="&#x12e;" horiz-adv-x="296" 
d="M78 690h140v-690q-26 -23 -34 -33.5t-11 -27.5q0 -22 27 -22q1 0 19 2l15 -65q-13 -4 -48 -4q-49 0 -79.5 20t-30.5 56q0 42 35 74h-33v690z" />
    <glyph glyph-name="iogonek" unicode="&#x12f;" horiz-adv-x="260" 
d="M87 0h-21v500h128v-500q-26 -23 -34 -33.5t-11 -27.5q0 -22 27 -22q1 0 19 2l15 -65q-13 -4 -48 -4q-49 0 -79.5 20t-30.5 56q0 42 35 74zM199 566h-138v124h138v-124z" />
    <glyph glyph-name="Idot" unicode="&#x130;" horiz-adv-x="296" 
d="M219 759h-141v110h141v-110zM78 690h140v-690h-140v690z" />
    <glyph glyph-name="dotlessi" unicode="&#x131;" horiz-adv-x="260" 
d="M194 0h-128v500h128v-500z" />
    <glyph glyph-name="Jcircumflex" unicode="&#x134;" horiz-adv-x="512" 
d="M-9 94l116 65q35 -50 94 -50q55 0 79 36t24 120v425h140v-425q0 -140 -58.5 -207t-175.5 -67q-147 0 -219 103zM187 737l138 142h105l138 -142h-133l-58 61l-57 -61h-133z" />
    <glyph glyph-name="jcircumflex" unicode="&#x135;" horiz-adv-x="251" 
d="M67 500h127v-527q0 -93 -45 -128q-47 -35 -149 -35v110q37 0 52 16.5t15 54.5v509zM-34 568l108 142h106l108 -142h-114l-47 65l-47 -65h-114z" />
    <glyph glyph-name="uni0136" unicode="&#x136;" horiz-adv-x="645" 
d="M381 411l252 -411h-167l-176 291l-82 -108v-183h-140v690h140v-298l218 298h166zM256 -51h137v-129l-137 -117v246z" />
    <glyph glyph-name="uni0137" unicode="&#x137;" horiz-adv-x="502" 
d="M179 318l140 182h152l-173 -209l202 -291h-150l-137 188l-34 -42v-146h-128v690h128v-372zM192 -51h137v-129l-137 -117v246z" />
    <glyph glyph-name="Lacute" unicode="&#x139;" horiz-adv-x="504" 
d="M208 742h-124l80 129h147zM68 690h140v-572h290v-118h-430v690z" />
    <glyph glyph-name="lacute" unicode="&#x13a;" horiz-adv-x="285" 
d="M51 160v530h128v-501q0 -43 15.5 -61t54.5 -18v-110q-108 0 -153 35.5t-45 124.5zM176 723h-122l70 158h143z" />
    <glyph glyph-name="uni013B" unicode="&#x13b;" horiz-adv-x="504" 
d="M68 690h140v-572h290v-118h-430v690zM215 -51h137v-129l-137 -117v246z" />
    <glyph glyph-name="uni013C" unicode="&#x13c;" horiz-adv-x="285" 
d="M51 160v530h128v-501q0 -43 15.5 -61t54.5 -18v-110q-108 0 -153 35.5t-45 124.5zM86 -51h137v-129l-137 -117v246z" />
    <glyph glyph-name="Lcaron" unicode="&#x13d;" horiz-adv-x="504" 
d="M307 706h134v-165l-134 -114v279zM68 690h140v-572h290v-118h-430v690z" />
    <glyph glyph-name="lcaron" unicode="&#x13e;" horiz-adv-x="281" 
d="M51 160v530h128v-501q0 -43 15.5 -61t54.5 -18v-110q-108 0 -153 35.5t-45 124.5zM222 689h137v-129l-137 -117v246z" />
    <glyph glyph-name="Ldot" unicode="&#x13f;" horiz-adv-x="504" 
d="M68 690h140v-572h290v-118h-430v690zM459 326h-138v124h138v-124z" />
    <glyph glyph-name="ldot" unicode="&#x140;" horiz-adv-x="367" 
d="M51 160v530h128v-501q0 -43 15.5 -61t54.5 -18v-110q-108 0 -153 35.5t-45 124.5zM365 353h-141v110h141v-110z" />
    <glyph glyph-name="Lslash" unicode="&#x141;" horiz-adv-x="538" 
d="M101 690h140v-192l94 75l71 -90l-165 -132v-233h290v-118h-430v239l-57 -45l-71 90l128 102v304z" />
    <glyph glyph-name="lslash" unicode="&#x142;" horiz-adv-x="294" 
d="M81 271l-51 -35l-40 60l91 62v332h128v-243l54 37l40 -59l-94 -65v-171q0 -43 15.5 -61t54.5 -18v-110q-108 0 -153 35.5t-45 124.5v111z" />
    <glyph glyph-name="Nacute" unicode="&#x143;" horiz-adv-x="656" 
d="M386 742h-124l80 129h147zM454 257v433h133v-690h-117l-269 427v-427h-133v690h116z" />
    <glyph glyph-name="nacute" unicode="&#x144;" horiz-adv-x="526" 
d="M179 0h-128v500h125v-42q39 51 115 51q183 0 183 -196v-313h-127v293q0 56 -19 81t-61 25q-88 0 -88 -105v-294zM313 567h-122l70 158h143z" />
    <glyph glyph-name="uni0145" unicode="&#x145;" horiz-adv-x="656" 
d="M454 257v433h133v-690h-117l-269 427v-427h-133v690h116zM264 -51h137v-129l-137 -117v246z" />
    <glyph glyph-name="uni0146" unicode="&#x146;" horiz-adv-x="526" 
d="M179 0h-128v500h125v-42q39 51 115 51q183 0 183 -196v-313h-127v293q0 56 -19 81t-61 25q-88 0 -88 -105v-294zM197 -51h137v-129l-137 -117v246z" />
    <glyph glyph-name="Ncaron" unicode="&#x147;" horiz-adv-x="656" 
d="M518 879l-138 -142h-105l-138 142h133l57 -61l58 61h133zM454 257v433h133v-690h-117l-269 427v-427h-133v690h116z" />
    <glyph glyph-name="ncaron" unicode="&#x148;" horiz-adv-x="526" 
d="M179 0h-128v500h125v-42q39 51 115 51q183 0 183 -196v-313h-127v293q0 56 -19 81t-61 25q-88 0 -88 -105v-294zM424 710l-108 -142h-106l-108 142h114l47 -65l47 65h114z" />
    <glyph glyph-name="Omacron" unicode="&#x14c;" horiz-adv-x="623" 
d="M576 394v-98q0 -149 -69 -227t-196 -78q-126 0 -195 78t-69 227v98q0 149 68.5 227t195.5 78t196 -78t69 -227zM187 394v-98q0 -187 124 -187q125 0 125 187v98q0 187 -125 187q-124 0 -124 -187zM473 744h-322v112h322v-112z" />
    <glyph glyph-name="omacron" unicode="&#x14d;" horiz-adv-x="499" 
d="M465 281v-60q0 -110 -55 -170t-161 -60q-104 0 -160 60t-56 170v60q0 111 55.5 169.5t160.5 58.5t160.5 -58t55.5 -170zM249 99q89 0 89 126v52q0 124 -89 124t-89 -124v-52q0 -64 21 -95t68 -31zM391 573h-283v111h283v-111z" />
    <glyph glyph-name="Ohungarumlaut" unicode="&#x150;" horiz-adv-x="623" 
d="M576 394v-98q0 -149 -69 -227t-196 -78q-126 0 -195 78t-69 227v98q0 149 68.5 227t195.5 78t196 -78t69 -227zM187 394v-98q0 -187 124 -187q125 0 125 187v98q0 187 -125 187q-124 0 -124 -187zM255 742h-125l80 129h148zM458 742h-124l90 129h147z" />
    <glyph glyph-name="ohungarumlaut" unicode="&#x151;" horiz-adv-x="499" 
d="M465 281v-60q0 -110 -55 -170t-161 -60q-104 0 -160 60t-56 170v60q0 111 55.5 169.5t160.5 58.5t160.5 -58t55.5 -170zM249 99q89 0 89 126v52q0 124 -89 124t-89 -124v-52q0 -64 21 -95t68 -31zM211 567h-122l70 158h143zM386 567h-123l90 158h144z" />
    <glyph glyph-name="OE" unicode="&#x152;" horiz-adv-x="896" 
d="M436 690h430v-119h-290v-155h260v-118h-260v-180h290v-118h-430v24q-48 -33 -125 -33q-126 0 -195 78t-69 227v98q0 149 68.5 227t195.5 78q77 0 125 -33v24zM187 394v-98q0 -187 124 -187q125 0 125 177v118q0 177 -125 177q-124 0 -124 -187z" />
    <glyph glyph-name="oe" unicode="&#x153;" horiz-adv-x="791" 
d="M648 142l95 -66q-27 -45 -70 -65t-115 -20q-98 0 -153 67q-51 -67 -156 -67q-102 0 -159 60t-57 166v68q0 107 56 165.5t160 58.5q102 0 153 -63q51 63 148 63q98 0 149 -59.5t51 -170.5v-63h-285q0 -117 94 -117q35 0 54 9.5t35 33.5zM338 217v68q0 116 -89 116
t-89 -116v-68q0 -118 89 -118t89 118zM544 401q-72 0 -79 -94h157q-4 94 -78 94z" />
    <glyph glyph-name="Racute" unicode="&#x154;" horiz-adv-x="617" 
d="M455 294l143 -294h-154l-124 271h-112v-271h-140v690h247q123 0 190.5 -54.5t67.5 -156.5q0 -136 -118 -185zM208 571v-182h94q70 0 100.5 20t30.5 70t-31 71t-100 21h-94zM332 742h-124l80 129h147z" />
    <glyph glyph-name="racute" unicode="&#x155;" horiz-adv-x="410" 
d="M420 431l-98 -70q-25 37 -59.5 39.5t-59 -27.5t-24.5 -79v-294h-128v500h125v-42q34 51 109 51q90 0 135 -78zM258 567h-122l70 158h143z" />
    <glyph glyph-name="uni0156" unicode="&#x156;" horiz-adv-x="617" 
d="M455 294l143 -294h-154l-124 271h-112v-271h-140v690h247q123 0 190.5 -54.5t67.5 -156.5q0 -136 -118 -185zM208 571v-182h94q70 0 100.5 20t30.5 70t-31 71t-100 21h-94zM252 -51h137v-129l-137 -117v246z" />
    <glyph glyph-name="uni0157" unicode="&#x157;" horiz-adv-x="410" 
d="M420 431l-98 -70q-25 37 -59.5 39.5t-59 -27.5t-24.5 -79v-294h-128v500h125v-42q34 51 109 51q90 0 135 -78zM48 -51h137v-129l-137 -117v246z" />
    <glyph glyph-name="Rcaron" unicode="&#x158;" horiz-adv-x="617" 
d="M455 294l143 -294h-154l-124 271h-112v-271h-140v690h247q123 0 190.5 -54.5t67.5 -156.5q0 -136 -118 -185zM208 571v-182h94q70 0 100.5 20t30.5 70t-31 71t-100 21h-94zM493 879l-138 -142h-105l-138 142h133l57 -61l58 61h133z" />
    <glyph glyph-name="rcaron" unicode="&#x159;" horiz-adv-x="410" 
d="M420 431l-98 -70q-25 37 -59.5 39.5t-59 -27.5t-24.5 -79v-294h-128v500h125v-42q34 51 109 51q90 0 135 -78zM393 710l-108 -142h-106l-108 142h114l47 -65l47 65h114z" />
    <glyph glyph-name="Sacute" unicode="&#x15a;" horiz-adv-x="575" 
d="M532 586l-105 -75q-24 37 -55 53.5t-81 16.5q-47 0 -72 -20t-25 -56q0 -38 30.5 -60.5t105.5 -40.5q109 -28 160 -76q49 -46 49 -136q0 -93 -62.5 -147t-175.5 -54q-180 0 -266 113l107 74q30 -37 64.5 -53t85.5 -16q107 0 107 77q0 38 -30 60q-33 23 -111 44
q-105 27 -154.5 79t-49.5 136q0 91 61.5 142.5t174.5 51.5q168 0 242 -113zM339 742h-124l80 129h147z" />
    <glyph glyph-name="sacute" unicode="&#x15b;" horiz-adv-x="464" 
d="M419 426l-94 -67q-19 22 -40.5 31t-57.5 9q-63 0 -63 -39q0 -21 18.5 -32t61.5 -17q96 -15 140.5 -54.5t44.5 -110.5q0 -73 -51.5 -114t-144.5 -41q-147 0 -207 83l98 70q31 -43 107 -43q71 0 71 41q0 22 -17 33q-18 9 -68 18q-180 29 -180 162q0 73 50.5 113.5
t142.5 40.5q138 0 189 -83zM276 567h-122l70 158h143z" />
    <glyph glyph-name="Scircumflex" unicode="&#x15c;" horiz-adv-x="575" 
d="M532 586l-105 -75q-24 37 -55 53.5t-81 16.5q-47 0 -72 -20t-25 -56q0 -38 30.5 -60.5t105.5 -40.5q109 -28 160 -76q49 -46 49 -136q0 -93 -62.5 -147t-175.5 -54q-180 0 -266 113l107 74q30 -37 64.5 -53t85.5 -16q107 0 107 77q0 38 -30 60q-33 23 -111 44
q-105 27 -154.5 79t-49.5 136q0 91 61.5 142.5t174.5 51.5q168 0 242 -113zM104 737l138 142h105l138 -142h-133l-58 61l-57 -61h-133z" />
    <glyph glyph-name="scircumflex" unicode="&#x15d;" horiz-adv-x="464" 
d="M419 426l-94 -67q-19 22 -40.5 31t-57.5 9q-63 0 -63 -39q0 -21 18.5 -32t61.5 -17q96 -15 140.5 -54.5t44.5 -110.5q0 -73 -51.5 -114t-144.5 -41q-147 0 -207 83l98 70q31 -43 107 -43q71 0 71 41q0 22 -17 33q-18 9 -68 18q-180 29 -180 162q0 73 50.5 113.5
t142.5 40.5q138 0 189 -83zM68 568l108 142h106l108 -142h-114l-47 65l-47 -65h-114z" />
    <glyph glyph-name="Scedilla" unicode="&#x15e;" horiz-adv-x="575" 
d="M241 -72l13 65q-144 12 -219 111l107 74q30 -37 64.5 -53t85.5 -16q107 0 107 77q0 38 -30 60q-33 23 -111 44q-105 27 -154.5 79t-49.5 136q0 91 61.5 142.5t174.5 51.5q168 0 242 -113l-105 -75q-24 37 -55 53.5t-81 16.5q-47 0 -72 -20t-25 -56q0 -38 30.5 -60.5
t105.5 -40.5q109 -28 160 -76q49 -46 49 -136q0 -85 -53.5 -138t-151.5 -61l-4 -15q53 -20 53 -72q0 -39 -32.5 -62.5t-86.5 -23.5q-33 0 -46 4l15 65q5 0 9.5 -0.5t6.5 -1t3 -0.5q33 0 33 21q0 20 -44 20z" />
    <glyph glyph-name="scedilla" unicode="&#x15f;" horiz-adv-x="464" 
d="M182 -72l13 64q-117 9 -169 82l98 70q31 -43 107 -43q71 0 71 41q0 22 -17 33q-18 9 -68 18q-180 29 -180 162q0 73 50.5 113.5t142.5 40.5q138 0 189 -83l-94 -67q-19 22 -40.5 31t-57.5 9q-63 0 -63 -39q0 -21 18.5 -32t61.5 -17q96 -15 140.5 -54.5t44.5 -110.5
q0 -66 -39.5 -105.5t-114.5 -47.5l-4 -15q52 -19 52 -72q0 -40 -32 -63t-86 -23q-33 0 -46 4l15 65q5 0 9.5 -0.5t6.5 -1t3 -0.5q33 0 33 21q0 20 -44 20z" />
    <glyph glyph-name="Scaron" unicode="&#x160;" horiz-adv-x="575" 
d="M532 586l-105 -75q-24 37 -55 53.5t-81 16.5q-47 0 -72 -20t-25 -56q0 -38 30.5 -60.5t105.5 -40.5q109 -28 160 -76q49 -46 49 -136q0 -93 -62.5 -147t-175.5 -54q-180 0 -266 113l107 74q30 -37 64.5 -53t85.5 -16q107 0 107 77q0 38 -30 60q-33 23 -111 44
q-105 27 -154.5 79t-49.5 136q0 91 61.5 142.5t174.5 51.5q168 0 242 -113zM478 879l-138 -142h-105l-138 142h133l57 -61l58 61h133z" />
    <glyph glyph-name="scaron" unicode="&#x161;" horiz-adv-x="464" 
d="M419 426l-94 -67q-19 22 -40.5 31t-57.5 9q-63 0 -63 -39q0 -21 18.5 -32t61.5 -17q96 -15 140.5 -54.5t44.5 -110.5q0 -73 -51.5 -114t-144.5 -41q-147 0 -207 83l98 70q31 -43 107 -43q71 0 71 41q0 22 -17 33q-18 9 -68 18q-180 29 -180 162q0 73 50.5 113.5
t142.5 40.5q138 0 189 -83zM390 710l-108 -142h-106l-108 142h114l47 -65l47 65h114z" />
    <glyph glyph-name="uni0162" unicode="&#x162;" horiz-adv-x="536" 
d="M211 -72l15 72h-28v571h-190v119h520v-119h-190v-571h-32l-6 -22q53 -20 53 -72q0 -39 -32.5 -62.5t-86.5 -23.5q-33 0 -46 4l15 65q5 0 9.5 -0.5t6.5 -1t3 -0.5q33 0 33 21q0 20 -44 20z" />
    <glyph glyph-name="uni0163" unicode="&#x163;" horiz-adv-x="331" 
d="M156 -72l16 79q-50 11 -72 47t-22 109v229h-64v108h64v110h127v-110h98v-108h-98v-209q0 -40 12 -55.5t45 -15.5h41v-112h-52l-6 -22q52 -19 52 -72q0 -40 -32 -63t-86 -23q-33 0 -46 4l15 65q5 0 9.5 -0.5t6.5 -1t3 -0.5q33 0 33 21q0 20 -44 20z" />
    <glyph glyph-name="Tcaron" unicode="&#x164;" horiz-adv-x="536" 
d="M459 879l-138 -142h-105l-138 142h133l57 -61l58 61h133zM8 571v119h520v-119h-190v-571h-140v571h-190z" />
    <glyph glyph-name="tcaron" unicode="&#x165;" horiz-adv-x="367" 
d="M78 392h-64v108h64v110h127v-110h98v-108h-98v-209q0 -40 12 -55.5t45 -15.5h41v-112h-54q-96 0 -133 34q-38 35 -38 129v229zM322 689h137v-129l-137 -117v246z" />
    <glyph glyph-name="Umacron" unicode="&#x16a;" horiz-adv-x="666" 
d="M458 279v411h140v-410q0 -141 -69.5 -215t-195.5 -74t-195.5 73.5t-69.5 214.5v411h140v-411q0 -88 30 -129t95 -41t95 41t30 129zM494 744h-322v112h322v-112z" />
    <glyph glyph-name="umacron" unicode="&#x16b;" horiz-adv-x="526" 
d="M347 500h127v-500h-125v42q-18 -28 -43.5 -39.5t-70.5 -11.5q-184 0 -184 197v312h128v-293q0 -56 19.5 -81t61.5 -25q87 0 87 105v294zM405 573h-283v111h283v-111z" />
    <glyph glyph-name="Ubreve" unicode="&#x16c;" horiz-adv-x="666" 
d="M458 279v411h140v-410q0 -141 -69.5 -215t-195.5 -74t-195.5 73.5t-69.5 214.5v411h140v-411q0 -88 30 -129t95 -41t95 41t30 129zM413 879h112q0 -42 -21 -75t-55 -50.5t-74.5 -25.5t-81 0t-74.5 25.5t-55 50.5t-21 75h111q11 -54 80 -54q68 0 79 54z" />
    <glyph glyph-name="ubreve" unicode="&#x16d;" horiz-adv-x="526" 
d="M347 500h127v-500h-125v42q-18 -28 -43.5 -39.5t-70.5 -11.5q-184 0 -184 197v312h128v-293q0 -56 19.5 -81t61.5 -25q87 0 87 105v294zM320 690h92q-2 -51 -32.5 -86t-74 -43t-86.5 0t-73.5 43t-32.5 86h93q8 -53 57 -53t57 53z" />
    <glyph glyph-name="Uring" unicode="&#x16e;" horiz-adv-x="666" 
d="M458 279v411h140v-410q0 -141 -69.5 -215t-195.5 -74t-195.5 73.5t-69.5 214.5v411h140v-411q0 -88 30 -129t95 -41t95 41t30 129zM218 800q0 45 32 72t83 27q52 0 84.5 -27t32.5 -72q0 -44 -32.5 -71t-84.5 -27q-51 0 -83 27t-32 71zM333 769q37 0 37 31t-37 31
q-36 0 -36 -31t36 -31z" />
    <glyph glyph-name="uring" unicode="&#x16f;" horiz-adv-x="526" 
d="M347 500h127v-500h-125v42q-18 -28 -43.5 -39.5t-70.5 -11.5q-184 0 -184 197v312h128v-293q0 -56 19.5 -81t61.5 -25q87 0 87 105v294zM174 567q-34 31 -34 79t34.5 79t88.5 31q55 0 89 -31t34 -79t-34 -79q-34 -30 -89 -30t-89 30zM226 646q0 -20 10 -32t27 -12
q37 0 37 44q0 43 -37 43t-37 -43z" />
    <glyph glyph-name="Uhungarumlaut" unicode="&#x170;" horiz-adv-x="666" 
d="M458 279v411h140v-410q0 -141 -69.5 -215t-195.5 -74t-195.5 73.5t-69.5 214.5v411h140v-411q0 -88 30 -129t95 -41t95 41t30 129zM284 742h-125l80 129h148zM487 742h-124l90 129h147z" />
    <glyph glyph-name="uhungarumlaut" unicode="&#x171;" horiz-adv-x="526" 
d="M347 500h127v-500h-125v42q-18 -28 -43.5 -39.5t-70.5 -11.5q-184 0 -184 197v312h128v-293q0 -56 19.5 -81t61.5 -25q87 0 87 105v294zM232 567h-122l70 158h143zM407 567h-123l90 158h144z" />
    <glyph glyph-name="Uogonek" unicode="&#x172;" horiz-adv-x="666" 
d="M458 279v411h140v-410q0 -124 -54 -196.5t-153 -87.5q-26 -24 -32 -33q-8 -11 -8 -24q0 -22 27 -22q1 0 19 2l15 -65q-13 -4 -48 -4q-49 0 -79.5 20t-30.5 56t29 68q-103 13 -159 86t-56 199v411h140v-411q0 -88 30 -129t95 -41t95 41t30 129z" />
    <glyph glyph-name="uogonek" unicode="&#x173;" horiz-adv-x="526" 
d="M347 500h127v-497l1 -3q-26 -23 -34 -33.5t-11 -27.5q0 -22 27 -22q1 0 19 2l15 -65q-13 -4 -48 -4q-49 0 -79.5 20t-30.5 56q0 42 35 74h-19v42q-18 -28 -43.5 -39.5t-70.5 -11.5q-184 0 -184 197v312h128v-293q0 -56 19.5 -81t61.5 -25q87 0 87 105v294z" />
    <glyph glyph-name="Ydieresis" unicode="&#x178;" horiz-adv-x="583" 
d="M252 752h-124v117h124v-117zM455 752h-124v117h124v-117zM221 282l-215 408h162l123 -257l124 257h161l-215 -408v-282h-140v282z" />
    <glyph glyph-name="Zacute" unicode="&#x179;" horiz-adv-x="519" 
d="M312 742h-124l80 129h147zM30 571v119h456v-92l-278 -480h288v-118h-466v92l280 479h-280z" />
    <glyph glyph-name="zacute" unicode="&#x17a;" horiz-adv-x="449" 
d="M285 567h-122l70 158h143zM30 0v89l220 303h-217v108h382v-89l-217 -303h224v-108h-392z" />
    <glyph glyph-name="Zdotaccent" unicode="&#x17b;" horiz-adv-x="519" 
d="M336 759h-141v110h141v-110zM30 571v119h456v-92l-278 -480h288v-118h-466v92l280 479h-280z" />
    <glyph glyph-name="zdotaccent" unicode="&#x17c;" horiz-adv-x="449" 
d="M301 566h-138v124h138v-124zM30 0v89l220 303h-217v108h382v-89l-217 -303h224v-108h-392z" />
    <glyph glyph-name="Zcaron" unicode="&#x17d;" horiz-adv-x="519" 
d="M456 879l-138 -142h-105l-138 142h133l57 -61l58 61h133zM30 571v119h456v-92l-278 -480h288v-118h-466v92l280 479h-280z" />
    <glyph glyph-name="zcaron" unicode="&#x17e;" horiz-adv-x="449" 
d="M396 710l-108 -142h-106l-108 142h114l47 -65l47 65h114zM30 0v89l220 303h-217v108h382v-89l-217 -303h224v-108h-392z" />
    <glyph glyph-name="uni018F" unicode="&#x18f;" horiz-adv-x="602" 
d="M47 296v73h378v25q0 187 -124 187q-99 0 -118 -105h-134q15 108 79.5 165.5t172.5 57.5q128 0 196 -79.5t68 -235.5v-88q0 -149 -69 -227t-195 -78q-124 0 -189 77t-65 228zM301 109q57 0 86 33.5t36 107.5h-242q5 -73 33.5 -107t86.5 -34z" />
    <glyph glyph-name="florin" unicode="&#x192;" horiz-adv-x="540" 
d="M121 381v119h64v27q0 90 41 126.5t139 36.5h37v-119h-21q-33 0 -46 -15t-13 -51v-5h80v-119h-80v-408q0 -89 -47.5 -126t-156.5 -37v119q37 0 52 16t15 54v382h-64z" />
    <glyph glyph-name="uni01DD" unicode="&#x1dd;" 
d="M143 358l-95 66q49 85 183 85q105 0 163.5 -61t58.5 -165v-68q0 -110 -53 -167t-153 -57q-206 0 -206 234v57h285q-2 119 -94 119q-35 0 -54 -9.5t-35 -33.5zM169 191q5 -92 77 -92t80 92h-157z" />
    <glyph glyph-name="uni0218" unicode="&#x218;" horiz-adv-x="575" 
d="M532 586l-105 -75q-24 37 -55 53.5t-81 16.5q-47 0 -72 -20t-25 -56q0 -38 30.5 -60.5t105.5 -40.5q109 -28 160 -76q49 -46 49 -136q0 -93 -62.5 -147t-175.5 -54q-180 0 -266 113l107 74q30 -37 64.5 -53t85.5 -16q107 0 107 77q0 38 -30 60q-33 23 -111 44
q-105 27 -154.5 79t-49.5 136q0 91 61.5 142.5t174.5 51.5q168 0 242 -113zM235 -51h137v-129l-137 -117v246z" />
    <glyph glyph-name="uni0219" unicode="&#x219;" horiz-adv-x="464" 
d="M419 426l-94 -67q-19 22 -40.5 31t-57.5 9q-63 0 -63 -39q0 -21 18.5 -32t61.5 -17q96 -15 140.5 -54.5t44.5 -110.5q0 -73 -51.5 -114t-144.5 -41q-147 0 -207 83l98 70q31 -43 107 -43q71 0 71 41q0 22 -17 33q-18 9 -68 18q-180 29 -180 162q0 73 50.5 113.5
t142.5 40.5q138 0 189 -83zM169 -51h137v-129l-137 -117v246z" />
    <glyph glyph-name="uni021A" unicode="&#x21a;" horiz-adv-x="536" 
d="M8 571v119h520v-119h-190v-571h-140v571h-190zM200 -51h137v-129l-137 -117v246z" />
    <glyph glyph-name="uni021B" unicode="&#x21b;" horiz-adv-x="331" 
d="M78 392h-64v108h64v110h127v-110h98v-108h-98v-209q0 -40 12 -55.5t45 -15.5h41v-112h-54q-96 0 -133 34q-38 35 -38 129v229zM127 -51h137v-129l-137 -117v246z" />
    <glyph glyph-name="uni0237" unicode="&#x237;" horiz-adv-x="251" 
d="M67 500h127v-527q0 -93 -45 -128q-47 -35 -149 -35v110q37 0 52 16.5t15 54.5v509z" />
    <glyph glyph-name="uni0259" unicode="&#x259;" 
d="M143 358l-95 66q49 85 183 85q105 0 163.5 -61t58.5 -165v-68q0 -110 -53 -167t-153 -57q-206 0 -206 234v57h285q-2 119 -94 119q-35 0 -54 -9.5t-35 -33.5zM169 191q5 -92 77 -92t80 92h-157z" />
    <glyph glyph-name="uni02BC" unicode="&#x2bc;" horiz-adv-x="185" 
d="M35 500h136v-146l-136 -117v263z" />
    <glyph glyph-name="circumflex" unicode="&#x2c6;" horiz-adv-x="414" 
d="M46 568l108 142h106l108 -142h-114l-47 65l-47 -65h-114z" />
    <glyph glyph-name="caron" unicode="&#x2c7;" horiz-adv-x="414" 
d="M368 710l-108 -142h-106l-108 142h114l47 -65l47 65h114z" />
    <glyph glyph-name="breve" unicode="&#x2d8;" horiz-adv-x="412" 
d="M263 690h92q-2 -51 -32.5 -86t-73.5 -43t-86.5 0t-74 43t-32.5 86h93q8 -53 57 -53t57 53z" />
    <glyph glyph-name="dotaccent" unicode="&#x2d9;" horiz-adv-x="329" 
d="M233 566h-138v124h138v-124z" />
    <glyph glyph-name="ring" unicode="&#x2da;" horiz-adv-x="386" 
d="M104 567q-34 31 -34 79t34.5 79t88.5 31q55 0 89 -31t34 -79t-34 -79q-34 -30 -89 -30t-89 30zM156 646q0 -20 10 -32t27 -12q37 0 37 44q0 43 -37 43t-37 -43z" />
    <glyph glyph-name="ogonek" unicode="&#x2db;" horiz-adv-x="343" 
d="M215 55l19 -55q-26 -23 -34 -33.5t-11 -27.5q0 -22 27 -22q1 0 19 2l15 -65q-13 -4 -48 -4q-49 0 -79.5 20t-30.5 56q0 38 29.5 68.5t93.5 60.5z" />
    <glyph glyph-name="tilde" unicode="&#x2dc;" horiz-adv-x="437" 
d="M279 569q-24 0 -64 14q-37 15 -53 15q-30 0 -53 -27l-67 64q48 61 117 61q25 0 62 -15q40 -14 55 -14q27 0 51 27l67 -64q-46 -61 -115 -61z" />
    <glyph glyph-name="hungarumlaut" unicode="&#x2dd;" horiz-adv-x="505" 
d="M170 567h-122l70 158h143zM345 567h-123l90 158h144z" />
    <glyph glyph-name="acutecomb" unicode="&#x301;" horiz-adv-x="0" 
d="M-192 567h-122l70 158h143z" />
    <glyph glyph-name="uni0394" unicode="&#x2206;" horiz-adv-x="590" 
d="M368 690l202 -690h-550l202 690h146zM195 118h199l-99 389z" />
    <glyph glyph-name="uni0394" unicode="&#x394;" horiz-adv-x="590" 
d="M368 690l202 -690h-550l202 690h146zM195 118h199l-99 389z" />
    <glyph glyph-name="uni03A9" unicode="&#x2126;" horiz-adv-x="629" 
d="M516 118h64v-118h-213v118q40 22 56.5 62t16.5 120v94q0 187 -125 187t-125 -187v-94q0 -81 16.5 -122t55.5 -60v-118h-212v118h64q-35 36 -49.5 76.5t-14.5 105.5v94q0 149 69 227t196 78t196 -78t69 -227v-94q0 -65 -14.5 -105.5t-49.5 -76.5z" />
    <glyph glyph-name="uni03A9" unicode="&#x3a9;" horiz-adv-x="629" 
d="M516 118h64v-118h-213v118q40 22 56.5 62t16.5 120v94q0 187 -125 187t-125 -187v-94q0 -81 16.5 -122t55.5 -60v-118h-212v118h64q-35 36 -49.5 76.5t-14.5 105.5v94q0 149 69 227t196 78t196 -78t69 -227v-94q0 -65 -14.5 -105.5t-49.5 -76.5z" />
    <glyph glyph-name="pi" unicode="&#x3c0;" horiz-adv-x="565" 
d="M340 160v232h-158v-392h-121v392h-74v108h550v-108h-70v-203q0 -43 15.5 -61t54.5 -18v-110q-107 0 -152 35t-45 125z" />
    <glyph glyph-name="uni0401" unicode="&#x401;" horiz-adv-x="527" 
d="M243 752h-124v117h124v-117zM446 752h-124v117h124v-117zM68 0v690h430v-119h-290v-155h260v-118h-260v-180h290v-118h-430z" />
    <glyph glyph-name="uni0402" unicode="&#x402;" horiz-adv-x="727" 
d="M-2 571v119h520v-119h-190v-186q21 20 62 33.5t85 13.5q111 0 163 -52.5t52 -161.5v-61q0 -104 -67 -134q-54 -23 -131 -23h-23v112h23q32 0 45 15.5t13 49.5v32q0 56 -25.5 80t-82.5 24q-74 0 -114 -54v-259h-140v571h-190z" />
    <glyph glyph-name="uni0403" unicode="&#x403;" horiz-adv-x="491" 
d="M328 742h-124l80 129h147zM68 690h423v-119h-283v-571h-140v690z" />
    <glyph glyph-name="uni0404" unicode="&#x404;" horiz-adv-x="585" 
d="M560 476h-134q-20 105 -118 105q-122 0 -125 -175h208v-118h-208q3 -179 125 -179q50 0 78.5 25.5t39.5 79.5h134q-34 -223 -252 -223q-127 0 -196 78t-69 227v98q0 149 69 227t196 78q106 0 170.5 -56.5t81.5 -166.5z" />
    <glyph glyph-name="uni0405" unicode="&#x405;" horiz-adv-x="575" 
d="M532 586l-105 -75q-24 37 -55 53.5t-81 16.5q-47 0 -72 -20t-25 -56q0 -38 30.5 -60.5t105.5 -40.5q109 -28 160 -76q49 -46 49 -136q0 -93 -62.5 -147t-175.5 -54q-180 0 -266 113l107 74q30 -37 64.5 -53t85.5 -16q107 0 107 77q0 38 -30 60q-33 23 -111 44
q-105 27 -154.5 79t-49.5 136q0 91 61.5 142.5t174.5 51.5q168 0 242 -113z" />
    <glyph glyph-name="uni0406" unicode="&#x406;" horiz-adv-x="296" 
d="M219 759h-141v110h141v-110zM78 690h140v-690h-140v690z" />
    <glyph glyph-name="uni0407" unicode="&#x407;" horiz-adv-x="296" 
d="M109 752h-124v117h124v-117zM312 752h-124v117h124v-117zM78 690h140v-690h-140v690z" />
    <glyph glyph-name="uni0408" unicode="&#x408;" horiz-adv-x="512" 
d="M-9 94l116 65q35 -50 94 -50q55 0 79 36t24 120v425h140v-425q0 -140 -58.5 -207t-175.5 -67q-147 0 -219 103z" />
    <glyph glyph-name="uni0409" unicode="&#x409;" horiz-adv-x="977" 
d="M124 495v195h462v-253h106q126 0 192 -57.5t66 -161.5q0 -102 -66.5 -160t-191.5 -58h-246v571h-182v-76q0 -157 -8 -242q-7 -76 -26 -124q-45 -119 -217 -138v146q70 13 90 64q21 54 21 294zM685 319h-99v-201h99q125 0 125 100q0 101 -125 101z" />
    <glyph glyph-name="uni040A" unicode="&#x40a;" horiz-adv-x="979" 
d="M68 690h140v-274h239v274h140v-253h107q126 0 192 -57.5t66 -161.5q0 -102 -66.5 -160t-191.5 -58h-247v298h-239v-298h-140v690zM686 319h-99v-201h99q126 0 126 100q0 101 -126 101z" />
    <glyph glyph-name="uni040B" unicode="&#x40b;" horiz-adv-x="737" 
d="M8 571v119h520v-119h-190v-186q21 20 62.5 33.5t84.5 13.5q111 0 163 -52.5t52 -161.5v-218h-140v209q0 56 -25.5 80t-82.5 24q-74 0 -114 -54v-259h-140v571h-190z" />
    <glyph glyph-name="uni040C" unicode="&#x40c;" horiz-adv-x="623" 
d="M356 742h-124l80 129h147zM390 356l220 -356h-166l-177 288h-59v-288h-140v690h140v-284h56l158 284h154z" />
    <glyph glyph-name="uni040E" unicode="&#x40e;" horiz-adv-x="579" 
d="M311 346l124 344h144l-212 -550q-34 -87 -88 -118q-52 -31 -161 -31v122q57 0 83.5 10.5t42.5 40.5l-236 526h155zM359 879h128q0 -151 -190 -151q-191 0 -191 151h129q0 -41 31 -57.5t62 0t31 57.5z" />
    <glyph glyph-name="uni040F" unicode="&#x40f;" horiz-adv-x="638" 
d="M396 0v-130h-126v130h-202v690h140v-572h250v572h140v-690h-202z" />
    <glyph glyph-name="uni0410" unicode="&#x410;" horiz-adv-x="607" 
d="M188 131l-42 -131h-150l240 690h134l240 -690h-149l-42 131h-231zM381 249l-78 243l-78 -243h156z" />
    <glyph glyph-name="uni0411" unicode="&#x411;" horiz-adv-x="596" 
d="M68 690h454v-119h-314v-134h107q124 0 191 -58.5t67 -159.5q0 -102 -67 -160.5t-191 -58.5h-247v690zM307 319h-99v-201h99q126 0 126 101q0 100 -126 100z" />
    <glyph glyph-name="uni0412" unicode="&#x412;" horiz-adv-x="606" 
d="M68 0v690h231q252 0 252 -181q0 -102 -91 -147q113 -41 113 -164q0 -93 -64.5 -145.5t-187.5 -52.5h-253zM296 299h-88v-181h101q124 0 124 91q0 48 -32.5 69t-104.5 21zM286 572h-78v-155h93q110 0 110 79q0 40 -28 58t-97 18z" />
    <glyph glyph-name="uni0413" unicode="&#x413;" horiz-adv-x="491" 
d="M68 690h423v-119h-283v-571h-140v690z" />
    <glyph glyph-name="uni0414" unicode="&#x414;" horiz-adv-x="697" 
d="M136 0v-130h-126v248h44q26 28 45 84q31 97 31 303v185h461v-572h86v-248h-126v130h-415zM228 156q-3 -10 -19 -38h242v453h-181v-66q0 -145 -10 -212q-10 -78 -32 -137z" />
    <glyph glyph-name="uni0415" unicode="&#x415;" horiz-adv-x="527" 
d="M68 0v690h430v-119h-290v-155h260v-118h-260v-180h290v-118h-430z" />
    <glyph glyph-name="uni0416" unicode="&#x416;" horiz-adv-x="908" 
d="M329 288l-169 -288h-157l206 348l-172 342h148l140 -284h59v284h140v-284h58l141 284h148l-172 -342l206 -348h-157l-169 288h-55v-288h-140v288h-55z" />
    <glyph glyph-name="uni0417" unicode="&#x417;" horiz-adv-x="592" 
d="M285 299h-73v118h75q110 0 110 84q0 81 -103 81q-49 0 -78 -20t-45 -64h-123q9 90 80 146q70 55 171 55t169 -48q69 -48 69 -137q0 -98 -90 -151q112 -46 112 -165q0 -96 -69.5 -151.5t-191.5 -55.5q-232 0 -271 209h134q19 -48 49.5 -69.5t82.5 -21.5q126 0 126 95
t-134 95z" />
    <glyph glyph-name="uni0418" unicode="&#x418;" horiz-adv-x="676" 
d="M68 0v690h140v-433l288 433h112v-690h-140v428l-285 -428h-115z" />
    <glyph glyph-name="uni0419" unicode="&#x419;" horiz-adv-x="676" 
d="M408 879h128q0 -151 -190 -151q-191 0 -191 151h129q0 -41 31 -57.5t62 0t31 57.5zM68 0v690h140v-433l288 433h112v-690h-140v428l-285 -428h-115z" />
    <glyph glyph-name="uni041A" unicode="&#x41a;" horiz-adv-x="623" 
d="M390 356l220 -356h-166l-177 288h-59v-288h-140v690h140v-284h56l158 284h154z" />
    <glyph glyph-name="uni041B" unicode="&#x41b;" horiz-adv-x="654" 
d="M124 495v195h462v-690h-140v571h-182v-76q0 -157 -8 -242q-7 -76 -26 -124q-45 -119 -217 -138v146q70 13 90 64q21 54 21 294z" />
    <glyph glyph-name="uni041C" unicode="&#x41c;" horiz-adv-x="786" 
d="M68 690h131l194 -376l192 376h133v-690h-134v428l-150 -304h-85l-148 301v-425h-133v690z" />
    <glyph glyph-name="uni041D" unicode="&#x41d;" horiz-adv-x="656" 
d="M68 690h140v-274h239v274h140v-690h-140v298h-239v-298h-140v690z" />
    <glyph glyph-name="uni041E" unicode="&#x41e;" horiz-adv-x="623" 
d="M576 394v-98q0 -149 -69 -227t-196 -78q-126 0 -195 78t-69 227v98q0 149 68.5 227t195.5 78t196 -78t69 -227zM187 394v-98q0 -187 124 -187q125 0 125 187v98q0 187 -125 187q-124 0 -124 -187z" />
    <glyph glyph-name="uni041F" unicode="&#x41f;" horiz-adv-x="666" 
d="M68 0v690h530v-690h-140v571h-250v-571h-140z" />
    <glyph glyph-name="uni0420" unicode="&#x420;" horiz-adv-x="590" 
d="M315 243h-107v-243h-140v690h247q124 0 191 -57t67 -164t-68.5 -166.5t-189.5 -59.5zM208 571v-210h87q72 0 105 26t33 82q0 102 -138 102h-87z" />
    <glyph glyph-name="uni0421" unicode="&#x421;" horiz-adv-x="594" 
d="M564 476h-134q-21 105 -119 105q-124 0 -124 -187v-98q0 -187 124 -187q51 0 79 25t40 80h133q-33 -223 -252 -223q-126 0 -195 78t-69 227v98q0 149 68.5 227t195.5 78q106 0 171 -56.5t82 -166.5z" />
    <glyph glyph-name="uni0422" unicode="&#x422;" horiz-adv-x="536" 
d="M8 571v119h520v-119h-190v-571h-140v571h-190z" />
    <glyph glyph-name="uni0423" unicode="&#x423;" horiz-adv-x="579" 
d="M311 346l124 344h144l-212 -550q-34 -87 -88 -118q-52 -31 -161 -31v122q57 0 83.5 10.5t42.5 40.5l-236 526h155z" />
    <glyph glyph-name="uni0424" unicode="&#x424;" horiz-adv-x="786" 
d="M323 640v50h140v-50q280 0 280 -279v-32q0 -279 -280 -279v-50h-140v50q-280 0 -280 279v32q0 279 280 279zM463 522v-354q75 0 107.5 36.5t32.5 124.5v32q0 88 -32.5 124.5t-107.5 36.5zM323 168v354q-75 0 -107.5 -36.5t-32.5 -124.5v-32q0 -88 32.5 -124.5
t107.5 -36.5z" />
    <glyph glyph-name="uni0425" unicode="&#x425;" horiz-adv-x="592" 
d="M296 235l-131 -235h-152l194 356l-173 334h152l110 -220l111 220h151l-174 -334l195 -356h-151z" />
    <glyph glyph-name="uni0426" unicode="&#x426;" horiz-adv-x="714" 
d="M68 690h140v-572h250v572h140v-572h100v-248h-127v130h-503v690z" />
    <glyph glyph-name="uni0427" unicode="&#x427;" horiz-adv-x="598" 
d="M21 690h140v-203q0 -71 27 -101t92 -30q85 0 110 43v291h140v-690h-140v270q-47 -32 -136 -32q-128 0 -180 58q-53 59 -53 191v203z" />
    <glyph glyph-name="uni0428" unicode="&#x428;" horiz-adv-x="934" 
d="M68 690h140v-572h189v572h140v-572h189v572h140v-690h-798v690z" />
    <glyph glyph-name="uni0429" unicode="&#x429;" horiz-adv-x="982" 
d="M68 690h140v-572h189v572h140v-572h189v572h140v-572h100v-248h-127v130h-771v690z" />
    <glyph glyph-name="uni042A" unicode="&#x42a;" horiz-adv-x="657" 
d="M-27 571v119h293v-253h107q124 0 191 -58.5t67 -160.5q0 -101 -67 -159.5t-191 -58.5h-247v571h-153zM365 319h-99v-201h99q126 0 126 100q0 101 -126 101z" />
    <glyph glyph-name="uni042B" unicode="&#x42b;" horiz-adv-x="816" 
d="M68 0v690h140v-253h97q126 0 192 -57.5t66 -161.5q0 -103 -69.5 -160.5t-202.5 -57.5h-223zM297 319h-89v-201h89q126 0 126 100q0 101 -126 101zM608 690h140v-690h-140v690z" />
    <glyph glyph-name="uni042C" unicode="&#x42c;" horiz-adv-x="599" 
d="M68 0v690h140v-253h107q124 0 191 -58.5t67 -160.5q0 -101 -67 -159.5t-191 -58.5h-247zM307 319h-99v-201h99q126 0 126 100q0 101 -126 101z" />
    <glyph glyph-name="uni042D" unicode="&#x42d;" horiz-adv-x="594" 
d="M407 288h-208v118h208q-4 175 -125 175q-98 0 -118 -105h-134q17 110 81.5 166.5t170.5 56.5q127 0 196 -78t69 -227v-98q0 -149 -69 -227t-196 -78q-218 0 -252 223h134q11 -54 39.5 -79.5t78.5 -25.5q122 0 125 179z" />
    <glyph glyph-name="uni042E" unicode="&#x42e;" horiz-adv-x="842" 
d="M795 384v-78q0 -315 -250 -315q-247 0 -250 307h-87v-298h-140v690h140v-274h87q13 283 250 283q250 0 250 -315zM435 378v-65q0 -108 25.5 -156t84.5 -48q60 0 85 47.5t25 156.5v65q0 108 -25 155.5t-85 47.5q-59 0 -84.5 -47.5t-25.5 -155.5z" />
    <glyph glyph-name="uni042F" unicode="&#x42f;" horiz-adv-x="614" 
d="M310 271l-143 -271h-154l160 289q-132 47 -132 192q0 101 68 155t193 54h244v-690h-140v271h-96zM312 389h94v182h-94q-69 0 -100 -21t-31 -69q0 -49 29.5 -70.5t101.5 -21.5z" />
    <glyph glyph-name="uni0430" unicode="&#x430;" 
d="M202 -9q-82 0 -129 41.5t-47 115.5q0 73 49.5 112.5t135.5 39.5h99v29q0 43 -18 58.5t-71 15.5q-40 0 -59.5 -8t-34.5 -32l-90 63q27 45 72.5 64t123.5 19q107 0 154.5 -41.5t47.5 -139.5v-328h-125v44q-32 -53 -108 -53zM310 187v19h-84q-75 0 -75 -56t73 -56
q45 0 65.5 21.5t20.5 71.5z" />
    <glyph glyph-name="uni0431" unicode="&#x431;" horiz-adv-x="502" 
d="M404 723l66 -82q-13 -27 -35 -40t-63 -15l-92 -5q-77 -5 -100 -44q-12 -19 -18 -60q44 32 107 32q98 0 149 -57t51 -167v-68q0 -107 -55.5 -166.5t-160.5 -59.5t-160.5 59t-55.5 167v65q0 217 44 308q48 95 169 101l100 5q38 2 54 27zM253 99q89 0 89 126v60
q0 116 -89 116t-89 -116v-60q0 -64 21 -95t68 -31z" />
    <glyph glyph-name="uni0432" unicode="&#x432;" horiz-adv-x="497" 
d="M51 0v500h200q186 0 186 -127q0 -72 -68 -101q45 -13 71 -46t26 -80q0 -68 -48.5 -107t-143.5 -39h-223zM244 212h-65v-113h73q77 0 77 56q0 30 -19 43.5t-66 13.5zM227 401h-48v-95h54q67 0 67 47q0 48 -73 48z" />
    <glyph glyph-name="uni0433" unicode="&#x433;" horiz-adv-x="373" 
d="M51 500h332v-108h-204v-392h-128v500z" />
    <glyph glyph-name="uni0434" unicode="&#x434;" horiz-adv-x="567" 
d="M129 0v-117h-117v225h39q21 15 38 60q22 53 22 212v120h373v-392h66v-225h-116v117h-305zM195 118l-5 -10h167v284h-125v-31q0 -170 -37 -243z" />
    <glyph glyph-name="uni0435" unicode="&#x435;" 
d="M343 142l95 -66q-49 -85 -183 -85q-105 0 -163.5 61t-58.5 165v68q0 110 53 167t153 57q206 0 206 -234v-57h-285q2 -119 94 -119q35 0 54 9.5t35 33.5zM317 309q-5 92 -77 92t-80 -92h157z" />
    <glyph glyph-name="uni0436" unicode="&#x436;" horiz-adv-x="693" 
d="M457 306l82 194h133l-105 -243l126 -257h-141l-92 199h-50v-199h-127v199h-50l-92 -199h-141l126 257l-105 243h133l81 -194h48v194h127v-194h47z" />
    <glyph glyph-name="uni0437" unicode="&#x437;" horiz-adv-x="454" 
d="M182 212h-48v94h51q77 0 77 54q0 22 -17.5 35.5t-47.5 13.5q-53 0 -91 -41l-87 61q65 80 195 80q86 0 135.5 -35t49.5 -92q0 -78 -72 -113q91 -34 91 -127q0 -71 -53.5 -111t-151.5 -40q-142 0 -199 87l82 64q38 -51 108 -51q36 0 56.5 17t20.5 45q0 59 -99 59z" />
    <glyph glyph-name="uni0438" unicode="&#x438;" horiz-adv-x="532" 
d="M51 500h128v-273l191 273h110v-500h-127v283l-193 -283h-109v500z" />
    <glyph glyph-name="uni0439" unicode="&#x439;" horiz-adv-x="532" 
d="M315 687h104q0 -129 -154 -129q-155 0 -155 129h104q0 -55 51 -55q50 0 50 55zM51 500h128v-273l191 273h110v-500h-127v283l-193 -283h-109v500z" />
    <glyph glyph-name="uni043A" unicode="&#x43a;" horiz-adv-x="492" 
d="M227 306l110 194h140l-137 -242l151 -258h-147l-114 199h-51v-199h-128v500h128v-194h48z" />
    <glyph glyph-name="uni043B" unicode="&#x43b;" horiz-adv-x="519" 
d="M91 335v165h377v-500h-127v392h-129v-116q0 -80 -7 -115q-6 -40 -24 -76q-46 -90 -173 -96v112q51 15 68 60q15 41 15 174z" />
    <glyph glyph-name="uni043C" unicode="&#x43c;" horiz-adv-x="636" 
d="M51 500h112l155 -272l155 272h111v-500h-127v258l-100 -183h-85l-93 180v-255h-128v500z" />
    <glyph glyph-name="uni043D" unicode="&#x43d;" horiz-adv-x="515" 
d="M51 500h128v-190h157v190h128v-500h-128v201h-157v-201h-128v500z" />
    <glyph glyph-name="uni043E" unicode="&#x43e;" horiz-adv-x="499" 
d="M465 281v-60q0 -110 -55 -170t-161 -60q-104 0 -160 60t-56 170v60q0 111 55.5 169.5t160.5 58.5t160.5 -58t55.5 -170zM249 99q89 0 89 126v52q0 124 -89 124t-89 -124v-52q0 -64 21 -95t68 -31z" />
    <glyph glyph-name="uni043F" unicode="&#x43f;" horiz-adv-x="515" 
d="M51 0v500h413v-500h-128v392h-157v-392h-128z" />
    <glyph glyph-name="uni0440" unicode="&#x440;" horiz-adv-x="517" 
d="M484 285v-68q0 -101 -51 -164q-50 -62 -144 -62q-75 0 -110 29v-210h-128v690h128v-33q37 42 111 42q90 0 142 -59.5t52 -164.5zM268 99q88 0 88 126v52q0 124 -88 124q-89 0 -89 -113v-63q0 -64 21 -95t68 -31z" />
    <glyph glyph-name="uni0441" unicode="&#x441;" horiz-adv-x="446" 
d="M343 142l95 -66q-49 -85 -182 -85q-105 0 -164 60.5t-59 165.5v68q0 109 59 166.5t171 57.5q122 0 175 -83l-96 -67q-30 42 -82 42q-100 0 -100 -124v-52q0 -60 21 -93q23 -33 79 -33q58 0 83 43z" />
    <glyph glyph-name="uni0442" unicode="&#x442;" horiz-adv-x="420" 
d="M0 392v108h420v-108h-147v-392h-127v392h-146z" />
    <glyph glyph-name="uni0443" unicode="&#x443;" horiz-adv-x="479" 
d="M192 -7l-187 507h134l111 -320l100 320h129l-175 -523q-34 -102 -79 -134q-45 -33 -150 -33v114q55 0 78.5 13.5t38.5 55.5z" />
    <glyph glyph-name="uni0444" unicode="&#x444;" horiz-adv-x="698" 
d="M285 690h128v-181q252 0 252 -224v-68q0 -111 -63.5 -168.5t-188.5 -57.5v-181h-128v181q-125 0 -188.5 57.5t-63.5 168.5v68q0 224 252 224v181zM160 278v-56q0 -64 29.5 -93.5t95.5 -29.5v302q-66 0 -95.5 -28.5t-29.5 -94.5zM537 222v56q0 66 -29 94.5t-95 28.5v-302
q66 0 95 29.5t29 93.5z" />
    <glyph glyph-name="uni0445" unicode="&#x445;" horiz-adv-x="490" 
d="M319 256l165 -256h-142l-97 152l-97 -152h-141l164 256l-151 244h141l84 -143l84 143h141z" />
    <glyph glyph-name="uni0446" unicode="&#x446;" horiz-adv-x="546" 
d="M530 108v-225h-117v117h-362v500h128v-392h157v392h128v-392h66z" />
    <glyph glyph-name="uni0447" unicode="&#x447;" horiz-adv-x="470" 
d="M25 500h127v-144q0 -45 17 -63.5t54 -18.5q51 0 68 33v193h127v-500h-127v186q-31 -24 -94 -24q-172 0 -172 175v163z" />
    <glyph glyph-name="uni0448" unicode="&#x448;" horiz-adv-x="746" 
d="M695 500v-500h-644v500h128v-392h130v392h128v-392h130v392h128z" />
    <glyph glyph-name="uni0449" unicode="&#x449;" horiz-adv-x="778" 
d="M761 108v-225h-117v117h-593v500h128v-392h130v392h128v-392h130v392h128v-392h66z" />
    <glyph glyph-name="uni044A" unicode="&#x44a;" horiz-adv-x="545" 
d="M-13 392v108h249v-172h77q211 0 211 -163q0 -81 -51 -123t-150 -42h-214v392h-122zM304 220h-68v-112h80q71 0 71 57q0 55 -83 55z" />
    <glyph glyph-name="uni044B" unicode="&#x44b;" horiz-adv-x="661" 
d="M51 0v500h128v-172h53q211 0 211 -163q0 -80 -52 -122.5t-149 -42.5h-191zM223 220h-44v-112h56q71 0 71 57q0 55 -83 55zM482 0v500h127v-500h-127z" />
    <glyph glyph-name="uni044C" unicode="&#x44c;" horiz-adv-x="488" 
d="M51 0v500h128v-172h76q211 0 211 -163q0 -81 -51 -123t-150 -42h-214zM246 220h-67v-112h79q71 0 71 57q0 55 -83 55z" />
    <glyph glyph-name="uni044D" unicode="&#x44d;" horiz-adv-x="451" 
d="M290 204h-156v99h156q-5 98 -96 98q-54 0 -83 -42l-95 67q63 83 173 83q113 0 171 -57.5t58 -166.5v-68q0 -108 -59.5 -167t-169.5 -59q-124 0 -176 85l93 66q30 -43 88 -43q94 0 96 105z" />
    <glyph glyph-name="uni044E" unicode="&#x44e;" horiz-adv-x="691" 
d="M657 285v-68q0 -105 -54 -165.5t-150 -60.5q-92 0 -146 55t-58 155h-70v-201h-128v500h128v-190h71q6 96 59 147.5t144 51.5q97 0 150.5 -58t53.5 -166zM453 99q77 0 77 124v56q0 122 -77 122t-77 -122v-56q0 -64 18 -94t59 -30z" />
    <glyph glyph-name="uni044F" unicode="&#x44f;" horiz-adv-x="500" 
d="M448 500v-500h-127v178h-63l-105 -178h-135l120 199q-94 40 -94 146q0 73 52 114t152 41h200zM262 284h59v108h-67q-73 0 -73 -53q0 -55 81 -55z" />
    <glyph glyph-name="uni0451" unicode="&#x451;" 
d="M343 142l95 -66q-49 -85 -183 -85q-105 0 -163.5 61t-58.5 165v68q0 110 53 167t153 57q206 0 206 -234v-57h-285q2 -119 94 -119q35 0 54 9.5t35 33.5zM317 309q-5 92 -77 92t-80 -92h157zM197 573h-124v117h124v-117zM400 573h-123v117h123v-117z" />
    <glyph glyph-name="uni0452" unicode="&#x452;" horiz-adv-x="526" 
d="M65 538h-94v99h94v53h127v-53h138v-99h-138v-108q34 46 113 46q183 0 183 -196v-300q0 -88 -44 -129t-134 -41h-13v110h11q28 0 40.5 14t12.5 46v280q0 56 -19.5 81t-61.5 25q-88 0 -88 -105v-261h-127v538z" />
    <glyph glyph-name="uni0453" unicode="&#x453;" horiz-adv-x="373" 
d="M269 567h-122l70 158h143zM51 500h332v-108h-204v-392h-128v500z" />
    <glyph glyph-name="uni0454" unicode="&#x454;" horiz-adv-x="459" 
d="M157 303h157v-99h-157q1 -105 97 -105q59 0 87 43l94 -66q-52 -85 -176 -85q-110 0 -169.5 59t-59.5 167v68q0 109 58 166.5t171 57.5q110 0 173 -83l-96 -67q-28 42 -82 42q-94 0 -97 -98z" />
    <glyph glyph-name="uni0455" unicode="&#x455;" horiz-adv-x="464" 
d="M419 426l-94 -67q-19 22 -40.5 31t-57.5 9q-63 0 -63 -39q0 -21 18.5 -32t61.5 -17q96 -15 140.5 -54.5t44.5 -110.5q0 -73 -51.5 -114t-144.5 -41q-147 0 -207 83l98 70q31 -43 107 -43q71 0 71 41q0 22 -17 33q-18 9 -68 18q-180 29 -180 162q0 73 50.5 113.5
t142.5 40.5q138 0 189 -83z" />
    <glyph glyph-name="uni0456" unicode="&#x456;" horiz-adv-x="260" 
d="M199 566h-138v124h138v-124zM194 0h-128v500h128v-500z" />
    <glyph glyph-name="uni0457" unicode="&#x457;" horiz-adv-x="260" 
d="M86 573h-124v117h124v-117zM289 573h-123v117h123v-117zM194 0h-128v500h128v-500z" />
    <glyph glyph-name="uni0458" unicode="&#x458;" horiz-adv-x="251" 
d="M67 500h127v-527q0 -93 -45 -128q-47 -35 -149 -35v110q37 0 52 16.5t15 54.5v509zM199 566h-137v124h137v-124z" />
    <glyph glyph-name="uni0459" unicode="&#x459;" horiz-adv-x="777" 
d="M91 335v165h377v-172h77q211 0 211 -163q0 -79 -52 -122t-150 -43h-213v392h-129v-116q0 -80 -7 -115q-6 -40 -24 -76q-46 -90 -173 -96v112q51 15 68 60q15 41 15 174zM536 220h-68v-112h80q70 0 70 57q0 55 -82 55z" />
    <glyph glyph-name="uni045A" unicode="&#x45a;" horiz-adv-x="773" 
d="M51 500h128v-190h157v190h128v-172h76q211 0 211 -163q0 -81 -51.5 -123t-150.5 -42h-213v201h-157v-201h-128v500zM531 220h-67v-112h79q71 0 71 57q0 55 -83 55z" />
    <glyph glyph-name="uni045B" unicode="&#x45b;" horiz-adv-x="526" 
d="M65 538h-94v99h94v53h127v-53h138v-99h-138v-108q34 46 113 46q183 0 183 -196v-280h-127v260q0 56 -19.5 81t-61.5 25q-88 0 -88 -105v-261h-127v538z" />
    <glyph glyph-name="uni045C" unicode="&#x45c;" horiz-adv-x="492" 
d="M307 567h-122l70 158h143zM227 306l110 194h140l-137 -242l151 -258h-147l-114 199h-51v-199h-128v500h128v-194h48z" />
    <glyph glyph-name="uni045E" unicode="&#x45e;" horiz-adv-x="479" 
d="M192 -7l-187 507h134l111 -320l100 320h129l-175 -523q-34 -102 -79 -134q-45 -33 -150 -33v114q55 0 78.5 13.5t38.5 55.5zM299 687h104q0 -129 -154 -129q-155 0 -155 129h104q0 -55 51 -55q50 0 50 55z" />
    <glyph glyph-name="uni045F" unicode="&#x45f;" horiz-adv-x="526" 
d="M304 0v-117h-93v117h-160v500h128v-391h157v391h128v-500h-160z" />
    <glyph glyph-name="uni0462" unicode="&#x462;" horiz-adv-x="599" 
d="M68 618v72h140v-72h151v-118h-151v-63h107q124 0 191 -58.5t67 -160.5q0 -101 -67 -159.5t-191 -58.5h-247v500h-78v118h78zM307 319h-99v-201h99q126 0 126 100q0 101 -126 101z" />
    <glyph glyph-name="uni0463" unicode="&#x463;" horiz-adv-x="488" 
d="M51 401h-80v99h80v190h128v-190h151v-99h-151v-73h76q211 0 211 -163q0 -81 -51 -123t-150 -42h-214v401zM246 220h-67v-112h79q71 0 71 57q0 55 -83 55z" />
    <glyph glyph-name="uni0472" unicode="&#x472;" horiz-adv-x="623" 
d="M576 394v-98q0 -149 -69 -227t-196 -78q-126 0 -195 78t-69 227v98q0 149 68.5 227t195.5 78t196 -78t69 -227zM311 109q125 0 125 187v2h-249v-2q0 -187 124 -187zM311 581q-117 0 -124 -165h248q-6 165 -124 165z" />
    <glyph glyph-name="uni0473" unicode="&#x473;" horiz-adv-x="499" 
d="M465 281v-60q0 -110 -55 -170t-161 -60q-104 0 -160 60t-56 170v60q0 111 55.5 169.5t160.5 58.5t160.5 -58t55.5 -170zM337 201h-176q7 -102 88 -102t88 102zM336 310q-9 91 -87 91t-88 -91h175z" />
    <glyph glyph-name="uni0474" unicode="&#x474;" horiz-adv-x="617" 
d="M244 0l-241 690h154l151 -464l108 332q24 77 70 108q46 33 146 33v-115q-35 0 -52 -15t-31 -57l-178 -512h-127z" />
    <glyph glyph-name="uni0475" unicode="&#x475;" horiz-adv-x="501" 
d="M511 509v-107q-27 0 -40.5 -12.5t-26.5 -48.5l-130 -341h-120l-194 500h140l112 -324l77 221q25 72 61 91q38 21 121 21z" />
    <glyph glyph-name="uni0490" unicode="&#x490;" horiz-adv-x="491" 
d="M68 690h307v108h116v-227h-283v-571h-140v690z" />
    <glyph glyph-name="uni0491" unicode="&#x491;" horiz-adv-x="373" 
d="M51 500h224v93h108v-201h-204v-392h-128v500z" />
    <glyph glyph-name="uni0492" unicode="&#x492;" horiz-adv-x="492" 
d="M69 690h423v-119h-283v-155h136v-118h-136v-298h-140v298h-79v118h79v274z" />
    <glyph glyph-name="uni0493" unicode="&#x493;" horiz-adv-x="395" 
d="M73 500h332v-108h-204v-82h106v-109h-106v-201h-128v201h-86v109h86v190z" />
    <glyph glyph-name="uni0496" unicode="&#x496;" horiz-adv-x="962" 
d="M329 288l-169 -288h-157l206 348l-172 342h148l140 -284h59v284h140v-284h58l141 284h148l-172 -342l136 -230h111v-248h-127v130h-71l-169 288h-55v-288h-140v288h-55z" />
    <glyph glyph-name="uni0497" unicode="&#x497;" horiz-adv-x="725" 
d="M457 306l82 194h133l-105 -243l73 -149h75v-225h-117v117h-46l-92 199h-50v-199h-127v199h-50l-92 -199h-141l126 257l-105 243h133l81 -194h48v194h127v-194h47z" />
    <glyph glyph-name="uni0498" unicode="&#x498;" horiz-adv-x="592" 
d="M362 -4v-126h-127v126q-174 26 -208 204h134q19 -48 49.5 -69.5t82.5 -21.5q126 0 126 95t-134 95h-73v118h75q110 0 110 84q0 81 -103 81q-49 0 -78 -20t-45 -64h-123q9 90 80 146q70 55 171 55t169 -48q69 -48 69 -137q0 -98 -90 -151q112 -46 112 -165q0 -81 -52 -135
t-145 -67z" />
    <glyph glyph-name="uni0499" unicode="&#x499;" horiz-adv-x="454" 
d="M277 -4v-113h-117v111q-100 14 -146 84l82 64q38 -51 108 -51q36 0 56.5 17t20.5 45q0 59 -99 59h-48v94h51q77 0 77 54q0 22 -17.5 35.5t-47.5 13.5q-53 0 -91 -41l-87 61q65 80 195 80q86 0 135.5 -35t49.5 -92q0 -78 -72 -113q91 -34 91 -127q0 -58 -36 -96t-105 -50z
" />
    <glyph glyph-name="uni049A" unicode="&#x49a;" horiz-adv-x="665" 
d="M648 118v-248h-126v130h-78l-177 288h-59v-288h-140v690h140v-284h56l158 284h154l-186 -334l147 -238h111z" />
    <glyph glyph-name="uni049B" unicode="&#x49b;" horiz-adv-x="522" 
d="M227 306l110 194h140l-137 -242l88 -150h81v-225h-117v117h-48l-114 199h-51v-199h-128v500h128v-194h48z" />
    <glyph glyph-name="uni049C" unicode="&#x49c;" horiz-adv-x="720" 
d="M486 356l220 -356h-165l-178 288h-19v-107h-105v107h-31v-288h-140v690h140v-284h31v114h105v-114h17l157 284h154z" />
    <glyph glyph-name="uni049D" unicode="&#x49d;" horiz-adv-x="569" 
d="M304 306l110 194h140l-137 -242l151 -258h-147l-114 199h-10v-96h-95v96h-23v-199h-128v500h128v-194h23v98h95v-98h7z" />
    <glyph glyph-name="uni04A0" unicode="&#x4a0;" horiz-adv-x="681" 
d="M448 356l220 -356h-166l-177 288h-59v-288h-140v571h-153v119h293v-284h56l158 284h154z" />
    <glyph glyph-name="uni04A1" unicode="&#x4a1;" horiz-adv-x="549" 
d="M284 306l110 194h140l-137 -242l151 -258h-147l-114 199h-51v-199h-128v392h-121v108h249v-194h48z" />
    <glyph glyph-name="uni04A2" unicode="&#x4a2;" horiz-adv-x="704" 
d="M68 690h140v-274h239v274h140v-572h100v-248h-127v130h-113v298h-239v-298h-140v690z" />
    <glyph glyph-name="uni04A3" unicode="&#x4a3;" horiz-adv-x="546" 
d="M51 500h128v-190h157v190h128v-392h66v-225h-117v117h-77v201h-157v-201h-128v500z" />
    <glyph glyph-name="uni04AA" unicode="&#x4aa;" horiz-adv-x="594" 
d="M375 -3v-127h-127v127q-97 18 -149 94.5t-52 204.5v98q0 149 68.5 227t195.5 78q106 0 171 -56.5t82 -166.5h-134q-21 105 -119 105q-124 0 -124 -187v-98q0 -187 124 -187q51 0 79 25t40 80h133q-28 -190 -188 -217z" />
    <glyph glyph-name="uni04AB" unicode="&#x4ab;" horiz-adv-x="446" 
d="M318 -4v-113h-116v113q-81 14 -125 72.5t-44 148.5v68q0 109 59 166.5t171 57.5q122 0 175 -83l-96 -67q-30 42 -82 42q-100 0 -100 -124v-52q0 -60 21 -93q23 -33 79 -33q58 0 83 43l95 -66q-39 -65 -120 -80z" />
    <glyph glyph-name="uni04AE" unicode="&#x4ae;" horiz-adv-x="583" 
d="M221 282l-215 408h162l123 -257l124 257h161l-215 -408v-282h-140v282z" />
    <glyph glyph-name="uni04AF" unicode="&#x4af;" horiz-adv-x="504" 
d="M252 176l111 324h141l-186 -490v-200h-128v200l-190 490h140z" />
    <glyph glyph-name="uni04B0" unicode="&#x4b0;" horiz-adv-x="583" 
d="M207 309l-201 381h162l123 -257l124 257h161l-201 -381h115v-118h-129v-191h-140v191h-127v118h113z" />
    <glyph glyph-name="uni04B1" unicode="&#x4b1;" horiz-adv-x="504" 
d="M252 176l111 324h141l-190 -500h99v-108h-99v-82h-120v82h-102v108h102l-194 500h140z" />
    <glyph glyph-name="uni04B2" unicode="&#x4b2;" horiz-adv-x="642" 
d="M296 235l-131 -235h-152l194 356l-173 334h152l110 -220l111 220h151l-174 -334l130 -238h111v-248h-127v130h-70z" />
    <glyph glyph-name="uni04B3" unicode="&#x4b3;" horiz-adv-x="511" 
d="M501 108v-225h-116v117h-43l-97 152l-97 -152h-141l164 256l-151 244h141l84 -143l84 143h141l-151 -244l95 -148h87z" />
    <glyph glyph-name="uni04B6" unicode="&#x4b6;" horiz-adv-x="646" 
d="M21 690h140v-203q0 -71 27 -101t92 -30q85 0 110 43v291h140v-572h99v-248h-126v130h-113v270q-47 -32 -136 -32q-128 0 -180 58q-53 59 -53 191v203z" />
    <glyph glyph-name="uni04B7" unicode="&#x4b7;" horiz-adv-x="503" 
d="M27 500h127v-144q0 -45 17 -63.5t54 -18.5q51 0 68 33v193h127v-392h66v-225h-117v117h-76v186q-31 -24 -94 -24q-172 0 -172 175v163z" />
    <glyph glyph-name="uni04B8" unicode="&#x4b8;" horiz-adv-x="618" 
d="M230 473h118v-109q48 11 62 35v291h140v-690h-140v270q-15 -12 -62 -23v-113h-118v104q-113 5 -161 62.5t-48 186.5v203h140v-203q0 -57 16 -86.5t53 -39.5v112z" />
    <glyph glyph-name="uni04B9" unicode="&#x4b9;" horiz-adv-x="512" 
d="M26 500h128v-144q0 -67 42 -79v104h95v-97q28 8 42 22v194h127v-500h-127v186q-18 -9 -42 -13v-92h-95v81q-170 0 -170 175v163z" />
    <glyph glyph-name="uni04BA" unicode="&#x4ba;" horiz-adv-x="598" 
d="M577 0h-140v260q0 71 -27 101t-92 30q-85 0 -110 -43v-348h-140v690h140v-213q47 32 137 32q127 0 179 -58q53 -59 53 -190v-261z" />
    <glyph glyph-name="uni04BB" unicode="&#x4bb;" horiz-adv-x="526" 
d="M179 0h-128v690h128v-229q36 48 112 48q183 0 183 -196v-313h-127v293q0 56 -19 81t-61 25q-88 0 -88 -105v-294z" />
    <glyph glyph-name="uni04D8" unicode="&#x4d8;" horiz-adv-x="602" 
d="M47 296v73h378v25q0 187 -124 187q-99 0 -118 -105h-134q15 108 79.5 165.5t172.5 57.5q128 0 196 -79.5t68 -235.5v-88q0 -149 -69 -227t-195 -78q-124 0 -189 77t-65 228zM301 109q57 0 86 33.5t36 107.5h-242q5 -73 33.5 -107t86.5 -34z" />
    <glyph glyph-name="uni04D9" unicode="&#x4d9;" 
d="M143 358l-95 66q49 85 183 85q105 0 163.5 -61t58.5 -165v-68q0 -110 -53 -167t-153 -57q-206 0 -206 234v57h285q-2 119 -94 119q-35 0 -54 -9.5t-35 -33.5zM169 191q5 -92 77 -92t80 92h-157z" />
    <glyph glyph-name="uni04E2" unicode="&#x4e2;" horiz-adv-x="676" 
d="M500 744h-322v112h322v-112zM68 0v690h140v-433l288 433h112v-690h-140v428l-285 -428h-115z" />
    <glyph glyph-name="uni04E3" unicode="&#x4e3;" horiz-adv-x="532" 
d="M408 573h-283v111h283v-111zM51 500h128v-273l191 273h110v-500h-127v283l-193 -283h-109v500z" />
    <glyph glyph-name="uni04E8" unicode="&#x4e8;" horiz-adv-x="623" 
d="M576 394v-98q0 -149 -69 -227t-196 -78q-126 0 -195 78t-69 227v98q0 149 68.5 227t195.5 78t196 -78t69 -227zM311 109q125 0 125 187v2h-249v-2q0 -187 124 -187zM311 581q-117 0 -124 -165h248q-6 165 -124 165z" />
    <glyph glyph-name="uni04E9" unicode="&#x4e9;" horiz-adv-x="499" 
d="M465 281v-60q0 -110 -55 -170t-161 -60q-104 0 -160 60t-56 170v60q0 111 55.5 169.5t160.5 58.5t160.5 -58t55.5 -170zM337 201h-176q7 -102 88 -102t88 102zM336 310q-9 91 -87 91t-88 -91h175z" />
    <glyph glyph-name="uni04EE" unicode="&#x4ee;" horiz-adv-x="579" 
d="M311 346l124 344h144l-212 -550q-34 -87 -88 -118q-52 -31 -161 -31v122q57 0 83.5 10.5t42.5 40.5l-236 526h155zM464 744h-322v112h322v-112z" />
    <glyph glyph-name="uni04EF" unicode="&#x4ef;" horiz-adv-x="479" 
d="M192 -7l-187 507h134l111 -320l100 320h129l-175 -523q-34 -102 -79 -134q-45 -33 -150 -33v114q55 0 78.5 13.5t38.5 55.5zM388 573h-283v111h283v-111z" />
    <glyph glyph-name="uni10D0" unicode="&#x10d0;" horiz-adv-x="511" 
d="M350 390q72 -54 91.5 -94.5t19.5 -120.5q0 -24 -5.5 -47t-20 -48.5t-37 -44.5t-60 -31.5t-85.5 -12.5q-60 0 -102.5 18.5t-64.5 50t-31.5 66t-9.5 75.5q0 42 6 70h123q-2 -28 -2 -48q0 -124 81 -124q39 0 60 24t21 56v8q0 20 -1 31t-6 29t-19 34t-36 33
q-66 50 -83.5 80.5t-17.5 90.5v15h127v-15q0 -37 8.5 -53t43.5 -42z" />
    <glyph glyph-name="uni10D1" unicode="&#x10d1;" horiz-adv-x="507" 
d="M45 219v16q0 44 9.5 81t30 69t58.5 52.5t90 24.5v32q0 22 -17.5 41t-38.5 31.5t-38.5 36.5t-17.5 56v31h127v-19q0 -14 11.5 -26t28 -22.5t33 -24t28 -37t11.5 -55.5v-60q117 -47 117 -211v-16q0 -100 -50 -164t-166 -64t-166 64t-50 164zM172 223q0 -124 89 -124t89 124
v8q0 124 -89 124t-89 -124v-8z" />
    <glyph glyph-name="uni10D2" unicode="&#x10d2;" horiz-adv-x="540" 
d="M50 32v31q0 100 52 164t168 64q27 0 27 60q0 50 -35 50q-33 0 -33 -53h-127q0 78 36 119.5t124 41.5q162 0 162 -145q0 -64 -37 -98q103 -53 103 -203v-31q0 -100 -52 -164t-168 -64t-168 64t-52 164zM177 36q0 -124 93 -124t93 124v23q0 124 -93 124t-93 -124v-23z" />
    <glyph glyph-name="uni10D3" unicode="&#x10d3;" horiz-adv-x="768" 
d="M535 509q193 0 193 -222v-33q0 -222 -208 -222t-208 222v29q0 64 -13.5 91t-49.5 27t-51.5 -27.5t-15.5 -90.5v-109q0 -126 62 -189.5t202 -63.5h170v-108h-170q-103 0 -180 27t-122 75.5t-67 111.5t-22 141v119q0 222 173 222q115 0 145 -84q39 84 162 84zM601 258v25
q0 118 -81 118t-81 -118v-25q0 -118 81 -118t81 118z" />
    <glyph glyph-name="uni10D4" unicode="&#x10d4;" horiz-adv-x="539" 
d="M263 509q206 0 206 -228v-249q0 -228 -212 -228t-212 228q0 33 4 63h125q-2 -20 -2 -59q0 -124 85 -124t85 124v241q0 64 -18 94t-61 30t-61 -23t-18 -72v-20h-127v24q0 38 9 70.5t30.5 63t64 48t102.5 17.5z" />
    <glyph glyph-name="uni10D5" unicode="&#x10d5;" horiz-adv-x="522" 
d="M368 189q99 -29 99 -177q0 -92 -50 -150t-166 -58t-166 64t-50 164q0 21 4 51h125q-2 -20 -2 -47q0 -124 89 -124q45 0 67 25.5t22 83.5q0 107 -89 107h-28v108h28q79 0 79 79q0 86 -77 86q-41 0 -60 -23t-19 -72v-8h-127v12q0 199 206 199q59 0 101.5 -16.5t63.5 -44.5
t30 -56t9 -58q0 -112 -89 -145z" />
    <glyph glyph-name="uni10D6" unicode="&#x10d6;" horiz-adv-x="668" 
d="M402 463q116 0 166 -64t50 -164v-16q0 -100 -50 -164t-166 -64t-166 64t-50 164v8q0 48 22 121q-5 -1 -14 -1q-169 0 -169 170v12q0 73 41 121.5t128 48.5t128 -48.5t41 -121.5v-8q0 -28 -8 -62q34 4 47 4zM194 447q15 0 43 4q8 38 8 76v6q0 66 -51 66t-51 -66v-20
q0 -66 51 -66zM491 223v8q0 124 -89 124q-33 0 -76 -12q-13 -65 -13 -116v-4q0 -124 89 -124t89 124z" />
    <glyph glyph-name="uni10D7" unicode="&#x10d7;" horiz-adv-x="789" 
d="M45 219v62q0 228 196 228q119 0 160 -90q37 90 154 90q57 0 96 -17.5t58.5 -50t27 -69t7.5 -85.5v-47q0 -115 -20 -240h-123q16 144 16 244v39q0 63 -17 90.5t-59 27.5t-59 -30t-17 -94v-58q0 -228 -210 -228t-210 228zM172 223q0 -63 19.5 -93.5t63.5 -30.5t63.5 30.5
t19.5 93.5v54q0 63 -19.5 93.5t-63.5 30.5t-63.5 -30.5t-19.5 -93.5v-54z" />
    <glyph glyph-name="uni10D8" unicode="&#x10d8;" horiz-adv-x="510" 
d="M255 509q210 0 210 -228v-41q0 -98 -17 -240h-123q13 156 13 244v33q0 63 -19.5 93.5t-63.5 30.5t-63.5 -30.5t-19.5 -93.5v-33q0 -88 13 -244h-123q-17 142 -17 240v41q0 228 210 228z" />
    <glyph glyph-name="uni10D9" unicode="&#x10d9;" horiz-adv-x="502" 
d="M339 229q118 -30 118 -194q0 -231 -216 -231q-116 0 -166 64t-50 164q0 21 4 51h125q0 -5 -1 -23t-1 -24q0 -124 89 -124q45 0 67 30.5t22 99.5q0 73 -27.5 99.5t-81.5 26.5h-27v108h27q79 0 79 79v145h127v-126q0 -62 -21.5 -95t-66.5 -50z" />
    <glyph glyph-name="uni10DA" unicode="&#x10da;" horiz-adv-x="997" 
d="M779 509q173 0 173 -222q0 -76 -13 -184h-123q9 108 9 180q0 64 -13.5 91t-48.5 27t-48.5 -27t-13.5 -91v-138h-127v138q0 64 -14.5 91t-53.5 27t-53.5 -27t-14.5 -91v-138h-127v138q0 64 -13.5 91t-48.5 27t-48.5 -27t-13.5 -91v-108q0 -127 61.5 -190t202.5 -63l347 -1
v-108l-347 1q-202 0 -296.5 96.5t-94.5 258.5v118q0 222 173 222q111 0 142 -84q25 84 131 84t131 -84q31 84 142 84z" />
    <glyph glyph-name="uni10DB" unicode="&#x10db;" horiz-adv-x="547" 
d="M267 699q117 0 163.5 -56.5t46.5 -155.5v-268q0 -100 -50 -164t-166 -64t-166 64t-50 164v16q0 101 46 164.5t153 63.5q69 0 106 -31v51q0 61 -19 84.5t-70 23.5q-77 0 -77 -60h-127q0 32 10 60t32 53.5t65 40t103 14.5zM350 223v8q0 124 -89 124t-89 -124v-8
q0 -124 89 -124t89 124z" />
    <glyph glyph-name="uni10DC" unicode="&#x10dc;" horiz-adv-x="547" 
d="M303 463q107 0 153 -63.5t46 -164.5v-16q0 -100 -50 -164t-166 -64t-166 64t-50 164v283q0 48 7 79.5t27 58t59.5 38.5t100.5 12h201v-108h-201q-41 0 -54 -15.5t-13 -64.5v-70q37 31 106 31zM375 223v8q0 124 -89 124t-89 -124v-8q0 -124 89 -124t89 124z" />
    <glyph glyph-name="uni10DD" unicode="&#x10dd;" horiz-adv-x="789" 
d="M551 509q57 0 96.5 -17.5t60 -50t28.5 -69.5t8 -85v-47q0 -115 -20 -240h-123q16 144 16 244v39q0 62 -18.5 90t-61.5 28q-42 0 -60.5 -30t-18.5 -94v-159h-127v159q0 64 -18.5 94t-60.5 30q-43 0 -61.5 -28t-18.5 -90v-39q0 -100 16 -244h-123q-20 125 -20 240v47
q0 48 8 85t28.5 69.5t60 50t96.5 17.5q116 0 157 -90q39 90 156 90z" />
    <glyph glyph-name="uni10DE" unicode="&#x10de;" horiz-adv-x="537" 
d="M369 360q53 -16 75.5 -54.5t22.5 -114.5q0 -85 -50.5 -142.5t-165.5 -57.5q-116 0 -166 64t-50 164q0 21 4 51h125q0 -5 -1 -23t-1 -24q0 -124 89 -124t89 101q0 49 -23.5 74t-65.5 25h-35v108h35q39 0 55 15t16 45q0 27 -15 40t-57 24q-80 21 -105.5 50t-25.5 90v19h127
v-11q0 -21 11.5 -31.5t52.5 -21.5q79 -20 109 -51.5t30 -92.5q0 -92 -80 -122z" />
    <glyph glyph-name="uni10DF" unicode="&#x10df;" horiz-adv-x="547" 
d="M373 509h104v-477q0 -100 -50 -164t-166 -64t-166 64t-50 164q0 25 4 45h125q-2 -20 -2 -41q0 -124 89 -124t89 124v357l-67 -25q12 -33 12 -76q0 -121 -125 -121t-125 131v42h101v-36q0 -41 24 -41t24 41q0 27 -6.5 57t-13.5 47l-6 17z" />
    <glyph glyph-name="uni10E0" unicode="&#x10e0;" horiz-adv-x="804" 
d="M60 240v63q0 207 96.5 297t324.5 90h188v-108h-188q-129 0 -196.5 -32.5t-87.5 -106.5q31 20 79 20q101 0 134 -90q39 90 156 90q57 0 96.5 -17t60 -49t28.5 -68.5t8 -84.5v-25q0 -94 -20 -219h-123q16 142 16 240q-1 61 -19.5 88t-60.5 27t-60.5 -30t-18.5 -94v-113
h-127v113q0 64 -18.5 94t-60.5 30t-60.5 -27t-19.5 -88q0 -98 16 -240h-123q-20 125 -20 240z" />
    <glyph glyph-name="uni10E1" unicode="&#x10e1;" horiz-adv-x="529" 
d="M367 243q0 23 -17.5 81.5t-17.5 103.5v24h127v-24q0 -28 17.5 -87.5t17.5 -99.5v-21q0 -228 -212 -228t-212 228v471h127v-467q0 -124 85 -124t85 124v19z" />
    <glyph glyph-name="uni10E2" unicode="&#x10e2;" horiz-adv-x="633" 
d="M70 22v478h127v-474q0 -59 36 -86.5t96 -27.5t96 27.5t36 86.5v34q0 56 -25 79t-59 23h-12v-70h-117v266q0 29 6.5 53.5t22.5 47.5t48 36.5t77 13.5q160 0 160 -164q0 -82 -62 -118q88 -41 88 -165v-40q0 -95 -65 -156.5t-194 -61.5t-194 61.5t-65 156.5zM365 266h33
q37 0 37 73q0 62 -35 62t-35 -52v-83z" />
    <glyph glyph-name="uni10E3" unicode="&#x10e3;" horiz-adv-x="562" 
d="M343 509q80 0 114.5 -42.5t34.5 -123.5v-311q0 -100 -52 -164t-168 -64t-168 64t-52 164q0 33 4 63h125q-2 -20 -2 -59q0 -124 93 -124t93 124v303q0 62 -44 62q-24 0 -34 -16t-10 -52v-106h-127v106q0 38 -8 53t-32 15q-8 0 -26 -1.5t-33 -1.5t-26 3v108q10 -2 25 -2
t33 1t26 1q91 0 105 -90q9 41 44.5 65.5t84.5 24.5z" />
    <glyph glyph-name="uni10E4" unicode="&#x10e4;" horiz-adv-x="726" 
d="M582 189q99 -29 99 -173q0 -94 -62 -153t-199 -59t-196.5 59t-59.5 152q0 13 1 21h126v-17q0 -107 129 -107q134 0 134 113q0 56 -23 79.5t-66 23.5h-13v108h13q89 0 89 79q0 86 -70 86q-35 0 -50.5 -22t-15.5 -69v-25q0 -40 -10 -75t-31.5 -65.5t-61 -48t-93.5 -17.5
q-105 0 -151 56t-46 142v34q0 85 44 141.5t139 56.5q112 0 146 -82q36 82 149 82q55 0 92.5 -16.5t55 -45t24 -55t6.5 -58.5q0 -108 -99 -145zM291 281v26q0 48 -16 71t-53 23t-53.5 -23t-16.5 -71v-26q0 -48 16.5 -71t53.5 -23q69 0 69 94z" />
    <glyph glyph-name="uni10E5" unicode="&#x10e5;" horiz-adv-x="547" 
d="M350 690h127v-658q0 -100 -50 -164t-166 -64t-166 64t-50 164q0 33 4 63h125q-2 -20 -2 -59q0 -124 89 -124t89 124v241q0 124 -89 124q-42 0 -59.5 -24.5t-17.5 -70.5v-8h-127v12q0 199 187 199q69 0 106 -31v212z" />
    <glyph glyph-name="uni10E6" unicode="&#x10e6;" horiz-adv-x="778" 
d="M187 174q0 -126 62 -189.5t202 -63.5h170v-108h-170q-103 0 -180 27t-122 75.5t-67 111.5t-22 141v119q0 222 186 222q110 0 151 -90q39 90 150 90q186 0 186 -222q0 -61 -10 -184h-124q7 87 7 180q0 62 -17 90t-56 28q-38 0 -55.5 -30.5t-17.5 -93.5v-132h-127v132
q0 63 -17.5 93.5t-55.5 30.5q-39 0 -56 -28t-17 -90v-109z" />
    <glyph glyph-name="uni10E7" unicode="&#x10e7;" horiz-adv-x="572" 
d="M365 500h127v-468q0 -100 -50 -164t-166 -64q-60 0 -104 18t-67.5 49t-34 66t-10.5 75l1 24h126v-5q0 -119 89 -119t89 124v100q-37 -31 -106 -31q-74 0 -120 33t-62.5 81t-16.5 112q0 60 14 169h124q-11 -107 -11 -169q0 -118 89 -118t89 124v163z" />
    <glyph glyph-name="uni10E8" unicode="&#x10e8;" horiz-adv-x="547" 
d="M330 697q80 0 113.5 -42.5t33.5 -123.5v-312q0 -100 -50 -164t-166 -64t-166 64t-50 164v16q0 101 46 164.5t153 63.5q69 0 106 -31v95q0 33 -8.5 47.5t-31.5 14.5t-31.5 -15.5t-8.5 -52.5v-12h-127v12q0 36 -12.5 52t-40.5 16q-11 0 -21.5 -1.5t-15.5 -3.5l-5 -2v111
q21 4 46 4q48 0 77 -23.5t36 -66.5q9 42 42 66t81 24zM350 223v8q0 124 -89 124t-89 -124v-8q0 -124 89 -124t89 124z" />
    <glyph glyph-name="uni10E9" unicode="&#x10e9;" horiz-adv-x="547" 
d="M70 0v469q0 228 210 228q59 0 102 -17t64 -45t30.5 -56t9.5 -56q0 -87 -55 -144q71 -55 71 -187q0 -68 -16 -192h-123q12 136 12 192q0 117 -89 117t-89 -124v-185h-127zM197 386q37 31 106 31q20 0 30 -1q26 38 26 87q0 86 -79 86q-44 0 -63.5 -30.5t-19.5 -93.5v-79z
" />
    <glyph glyph-name="uni10EA" unicode="&#x10ea;" horiz-adv-x="547" 
d="M70 32v468h127v-464q0 -124 89 -124t89 124v16q0 107 -89 107h-6v108h6q40 0 55.5 15t15.5 52q0 20 -21.5 62t-21.5 85v19h127v-11q0 -26 21.5 -65t21.5 -88q0 -86 -81 -116q53 -16 76 -58t23 -119v-11q0 -100 -50 -164t-166 -64t-166 64t-50 164z" />
    <glyph glyph-name="uni10EB" unicode="&#x10eb;" horiz-adv-x="547" 
d="M45 235q0 101 46 164.5t153 63.5q69 0 106 -31v258h127v-471q0 -100 -50 -164t-166 -64t-166 64t-50 164v16zM172 231v-8q0 -124 89 -124t89 124v8q0 124 -89 124t-89 -124z" />
    <glyph glyph-name="uni10EC" unicode="&#x10ec;" horiz-adv-x="547" 
d="M70 531q0 81 33.5 123.5t113.5 42.5q48 0 83 -24t45 -66q13 90 108 90l47 -4v-111q-18 7 -42 7q-28 0 -39 -16t-11 -52v-12h-127v12q0 36 -9.5 52t-32.5 16t-32.5 -15t-9.5 -47v-95q37 31 106 31q107 0 153 -63.5t46 -164.5v-16q0 -100 -50 -164t-166 -64t-166 64
t-50 164v312zM197 231v-8q0 -124 89 -124t89 124v8q0 124 -89 124t-89 -124z" />
    <glyph glyph-name="uni10ED" unicode="&#x10ed;" horiz-adv-x="522" 
d="M367 254q0 -49 38 -80q37 -30 54.5 -65.5t17.5 -91.5v-10q0 -37 -11 -70.5t-34 -64.5t-67 -49.5t-104 -18.5q-116 0 -166 64t-50 164q0 33 4 63h125q-2 -20 -2 -59q0 -124 89 -124q43 0 66 26.5t23 72.5v2q0 36 -14.5 59.5t-41.5 46.5q-54 45 -54 83v3q-23 -16 -59 -16
q-64 0 -100 40t-36 107q0 68 42 107t121 39h32v208h127v-208h81v-108h-81v-120zM204 291q24 0 36 18v71h-15q-29 0 -44 -9.5t-15 -36.5q0 -43 38 -43z" />
    <glyph glyph-name="uni10EE" unicode="&#x10ee;" horiz-adv-x="547" 
d="M303 463q107 0 153 -63.5t46 -164.5v-16q0 -100 -50 -164t-166 -64t-166 64t-50 164v471h127v-258q37 31 106 31zM197 231v-8q0 -124 89 -124t89 124v8q0 124 -89 124t-89 -124z" />
    <glyph glyph-name="uni10EF" unicode="&#x10ef;" horiz-adv-x="522" 
d="M324 253q153 -28 153 -217v-10q0 -99 -50 -160.5t-166 -61.5t-166 64t-50 164q0 33 4 63h125q-2 -20 -2 -59q0 -124 89 -124t89 118v2q0 118 -75 118h-78v152h-131v108h131v90h127v-90h122v-108h-122v-49z" />
    <glyph glyph-name="uni10F0" unicode="&#x10f0;" horiz-adv-x="547" 
d="M379 263q98 -22 98 -114q0 -67 -50.5 -112.5t-165.5 -45.5q-116 0 -166 64t-50 164q0 21 4 51h125q0 -5 -1 -27.5t-1 -28.5q0 -115 94 -115q84 0 84 54q0 55 -77 55h-39v108h39q32 0 48.5 7.5t16.5 27.5q0 34 -65 34h-39v108h43q29 0 37.5 2.5t8.5 11.5q0 3 -1.5 6
t-5.5 6t-8.5 5t-12.5 5.5t-15 6.5t-18.5 7.5t-20.5 8.5q-75 32 -98.5 57t-23.5 64v17h127v-9q0 -10 15.5 -21t55.5 -28q83 -36 108 -56t25 -62q0 -31 -20 -49.5t-51 -24.5q86 -13 86 -89q0 -73 -86 -88z" />
    <glyph glyph-name="uni1C90" unicode="&#x1c90;" horiz-adv-x="584" 
d="M539 246v-24q0 -98 -61 -164.5t-186 -66.5t-186 66.5t-61 164.5q0 51 7 107h136q-3 -99 -3 -107q0 -113 107 -113t107 113v24q0 75 -15.5 110.5t-63.5 76.5q-51 43 -79 73.5t-40.5 61t-14.5 50t-2 62.5v10h140v-10q0 -59 12.5 -86t59.5 -67q90 -76 116.5 -131.5
t26.5 -149.5z" />
    <glyph glyph-name="uni1C91" unicode="&#x1c91;" horiz-adv-x="624" 
d="M45 222v25q0 89 63.5 156t179.5 74v20q0 22 -23.5 37t-51.5 23t-51.5 31.5t-23.5 61.5v39h133v-21q0 -14 15.5 -23.5t37.5 -16.5t44 -18t37.5 -35.5t15.5 -61.5v-52q76 -26 117 -85t41 -129v-25q0 -94 -70 -162.5t-197 -68.5t-197 68.5t-70 162.5zM185 222
q0 -59 37.5 -86t89.5 -27t89.5 27t37.5 86v25q0 59 -37.5 86t-89.5 27t-89.5 -27t-37.5 -86v-25z" />
    <glyph glyph-name="uni1C92" unicode="&#x1c92;" horiz-adv-x="634" 
d="M50 222v25q0 94 70 162.5t197 68.5q47 0 47 54q0 49 -56 49q-55 0 -55 -43h-140q0 77 45 119t150 42q103 0 149.5 -43t46.5 -111q0 -65 -48 -97q62 -30 95 -84t33 -117v-25q0 -94 -70 -162.5t-197 -68.5t-197 68.5t-70 162.5zM190 222q0 -59 37.5 -86t89.5 -27t89.5 27
t37.5 86v25q0 59 -37.5 86t-89.5 27t-89.5 -27t-37.5 -86v-25z" />
    <glyph glyph-name="uni1C93" unicode="&#x1c93;" horiz-adv-x="909" 
d="M60 353v112q0 234 211 234q123 0 166 -87q49 87 183 87q67 0 116 -20t74.5 -55t37 -74t11.5 -85v-10q0 -47 -11.5 -86t-37.5 -74t-76 -55t-120 -20t-120 20t-76 55t-37 74t-11 86v10q0 116 -85 116t-85 -116v-112q0 -114 70 -174.5t202 -60.5h253v-118h-253
q-197 0 -304.5 93.5t-107.5 259.5zM510 455q0 -50 23.5 -83.5t80.5 -33.5q56 0 80.5 34t24.5 83v10q0 48 -24.5 82t-80.5 34q-57 0 -80.5 -33.5t-23.5 -82.5v-10z" />
    <glyph glyph-name="uni1C94" unicode="&#x1c94;" horiz-adv-x="645" 
d="M45 222l3 49h137v-49q0 -60 36.5 -86.5t88.5 -26.5t88.5 26.5t36.5 86.5v246q0 60 -34.5 86.5t-86.5 26.5q-57 0 -89 -22.5t-32 -67.5v-7h-140v7q0 86 63 147t198 61q126 0 193.5 -67.5t67.5 -163.5v-246q0 -96 -69 -163.5t-196 -67.5t-196 67.5t-69 163.5z" />
    <glyph glyph-name="uni1C95" unicode="&#x1c95;" horiz-adv-x="645" 
d="M45 222l3 49h137v-49q0 -60 36.5 -86.5t88.5 -26.5t88.5 23.5t36.5 75.5q0 53 -33 78t-88 25h-44v118h44q56 0 84.5 15t28.5 58q0 79 -117 79t-117 -90v-7h-140v7q0 40 13 75t41 66t80 49t123 18q127 0 192 -53t65 -133q0 -56 -29.5 -91t-83.5 -46q121 -36 121 -174
q0 -93 -68 -152t-197 -59q-127 0 -196 67.5t-69 163.5z" />
    <glyph glyph-name="uni1C96" unicode="&#x1c96;" horiz-adv-x="753" 
d="M449 454q126 0 190 -66t64 -161v-9q0 -95 -64 -161t-190 -66t-190 66t-64 161v9q0 51 20 103q-94 1 -142 52t-48 123v19q0 73 49.5 124t146.5 51t146.5 -51t49.5 -124v-19q0 -27 -8 -54q24 3 40 3zM221 440q18 0 46 4q17 39 17 64v13q0 34 -18 51t-45 17t-45 -17t-18 -51
v-13q0 -34 18 -51t45 -17zM563 218v9q0 56 -32.5 82.5t-81.5 26.5q-35 0 -93 -10q-21 -52 -21 -99v-9q0 -56 32.5 -82.5t81.5 -26.5t81.5 26.5t32.5 82.5z" />
    <glyph glyph-name="uni1C97" unicode="&#x1c97;" horiz-adv-x="930" 
d="M669 699q61 0 105.5 -21.5t67.5 -58t33 -76t10 -85.5v-124q0 -110 -12 -334h-136q8 171 8 334v124q0 123 -95 123t-95 -123v-226q0 -98 -65 -169.5t-190 -71.5t-190 71.5t-65 169.5v226q0 98 63 169.5t183 71.5q139 0 192 -98q52 98 186 98zM415 232v226q0 61 -33 92
t-82 31t-82 -31t-33 -92v-226q0 -61 33 -92t82 -31t82 31t33 92z" />
    <glyph glyph-name="uni1C98" unicode="&#x1c98;" horiz-adv-x="600" 
d="M300 699q125 0 190 -71.5t65 -169.5v-124q0 -146 -10 -334h-136q6 165 6 334v124q0 61 -33 92t-82 31t-82 -31t-33 -92v-124q0 -169 6 -334h-136q-10 188 -10 334v124q0 98 65 169.5t190 71.5z" />
    <glyph glyph-name="uni1C99" unicode="&#x1c99;" horiz-adv-x="645" 
d="M449 436q63 -19 92 -76.5t29 -125.5q0 -243 -265 -243q-127 0 -196 67.5t-69 163.5l3 49h137v-49q0 -60 36.5 -86.5t88.5 -26.5q26 0 45.5 5t39 18t30 40.5t10.5 67.5q0 131 -121 131h-66v118h66q89 0 89 114v87h140v-76q0 -146 -89 -178z" />
    <glyph glyph-name="uni1C9A" unicode="&#x1c9a;" horiz-adv-x="1172" 
d="M904 699q218 0 218 -234q0 -37 -4 -80.5t-8 -68.5l-3 -24h-136q11 97 11 173q0 21 -2 37t-9.5 36.5t-26 31.5t-46.5 11t-46.5 -11t-26 -31.5t-9.5 -36.5t-2 -37v-124h-140v124q0 17 -1 29t-5.5 30t-12.5 29t-24.5 19.5t-39.5 8.5t-39.5 -8.5t-24.5 -19.5t-12.5 -29
t-5.5 -30t-1 -29v-124h-140v124q0 21 -2 37t-9.5 36.5t-26 31.5t-46.5 11t-46.5 -11t-26 -31.5t-9.5 -36.5t-2 -37v-112q0 -114 70 -174.5t202 -60.5h468v-118h-468q-197 0 -304.5 93.5t-107.5 259.5v112q0 234 218 234q110 0 155 -76q41 76 158 76q116 0 158 -77
q44 77 155 77z" />
    <glyph glyph-name="uni1C9B" unicode="&#x1c9b;" horiz-adv-x="645" 
d="M574 468l1 -246q0 -96 -69 -163.5t-196 -67.5t-196 67.5t-69 163.5v10q0 98 60.5 164.5t181.5 66.5q101 0 147 -49v54q0 60 -34.5 86.5t-86.5 26.5q-55 0 -88 -21.5t-33 -65.5h-140q0 90 66.5 147.5t194.5 57.5q127 0 194 -67.5t67 -163.5zM435 222v10q0 60 -37.5 86.5
t-93.5 26.5q-50 0 -84.5 -26.5t-34.5 -86.5v-10q0 -60 36.5 -86.5t88.5 -26.5t88.5 26.5t36.5 86.5z" />
    <glyph glyph-name="uni1C9C" unicode="&#x1c9c;" horiz-adv-x="645" 
d="M357 463q82 0 139 -34t80.5 -84.5t23.5 -112.5v-10q0 -96 -69 -163.5t-196 -67.5t-196 67.5t-69 163.5v273q0 106 47 150.5t164 44.5h283v-118h-283q-46 0 -58.5 -14t-12.5 -69v-75q46 49 147 49zM460 222v10q0 60 -34.5 86.5t-84.5 26.5q-57 0 -94 -26.5t-37 -86.5v-10
q0 -60 36.5 -86.5t88.5 -26.5t88.5 26.5t36.5 86.5z" />
    <glyph glyph-name="uni1C9D" unicode="&#x1c9d;" horiz-adv-x="931" 
d="M662 699q64 0 110 -20.5t69.5 -56.5t34 -76t10.5 -88v-124q0 -146 -10 -334h-136q6 165 6 334v124q0 62 -28.5 92.5t-76.5 30.5t-76.5 -30.5t-28.5 -92.5v-296h-141v296q0 62 -28.5 92.5t-76.5 30.5t-76.5 -30.5t-28.5 -92.5v-124q0 -169 6 -334h-136q-10 188 -10 334
v124q0 48 10.5 88t34 76t69.5 56.5t110 20.5q71 0 122 -27t75 -70q23 43 73.5 70t122.5 27z" />
    <glyph glyph-name="uni1C9E" unicode="&#x1c9e;" horiz-adv-x="630" 
d="M439 368q65 -19 93 -61.5t28 -108.5q0 -93 -68 -150t-197 -57q-127 0 -196 67.5t-69 163.5l3 49h137v-49q0 -60 36.5 -86.5t88.5 -26.5q125 0 125 95q0 99 -121 99h-52v118h52q58 0 81.5 9t23.5 32t-23.5 35.5t-101.5 34.5q-90 26 -118 52.5t-28 93.5v12h140v-10
q0 -14 15 -21.5t55 -18.5q117 -33 159 -67.5t42 -93.5q0 -92 -105 -111z" />
    <glyph glyph-name="uni1C9F" unicode="&#x1c9f;" horiz-adv-x="645" 
d="M447 699h128v-477q0 -96 -69 -163.5t-196 -67.5t-196 67.5t-69 163.5l3 49h137v-49q0 -60 36.5 -86.5t88.5 -26.5t88.5 26.5t36.5 86.5v355l-95 -26q12 -34 12 -70q0 -58 -37.5 -94.5t-116.5 -36.5t-116 38t-37 103v52h124v-46q0 -41 29 -41q30 0 30 41q0 27 -9 60
t-18 53l-9 19z" />
    <glyph glyph-name="uni1CA0" unicode="&#x1ca0;" horiz-adv-x="945" 
d="M60 207v106q0 198 114 287.5t390 89.5h243v-118h-243q-347 0 -376 -159q46 42 118 42q122 0 174 -97q23 43 73.5 70t122.5 27q64 0 110 -20.5t69.5 -56.5t34 -76t10.5 -88v-7q0 -91 -19 -207h-136q15 154 15 207v7q0 62 -28.5 92.5t-76.5 30.5t-76.5 -30.5t-28.5 -92.5
v-100h-140v100q0 62 -28.5 92.5t-76.5 30.5t-76.5 -30.5t-28.5 -92.5v-7q0 -53 15 -207h-136q-19 116 -19 207z" />
    <glyph glyph-name="uni1CA1" unicode="&#x1ca1;" horiz-adv-x="630" 
d="M460 238q0 28 -20 89.5t-20 96.5v18h140v-18q0 -21 20 -83.5t20 -102.5v-16q0 -96 -69 -163.5t-196 -67.5t-196 67.5t-69 163.5v468h140v-468q0 -60 36.5 -86.5t88.5 -26.5t88.5 26.5t36.5 86.5v16z" />
    <glyph glyph-name="uni1CA2" unicode="&#x1ca2;" horiz-adv-x="750" 
d="M70 228v462h140v-458q0 -65 44.5 -94t132.5 -29q90 0 134 27t44 92v12q0 57 -34.5 81.5t-84.5 24.5h-18v-66h-140v267q0 64 42 108t147 44q109 0 152.5 -44.5t43.5 -120.5q0 -85 -79 -119q111 -46 111 -173v-18q0 -102 -77 -167.5t-241 -65.5t-240.5 65.5t-76.5 171.5z
M428 465h44q61 0 61 63q0 27 -14.5 40t-37.5 13q-53 0 -53 -47v-69z" />
    <glyph glyph-name="uni1CA3" unicode="&#x1ca3;" horiz-adv-x="644" 
d="M389 699q51 0 86.5 -13.5t54.5 -33t29 -53.5t12.5 -61.5t2.5 -69.5v-246q0 -96 -69 -163.5t-196 -67.5t-196 67.5t-69 163.5l3 49h137v-49q0 -60 36.5 -86.5t88.5 -26.5t88.5 26.5t36.5 86.5v246q0 64 -14 88.5t-49 24.5q-33 0 -48 -22t-15 -68v-82h-140v92
q0 53 -11.5 70t-41.5 17q-10 0 -28.5 -1.5t-33.5 -1.5t-28 3v108q12 -2 30 -2t40.5 1t32.5 1q97 0 120 -70q38 73 141 73z" />
    <glyph glyph-name="uni1CA4" unicode="&#x1ca4;" horiz-adv-x="866" 
d="M701 377q63 -15 91.5 -58t28.5 -115q0 -95 -74.5 -154t-245.5 -59q-314 0 -314 218l2 21h139v-17q0 -56 43 -80t130 -24q90 0 135.5 23.5t45.5 80.5q0 56 -31.5 77t-94.5 21h-22v118h22q59 0 92.5 16t33.5 59q0 37 -23.5 57t-67.5 20t-69 -21.5t-25 -62.5v-7
q0 -39 -11.5 -73.5t-37 -66.5t-74 -50.5t-114.5 -18.5t-114 17.5t-73 47.5t-36.5 63.5t-11.5 72.5v16q0 84 54.5 142.5t176.5 58.5q133 0 179 -83q46 83 179 83q207 0 207 -176q0 -109 -120 -146zM357 487v6q0 88 -96 88q-97 0 -97 -88v-6q0 -88 97 -88q96 0 96 88z" />
    <glyph glyph-name="uni1CA5" unicode="&#x1ca5;" horiz-adv-x="645" 
d="M575 690v-468q0 -96 -69 -163.5t-196 -67.5t-196 67.5t-69 163.5l3 49h137v-49q0 -60 36.5 -86.5t88.5 -26.5t88.5 26.5t36.5 86.5v178q0 62 -37.5 94.5t-91.5 32.5q-111 0 -111 -93v-8h-140v8q0 92 56 151.5t172 59.5q48 0 89 -13.5t63 -35.5v94h140z" />
    <glyph glyph-name="uni1CA6" unicode="&#x1ca6;" horiz-adv-x="909" 
d="M638 699q64 0 109.5 -21t68.5 -57.5t33 -74.5t10 -81q0 -67 -9 -173h-136q5 92 5 173q0 116 -95 116q-56 0 -75 -32.5t-19 -83.5v-124h-140v124q0 44 -21 80t-74 36t-74 -36t-21 -80v-112q0 -114 70 -174.5t202 -60.5h253v-118h-253q-197 0 -304.5 93.5t-107.5 259.5v112
q0 32 5 62t20 62t38.5 55.5t64 39t93.5 15.5q65 0 111 -24t65 -63q23 40 69.5 63.5t111.5 23.5z" />
    <glyph glyph-name="uni1CA7" unicode="&#x1ca7;" horiz-adv-x="645" 
d="M435 690h140v-468q0 -96 -69 -163.5t-196 -67.5t-196 65.5t-69 157.5l1 16h139v-16q0 -52 37 -78.5t88 -26.5q52 0 88.5 26.5t36.5 86.5v126q-46 -49 -147 -49q-82 0 -139 34t-80.5 84.5t-23.5 112.5q0 60 15 160h136q-11 -106 -11 -160q0 -60 34.5 -86.5t84.5 -26.5
q57 0 94 26.5t37 86.5v160z" />
    <glyph glyph-name="uni1CA8" unicode="&#x1ca8;" horiz-adv-x="645" 
d="M575 497v-275q0 -96 -69 -163.5t-196 -67.5t-196 67.5t-69 163.5v10q0 98 60.5 164.5t181.5 66.5q101 0 147 -49v99q0 68 -54 68q-53 0 -53 -55v-12h-140v13q0 38 -16.5 49.5t-49.5 11.5q-13 0 -27.5 -2t-23.5 -4l-8 -1v108q33 10 80 10q88 0 114 -79q34 79 133 79
q109 0 147.5 -51.5t38.5 -150.5zM435 222v10q0 60 -37.5 86.5t-93.5 26.5q-50 0 -84.5 -26.5t-34.5 -86.5v-10q0 -60 36.5 -86.5t88.5 -26.5t88.5 26.5t36.5 86.5z" />
    <glyph glyph-name="uni1CA9" unicode="&#x1ca9;" horiz-adv-x="645" 
d="M70 0v468q0 97 65.5 164t191.5 67q129 0 193 -51t64 -140q0 -76 -63 -133q79 -63 79 -181q0 -74 -18 -194h-136q14 134 14 194t-34.5 86.5t-84.5 26.5q-57 0 -94 -26.5t-37 -86.5v-194h-140zM210 376q46 49 147 49q35 0 63 -6q24 34 24 78q0 84 -117 84q-51 0 -84 -26.5
t-33 -86.5v-92z" />
    <glyph glyph-name="uni1CAA" unicode="&#x1caa;" horiz-adv-x="645" 
d="M480 398q120 -35 120 -164v-12q0 -96 -69 -163.5t-196 -67.5t-196 67.5t-69 163.5v468h140v-468q0 -60 36.5 -86.5t88.5 -26.5t88.5 26.5t36.5 86.5v18q0 50 -30.5 73.5t-78.5 23.5h-20v118h20q47 0 70 13t23 47q0 28 -28 73t-28 84v18h140v-16q0 -16 14 -36.5t28 -50.5
t14 -68q0 -43 -25 -77t-79 -44z" />
    <glyph glyph-name="uni1CAB" unicode="&#x1cab;" horiz-adv-x="645" 
d="M574 690l1 -468q0 -96 -69 -163.5t-196 -67.5t-196 67.5t-69 163.5v10q0 98 60.5 164.5t181.5 66.5q101 0 147 -49v276h140zM435 222v10q0 60 -37.5 86.5t-93.5 26.5q-50 0 -84.5 -26.5t-34.5 -86.5v-10q0 -60 36.5 -86.5t88.5 -26.5t88.5 26.5t36.5 86.5z" />
    <glyph glyph-name="uni1CAC" unicode="&#x1cac;" horiz-adv-x="645" 
d="M70 497q0 48 7 81.5t26 62.5t57 43.5t95 14.5q99 0 133 -79q26 79 114 79q21 0 41 -2.5t29 -4.5l10 -3v-108q-30 7 -59 7q-33 0 -49 -11.5t-16 -49.5v-13h-140v12q0 55 -54 55t-54 -68v-99q46 49 147 49q82 0 139 -34t80.5 -84.5t23.5 -112.5v-10q0 -96 -69 -163.5
t-196 -67.5t-196 67.5t-69 163.5v275zM210 232v-10q0 -60 36.5 -86.5t88.5 -26.5t88.5 26.5t36.5 86.5v10q0 60 -34.5 86.5t-84.5 26.5q-57 0 -94 -26.5t-37 -86.5z" />
    <glyph glyph-name="uni1CAD" unicode="&#x1cad;" horiz-adv-x="620" 
d="M490 358q85 -49 85 -151v-4q0 -87 -69 -150t-196 -63t-196 67.5t-69 163.5l3 49h137v-49q0 -60 36.5 -86.5t88.5 -26.5q50 0 87.5 24.5t37.5 70.5v4q0 32 -20.5 53.5t-57.5 40.5q-38 19 -51 33t-13 32v3q-31 -18 -73 -18q-79 0 -123 38t-44 105q0 136 200 136h40v59h140
v-59h100v-118h-100v-87q0 -26 8.5 -35t48.5 -32zM293 474v48h-31q-37 0 -53 -5.5t-16 -26.5q0 -31 47 -31q23 0 53 15z" />
    <glyph glyph-name="uni1CAE" unicode="&#x1cae;" horiz-adv-x="645" 
d="M70 690h140v-276q46 49 147 49q82 0 139 -34t80.5 -84.5t23.5 -112.5v-10q0 -96 -69 -163.5t-196 -67.5t-196 67.5t-69 163.5v468zM210 232v-10q0 -60 36.5 -86.5t88.5 -26.5t88.5 26.5t36.5 86.5v10q0 60 -34.5 86.5t-84.5 26.5q-57 0 -94 -26.5t-37 -86.5z" />
    <glyph glyph-name="uni1CAF" unicode="&#x1caf;" horiz-adv-x="620" 
d="M380 434q98 -14 146.5 -69.5t48.5 -137.5v-25q0 -93 -68 -152t-197 -59q-127 0 -196 67.5t-69 163.5l3 49h137v-49q0 -60 36.5 -86.5t88.5 -26.5t88.5 23.5t36.5 75.5v13q0 99 -125 99h-70v158h-162v118h162v94h140v-94h152v-118h-152v-44z" />
    <glyph glyph-name="uni1CB0" unicode="&#x1cb0;" horiz-adv-x="645" 
d="M454 257q121 -19 121 -114q0 -152 -265 -152q-127 0 -196 67.5t-69 163.5l3 49h137v-49q0 -113 139 -113q111 0 111 45q0 24 -20.5 33t-70.5 9h-68v116h68q37 0 54 7t17 25q0 33 -72 33h-67v110h83q34 0 34 13q0 5 -10 9t-39 13q-25 7 -41 12q-91 28 -123 55.5t-32 86.5
v14h140v-12q0 -23 87 -48q92 -28 125 -51.5t33 -70.5q0 -58 -79 -76q55 -11 78 -32t23 -56q0 -73 -101 -87z" />
    <glyph glyph-name="uni1E9E" unicode="&#x1e9e;" horiz-adv-x="607" 
d="M541 642l-99 -179q53 -12 76 -42t23 -85v-196q0 -85 -34 -113q-33 -27 -114 -27h-91v118h50q27 0 38 13t11 43v132q0 33 -11 46t-38 13h-50v90l67 116q-27 10 -63 10q-51 0 -74.5 -23.5t-23.5 -77.5v-480h-140v488q0 103 59.5 157t178.5 54q73 0 137 -19q70 -21 98 -38z
" />
    <glyph glyph-name="uni2000" unicode="&#x2000;" horiz-adv-x="505" 
 />
    <glyph glyph-name="uni2001" unicode="&#x2001;" horiz-adv-x="1010" 
 />
    <glyph glyph-name="uni2002" unicode="&#x2002;" horiz-adv-x="505" 
 />
    <glyph glyph-name="uni2003" unicode="&#x2003;" horiz-adv-x="1010" 
 />
    <glyph glyph-name="uni2004" unicode="&#x2004;" horiz-adv-x="336" 
 />
    <glyph glyph-name="uni2005" unicode="&#x2005;" horiz-adv-x="252" 
 />
    <glyph glyph-name="uni2006" unicode="&#x2006;" horiz-adv-x="168" 
 />
    <glyph glyph-name="uni2007" unicode="&#x2007;" horiz-adv-x="168" 
 />
    <glyph glyph-name="uni2008" unicode="&#x2008;" horiz-adv-x="126" 
 />
    <glyph glyph-name="uni2009" unicode="&#x2009;" horiz-adv-x="202" 
 />
    <glyph glyph-name="uni200A" unicode="&#x200a;" horiz-adv-x="56" 
 />
    <glyph glyph-name="uni2010" unicode="&#x2010;" horiz-adv-x="319" 
d="M289 233h-259v112h259v-112z" />
    <glyph glyph-name="uni2011" unicode="&#x2011;" horiz-adv-x="319" 
d="M289 233h-259v112h259v-112z" />
    <glyph glyph-name="figuredash" unicode="&#x2012;" horiz-adv-x="540" 
d="M476 287h-412v124h412v-124z" />
    <glyph glyph-name="endash" unicode="&#x2013;" horiz-adv-x="509" 
d="M449 227h-389v124h389v-124z" />
    <glyph glyph-name="emdash" unicode="&#x2014;" horiz-adv-x="706" 
d="M686 227h-666v124h666v-124z" />
    <glyph glyph-name="quoteleft" unicode="&#x2018;" horiz-adv-x="243" 
d="M183 534h-137v162l137 117v-279z" />
    <glyph glyph-name="quoteright" unicode="&#x2019;" horiz-adv-x="249" 
d="M46 706h134v-165l-134 -114v279z" />
    <glyph glyph-name="quotesinglbase" unicode="&#x201a;" horiz-adv-x="256" 
d="M60 136h136v-162l-136 -117v279z" />
    <glyph glyph-name="quotedblleft" unicode="&#x201c;" horiz-adv-x="386" 
d="M156 534h-137v162l137 117v-279zM335 534h-136v162l136 117v-279z" />
    <glyph glyph-name="quotedblright" unicode="&#x201d;" horiz-adv-x="386" 
d="M19 706h137v-162l-137 -117v279zM199 706h136v-162l-136 -117v279z" />
    <glyph glyph-name="quotedblbase" unicode="&#x201e;" horiz-adv-x="427" 
d="M60 136h136v-162l-136 -117v279zM239 136h137v-162l-137 -117v279z" />
    <glyph glyph-name="dagger" unicode="&#x2020;" horiz-adv-x="580" 
d="M33 381v119h187v190h140v-190h186v-119h-186v-571h-140v571h-187z" />
    <glyph glyph-name="daggerdbl" unicode="&#x2021;" horiz-adv-x="580" 
d="M33 381v119h187v190h140v-190h186v-119h-186v-263h186v-118h-186v-190h-140v190h-187v118h187v263h-187z" />
    <glyph glyph-name="bullet" unicode="&#x2022;" horiz-adv-x="296" 
d="M231 259q-31 -31 -69 -35t-67 15t-48 48t-15 67t35 69t69 35t67 -15t48 -48t15 -67t-35 -69z" />
    <glyph glyph-name="ellipsis" unicode="&#x2026;" horiz-adv-x="882" 
d="M60 156h156v-156h-156v156zM363 156h156v-156h-156v156zM666 156h156v-156h-156v156z" />
    <glyph glyph-name="uni202F" unicode="&#x202f;" horiz-adv-x="202" 
 />
    <glyph glyph-name="perthousand" unicode="&#x2030;" horiz-adv-x="1112" 
d="M739 200v-59q0 -150 -151 -150q-73 0 -111.5 38.5t-38.5 111.5v59q0 72 39 110t111 38q151 0 151 -148zM588 78q48 0 48 63v56q0 63 -48 63q-46 0 -46 -63v-56q0 -63 46 -63zM323 551v-59q0 -150 -152 -150q-73 0 -111 38.5t-38 111.5v59q0 72 38.5 110t110.5 38
q152 0 152 -148zM172 429q48 0 48 63v56q0 63 -48 63q-46 0 -46 -63v-56q0 -63 46 -63zM1077 200v-59q0 -150 -152 -150q-73 0 -111.5 38.5t-38.5 111.5v59q0 72 39 110t111 38q152 0 152 -148zM926 78q47 0 47 63v56q0 63 -47 63q-46 0 -46 -63v-56q0 -63 46 -63zM124 0
l386 690h123l-385 -690h-124z" />
    <glyph glyph-name="guilsinglleft" unicode="&#x2039;" horiz-adv-x="330" 
d="M262 52l-232 231l232 231v-143l-90 -88l90 -89v-142z" />
    <glyph glyph-name="guilsinglright" unicode="&#x203a;" horiz-adv-x="330" 
d="M58 371v143l232 -231l-232 -231v142l89 89z" />
    <glyph glyph-name="fraction" unicode="&#x2044;" horiz-adv-x="566" 
d="M10 0l475 690h127l-474 -690h-128z" />
    <glyph glyph-name="uni205F" unicode="&#x205f;" horiz-adv-x="252" 
 />
    <glyph glyph-name="uni2074" unicode="&#x2074;" horiz-adv-x="349" 
d="M18 485l131 205h102l-123 -198h51v45h88v-45h39v-71h-39v-47h-88v47h-161v64z" />
    <glyph glyph-name="Euro" unicode="&#x20ac;" horiz-adv-x="540" 
d="M10 204v112h68v51h-68v112h73q28 220 227 220q194 0 216 -223h-134q-6 55 -25 80t-57 25q-40 0 -60.5 -23t-27.5 -79h111v-112h-115v-51h115v-112h-110q10 -64 48 -88t75.5 3.5t45.5 94.5h133q-11 -116 -62.5 -169.5t-152.5 -53.5q-194 0 -226 213h-74z" />
    <glyph glyph-name="uni20B4" unicode="&#x20b4;" horiz-adv-x="540" 
d="M52 219h-45v106h526v-106h-338q-6 -15 -6 -33q0 -36 25 -56.5t71 -20.5q36 0 61.5 15t56.5 54l106 -74q-50 -63 -101 -88q-49 -25 -134 -25q-104 0 -164.5 53.5t-60.5 140.5q0 17 3 34zM533 366h-526v106h336q8 19 8 33q0 36 -21.5 56t-62.5 20q-33 0 -57.5 -16
t-49.5 -53l-104 74q75 113 212 113q106 0 165 -50.5t58 -135.5q0 -23 -6 -41h48v-106z" />
    <glyph glyph-name="uni20B8" unicode="&#x20b8;" horiz-adv-x="540" 
d="M14 571v119h513v-119h-513zM14 405v119h513v-119h-187v-405h-140v405h-186z" />
    <glyph glyph-name="uni20BD" unicode="&#x20bd;" horiz-adv-x="540" 
d="M93 243h-84v118h84v329h192q124 0 191 -57t67 -164t-68.5 -166.5t-189.5 -59.5h-52v-39h115v-118h-115v-86h-140v86h-84v118h84v39zM233 571v-210h32q72 0 105 26t33 82q0 102 -138 102h-32z" />
    <glyph glyph-name="uni20BE" unicode="&#x20be;" horiz-adv-x="763" 
d="M30 385q0 116 54.5 191t158.5 105v131h104v-114q13 1 41 1l28 -1v114h104v-129q104 -28 158.5 -98.5t54.5 -168.5q0 -37 -3.5 -68t-7.5 -44l-4 -12h-136q11 26 11 102q0 115 -73 158v-213h-104v241q-9 1 -28 1q-15 0 -41 -2v-240h-104v208q-73 -47 -73 -162
q0 -77 22 -130t63.5 -82.5t94 -42t121.5 -12.5h225v-118h-625v118h66q-107 82 -107 267z" />
    <glyph glyph-name="uni2116" unicode="&#x2116;" horiz-adv-x="946" 
d="M927 537v-47q0 -77 -40 -120t-113 -43q-72 0 -112.5 43.5t-40.5 119.5v47q0 77 40 119.5t113 42.5t113 -42.5t40 -119.5zM774 426q45 0 45 68v39q0 67 -45 67q-46 0 -46 -67v-39q0 -68 46 -68zM444 257v433h133v-690h-117l-269 427v-427h-133v690h116zM904 166h-259v119
h259v-119z" />
    <glyph glyph-name="trademark" unicode="&#x2122;" horiz-adv-x="910" 
d="M24 590v100h351v-100h-119v-317h-112v317h-120zM406 690h105l123 -215l123 215h106v-417h-112v195l-77 -131h-85l-72 131v-195h-111v417z" />
    <glyph glyph-name="arrowleft" unicode="&#x2190;" horiz-adv-x="875" 
d="M209 222l314 -314h-110l-353 353l353 353h110l-314 -314h606v-78h-606z" />
    <glyph glyph-name="arrowup" unicode="&#x2191;" horiz-adv-x="826" 
d="M413 639l353 -353v-110l-314 314v-606h-78v606l-314 -314v110z" />
    <glyph glyph-name="arrowright" unicode="&#x2192;" horiz-adv-x="875" 
d="M815 261l-353 -353h-110l314 314h-606v78h606l-314 314h110z" />
    <glyph glyph-name="arrowdown" unicode="&#x2193;" horiz-adv-x="826" 
d="M413 -117l-353 353v110l314 -314v606h78v-606l314 314v-110z" />
    <glyph glyph-name="uni2196" unicode="&#x2196;" horiz-adv-x="698" 
d="M137 367v-445l-77 78v500h500l78 -77h-445l428 -429l-55 -55z" />
    <glyph glyph-name="uni2197" unicode="&#x2197;" horiz-adv-x="698" 
d="M638 500v-500l-77 -78v445l-429 -428l-55 55l428 429h-445l78 77h500z" />
    <glyph glyph-name="uni2198" unicode="&#x2198;" horiz-adv-x="698" 
d="M561 133v445l77 -78v-500h-500l-78 77h445l-428 429l55 55z" />
    <glyph glyph-name="uni2199" unicode="&#x2199;" horiz-adv-x="698" 
d="M60 0v500l77 78v-445l429 428l55 -55l-428 -429h445l-78 -77h-500z" />
    <glyph glyph-name="uni21A3" unicode="&#x21a3;" horiz-adv-x="1375" 
d="M40 405l60 59l183 -183l-183 -183l-60 59l124 124zM203 405l61 59l124 -124h768l-64 65l60 59l183 -183l-183 -183l-60 59l64 65h-768l-124 -124l-61 59l124 124z" />
    <glyph glyph-name="partialdiff" unicode="&#x2202;" horiz-adv-x="503" 
d="M465 460v-239q0 -110 -55 -170t-161 -60q-104 0 -160 60t-56 170v60q0 110 54.5 169t153.5 59q57 0 97 -24q-5 107 -100 107q-50 0 -106 -35l-58 79q68 63 177 63q214 0 214 -239zM249 99q89 0 89 126v52q0 124 -89 124t-89 -124v-52q0 -64 21 -95t68 -31z" />
    <glyph glyph-name="product" unicode="&#x220f;" horiz-adv-x="638" 
d="M58 -190v880h522v-880h-140v761h-242v-761h-140z" />
    <glyph glyph-name="summation" unicode="&#x2211;" horiz-adv-x="519" 
d="M30 690h469v-118h-291l176 -268v-110l-176 -266h291v-118h-469v103l225 337l-225 337v103z" />
    <glyph glyph-name="minus" unicode="&#x2212;" horiz-adv-x="506" 
d="M447 298h-389v112h389v-112z" />
    <glyph glyph-name="uni2215" unicode="&#x2215;" horiz-adv-x="485" 
d="M498 812l-336 -928h-115l336 928h115z" />
    <glyph glyph-name="radical" unicode="&#x221a;" horiz-adv-x="697" 
d="M7 381v119h214l126 -302l106 492h298v-119h-184l-142 -571h-132l-177 381h-109z" />
    <glyph glyph-name="infinity" unicode="&#x221e;" horiz-adv-x="802" 
d="M400 266q-90 -107 -191 -107q-77 0 -127 53q-49 52 -49 130t50.5 130.5t129.5 52.5q106 0 193 -105q47 55 90 80t96 25q75 0 125.5 -52.5t50.5 -130.5t-49 -130q-48 -53 -121 -53q-108 0 -198 107zM588 272q45 0 62 34.5t-2.5 69t-63.5 34.5q-20 0 -39 -10
q-27 -14 -66 -57q65 -71 109 -71zM216 272q28 0 52.5 16t59.5 54q-62 68 -112 68q-44 0 -62.5 -34.5t0 -69t62.5 -34.5z" />
    <glyph glyph-name="integral" unicode="&#x222b;" horiz-adv-x="309" 
d="M213 507v-534q0 -94 -40 -128q-41 -35 -134 -35h-37v114h24q33 0 45 14.5t12 53.5v535q0 94 40 128q41 35 134 35h37v-114h-23q-33 0 -45.5 -15t-12.5 -54z" />
    <glyph glyph-name="approxequal" unicode="&#x2248;" horiz-adv-x="500" 
d="M416 485l45 -93q-50 -53 -113 -53q-35 0 -102 26q-63 27 -91 27q-32 0 -70 -29l-46 95q53 53 113 53q36 0 102 -27q69 -26 95 -26q34 0 67 27zM416 311l45 -92q-50 -53 -113 -53q-35 0 -102 26q-63 27 -91 27q-32 0 -70 -29l-46 95q53 53 113 53q36 0 102 -27
q69 -26 95 -26q35 0 67 26z" />
    <glyph glyph-name="notequal" unicode="&#x2260;" horiz-adv-x="500" 
d="M209 359h-154v120h206l68 156l100 -40l-51 -116h66v-120h-118l-25 -58h143v-119h-195l-64 -148l-100 40l47 108h-77v119h129z" />
    <glyph glyph-name="lessequal" unicode="&#x2264;" horiz-adv-x="385" 
d="M315 170l-232 231l232 231v-143l-90 -88l90 -89v-142zM315 -36l-232 231v141l232 -229v-143z" />
    <glyph glyph-name="greaterequal" unicode="&#x2265;" horiz-adv-x="385" 
d="M83 489v143l232 -231l-232 -231v142l89 89zM83 107l232 229v-141l-232 -231v143z" />
    <glyph glyph-name="uni231A" unicode="&#x231a;" horiz-adv-x="666" 
d="M446 -205h-261v235q-60 36 -92.5 96.5t-32.5 123.5t32.5 123.5t92.5 95.5v235h261v-234q103 -64 122 -180h38v-80h-38q-20 -119 -122 -180v-235zM316 460q-87 0 -149 -62t-62 -148q0 -87 62 -149t149 -62q86 0 148 62t62 149q0 86 -62 148t-148 62zM488 337l-6 -19
l-166 -93l-133 75l-6 20l20 5l119 -70l153 87z" />
    <glyph glyph-name="uni23F2" unicode="&#x23f2;" horiz-adv-x="1072" 
d="M536 -134q-198 0 -337 139t-139 337q0 197 139 336q140 140 337 140q128 0 238 -64t174 -174t64 -238q0 -197 -140 -337q-139 -139 -336 -139zM237 640q-123 -123 -123 -298q0 -174 123 -299q124 -123 299 -123t298 123q123 125 123 299q0 175 -123 298t-298 123
t-299 -123zM559 607h-46v126h46v-126zM881 544l-10 -36l-335 -192l-248 142l-10 35l36 10l222 -129l309 179zM145 318v46h126v-46h-126zM802 318v46h126v-46h-126zM559 -50h-46v126h46v-126z" />
    <glyph glyph-name="uni2550" unicode="&#x2550;" horiz-adv-x="2158" 
d="M0 417h2158v-119h-2158v119zM0 255h2158v-119h-2158v119z" />
    <glyph glyph-name="lozenge" unicode="&#x25ca;" horiz-adv-x="564" 
d="M23 296l192 291h136l190 -291l-190 -296h-136zM393 296l-111 180l-112 -180l112 -186z" />
    <glyph glyph-name="uni25FC" unicode="&#x25fc;" horiz-adv-x="500" 
d="M0 500h500v-500h-500v500z" />
    <glyph glyph-name="uni261D" unicode="&#x261d;" horiz-adv-x="705" 
d="M645 249v-277h-370l-215 292q9 9 29 19q63 30 115 -25l71 -74v450q0 61 50 61t50 -58v-229h36q29 0 41.5 -13t12.5 -41h36q29 0 41.5 -13t12.5 -41h34q30 0 43 -12t13 -39zM584 -142q-11 11 -25.5 6.5t-19 -18t5.5 -28.5q12 -12 26 -7.5t18 18.5t-5 29zM645 -243h-370
v161h370v-161z" />
    <glyph glyph-name="uni261E" unicode="&#x261e;" horiz-adv-x="1061" 
d="M555 51h-277v370l292 215q8 -8 19 -30q31 -61 -25 -114l-74 -71h450q61 0 61 -50t-58 -50h-229v-36q0 -29 -13 -41.5t-41 -12.5v-36q0 -29 -13 -41.5t-41 -12.5v-34q0 -30 -12 -43t-39 -13zM161 111q19 19 1 38.5t-40 1.5q-19 -19 -0.5 -37.5t39.5 -2.5zM60 51v370h164
v-370h-164z" />
    <glyph glyph-name="uni26F3" unicode="&#x26f3;" horiz-adv-x="674" 
d="M60 513q0 115 81 196t196 81t196 -81t81 -196q0 -86 -82 -216l-195 -307l-197 309q-80 128 -80 214zM258 591q-32 -32 -32 -78t32 -78q35 -32 79 -32q51 0 80.5 34.5t29.5 75.5t-29.5 75.5t-80.5 34.5q-44 0 -79 -32z" />
    <glyph glyph-name="uni2709" unicode="&#x2709;" horiz-adv-x="1236" 
d="M60 518v60h1116v-60l-558 -334zM60 37v444l338 -201zM1176 37l-338 243l338 201v-444zM810 263l366 -263h-1116l366 263l192 -114z" />
    <glyph glyph-name="uniF040" unicode="&#xf040;" horiz-adv-x="3054" 
d="M1286 222h-1286v118h1288l129 129l61 -60l-130 -129l130 -130l-61 -59zM1576 409l61 60l129 -129h1288v-118h-1286l-131 -131l-61 59l130 130z" />
    <glyph glyph-name="uniF041" unicode="&#xf041;" horiz-adv-x="2855" 
d="M1315 340l58 100l79 -46l-156 -271l-80 45l31 54h-1247v118h1315zM1403 168l156 272l80 -46l-31 -54h1247v-118h-1316l-57 -99z" />
    <glyph glyph-name="uniF042" unicode="&#xf042;" horiz-adv-x="2825" 
d="M0 340h1268v-118h-1268v118zM2825 222h-1388v118h1388v-118z" />
    <glyph glyph-name="uniF043" unicode="&#xf043;" horiz-adv-x="705" 
d="M275 -28l-215 292l8 6q21 24 62 23t74 -35l71 -74v450q0 61 50 61t50 -58v-229h36q29 0 41.5 -13t12.5 -41h36q29 0 41.5 -13t12.5 -41h34q30 0 43 -12t13 -39v-277h-370zM545 -142q-19 -19 0 -39t39 -1q19 19 0 38t-39 2zM352 725h-55v158h55v-158zM83 605v55h158v-55
h-158zM409 605v55h158v-55h-158zM275 -82h370v-161h-370v161z" />
    <glyph glyph-name="uniF044" unicode="&#xf044;" horiz-adv-x="931" 
d="M177 126l3 10q10 33 41 53.5t79 11.5l201 -45v478q0 61 50 61t50 -58v-229h36q29 0 41.5 -13t12.5 -41h36q29 0 41.5 -13t12.5 -41h34q30 0 43 -12t13 -39v-277h-370zM771 -142q-19 -19 0 -39t39 -1q19 19 0 38t-39 2zM553 759v55h158v-158h-55v103h-103zM218 70v-55
h-158v158h55v-103h103zM501 -82h370v-161h-370v161z" />
    <glyph glyph-name="uniF045" unicode="&#xf045;" horiz-adv-x="903" 
d="M370 665h503v-55h-498v-202h36q29 0 41.5 -13t12.5 -41h36q29 0 41.5 -13t12.5 -41h34q30 0 43 -12t13 -39v-277h-370l-215 292q9 9 29 19q63 30 115 -25l71 -74v450q0 61 50 61q35 0 45 -30zM584 -142q-11 11 -25.5 6.5t-19 -18t5.5 -28.5q12 -12 26 -7.5t18 18.5t-5 29
zM199 525l-112 112l112 112l39 -39l-73 -73l73 -73zM645 -243h-370v161h370v-161z" />
    <glyph glyph-name="uniF046" unicode="&#xf046;" horiz-adv-x="952" 
d="M892 249v-277h-370l-215 292q9 9 29 19q63 30 115 -25l71 -74v426h-492v55h497q11 30 45 30q50 0 50 -58v-229h36q54 0 54 -54h36q54 0 54 -54h34q30 0 43 -12t13 -39zM831 -142q-11 11 -25.5 6.5t-19 -18t5.5 -28.5q12 -12 26 -7.5t18 18.5t-5 29zM704 749l112 -112
l-112 -112l-39 39l73 73l-73 73zM892 -243h-370v161h370v-161z" />
    <glyph glyph-name="uniF047" unicode="&#xf047;" horiz-adv-x="1010" 
d="M872 514l-6 -4v-634h-55v603l-137 -79l17 -31q27 -48 -19 -73l18 -32q27 -46 -20 -73l17 -30q29 -49 -17 -74l-239 -139l-185 321l145 332l5 -2q28 -11 48 -34q32 -36 14 -92l-29 -99l391 226q53 29 78 -13q25 -43 -26 -73zM295 -27q-11 11 -25.5 6.5t-19 -18t5.5 -28.5
q12 -12 26 -7.5t18 18.5t-5 29zM765 651l-39 39l112 112l112 -112l-39 -39l-73 73zM245 -159l-185 321l140 81l184 -321z" />
    <glyph glyph-name="uniF048" unicode="&#xf048;" horiz-adv-x="1145" 
d="M485 0l-240 137l186 321l360 40q3 -15 1 -35q-4 -69 -78 -87l-100 -24l332 -192v603h55v-635l4 -2q51 -30 27 -74q-25 -43 -76 -14l-198 115l-18 -30q-28 -48 -73 -21l-18 -31q-27 -46 -74 -19l-17 -30q-29 -47 -73 -22zM152 254q12 -12 27 -7t18.5 18.5t-6.5 27.5
q-11 12 -25.5 7.5t-18.5 -18t5 -28.5zM60 245l185 320l140 -80l-186 -320zM1085 -51l-112 -112l-112 112l39 39l73 -73l73 73z" />
    <glyph glyph-name="uniF400" unicode="&#xf400;" horiz-adv-x="0" 
d="M-192 567h-122l70 158h143z" />
    <glyph glyph-name="uniF401" unicode="&#xf401;" horiz-adv-x="0" 
d="M-254 742h-124l80 129h147z" />
    <glyph glyph-name="uniF406" unicode="&#xf406;" horiz-adv-x="519" 
d="M338 879h112q0 -42 -21 -75t-55 -50.5t-74.5 -25.5t-81 0t-74.5 25.5t-55 50.5t-21 75h111q11 -54 80 -54t79 54z" />
    <glyph glyph-name="uniF407" unicode="&#xf407;" horiz-adv-x="410" 
d="M145 -72l20 97l81 -3l-12 -44q53 -20 53 -72q0 -39 -32.5 -62.5t-86.5 -23.5q-33 0 -46 4l15 65q5 0 9.5 -0.5t6.5 -1t3 -0.5q33 0 33 21q0 20 -44 20z" />
    <glyph glyph-name="uniF408" unicode="&#xf408;" horiz-adv-x="519" 
d="M69 737l138 142h105l138 -142h-133l-58 61l-57 -61h-133z" />
    <glyph glyph-name="uniF409" unicode="&#xf409;" horiz-adv-x="397" 
d="M130 -51h137v-129l-137 -117v246z" />
    <glyph glyph-name="uniF40A" unicode="&#xf40a;" horiz-adv-x="205" 
d="M57 690h136v-150l-136 -116v266z" />
    <glyph glyph-name="uniF40B" unicode="&#xf40b;" horiz-adv-x="399" 
d="M270 759h-141v110h141v-110z" />
    <glyph glyph-name="uniF40C" unicode="&#xf40c;" horiz-adv-x="445" 
d="M106 800q0 45 32 72t83 27q52 0 84.5 -27t32.5 -72q0 -44 -32.5 -71t-84.5 -27q-51 0 -83 27t-32 71zM221 769q37 0 37 31t-37 31q-36 0 -36 -31t36 -31z" />
    <glyph glyph-name="uniF40D" unicode="&#xf40d;" horiz-adv-x="504" 
d="M313 738q-25 0 -65 14q-37 15 -53 15q-29 0 -52 -26l-68 69q49 60 118 60q25 0 62 -15q40 -14 55 -14q28 0 50 27l68 -69q-49 -61 -115 -61z" />
    <glyph glyph-name="uniF40E" unicode="&#xf40e;" horiz-adv-x="413" 
d="M235 48l34 -48q-26 -23 -34 -33.5t-11 -27.5q0 -22 27 -22q1 0 19 2l15 -65q-13 -4 -48 -4q-49 0 -79.5 20t-30.5 56q0 68 108 122z" />
    <glyph glyph-name="uni0410.var.accented" unicode="&#xf460;" horiz-adv-x="607" 
d="M368 742h-124l80 129h147zM188 131l-42 -131h-150l240 690h134l240 -690h-149l-42 131h-231zM381 249l-78 243l-78 -243h156z" />
    <glyph glyph-name="uni0415.var.accented" unicode="&#xf461;" horiz-adv-x="527" 
d="M325 742h-124l80 129h147zM68 0v690h430v-119h-290v-155h260v-118h-260v-180h290v-118h-430z" />
    <glyph glyph-name="uni0418.var.accented" unicode="&#xf462;" horiz-adv-x="676" 
d="M395 742h-124l80 129h147zM68 0v690h140v-433l288 433h112v-690h-140v428l-285 -428h-115z" />
    <glyph glyph-name="uni041E.var.accented" unicode="&#xf463;" horiz-adv-x="623" 
d="M576 394v-98q0 -149 -69 -227t-196 -78q-126 0 -195 78t-69 227v98q0 149 68.5 227t195.5 78t196 -78t69 -227zM187 394v-98q0 -187 124 -187q125 0 125 187v98q0 187 -125 187q-124 0 -124 -187zM361 742h-124l80 129h147z" />
    <glyph glyph-name="uni0423.var.accented" unicode="&#xf464;" horiz-adv-x="579" 
d="M311 346l124 344h144l-212 -550q-34 -87 -88 -118q-52 -31 -161 -31v122q57 0 83.5 10.5t42.5 40.5l-236 526h155zM357 742h-124l80 129h147z" />
    <glyph glyph-name="uni042B.var.accented" unicode="&#xf465;" horiz-adv-x="816" 
d="M68 0v690h140v-253h97q126 0 192 -57.5t66 -161.5q0 -103 -69.5 -160.5t-202.5 -57.5h-223zM297 319h-89v-201h89q126 0 126 100q0 101 -126 101zM448 742h-124l80 129h147zM608 690h140v-690h-140v690z" />
    <glyph glyph-name="uni042D.var.accented" unicode="&#xf466;" horiz-adv-x="594" 
d="M407 288h-208v118h208q-4 175 -125 175q-98 0 -118 -105h-134q17 110 81.5 166.5t170.5 56.5q127 0 196 -78t69 -227v-98q0 -149 -69 -227t-196 -78q-218 0 -252 223h134q11 -54 39.5 -79.5t78.5 -25.5q122 0 125 179zM333 742h-124l80 129h147z" />
    <glyph glyph-name="uni042E.var.accented" unicode="&#xf467;" horiz-adv-x="842" 
d="M795 384v-78q0 -315 -250 -315q-247 0 -250 307h-87v-298h-140v690h140v-274h87q13 283 250 283q250 0 250 -315zM435 378v-65q0 -108 25.5 -156t84.5 -48q60 0 85 47.5t25 156.5v65q0 108 -25 155.5t-85 47.5q-59 0 -84.5 -47.5t-25.5 -155.5zM394 742h-124l80 129h147z
" />
    <glyph glyph-name="uni042F.var.accented" unicode="&#xf468;" horiz-adv-x="614" 
d="M310 271l-143 -271h-154l160 289q-132 47 -132 192q0 101 68 155t193 54h244v-690h-140v271h-96zM312 389h94v182h-94q-69 0 -100 -21t-31 -69q0 -49 29.5 -70.5t101.5 -21.5zM373 742h-124l80 129h147z" />
    <glyph glyph-name="uni0401.var.accented" unicode="&#xf469;" horiz-adv-x="527" 
d="M341 881h-124l80 129h147zM243 752h-124v117h124v-117zM446 752h-124v117h124v-117zM68 0v690h430v-119h-290v-155h260v-118h-260v-180h290v-118h-430z" />
    <glyph glyph-name="uni0430.var.accented" unicode="&#xf46a;" 
d="M202 -9q-82 0 -129 41.5t-47 115.5q0 73 49.5 112.5t135.5 39.5h99v29q0 43 -18 58.5t-71 15.5q-40 0 -59.5 -8t-34.5 -32l-90 63q27 45 72.5 64t123.5 19q107 0 154.5 -41.5t47.5 -139.5v-328h-125v44q-32 -53 -108 -53zM310 187v19h-84q-75 0 -75 -56t73 -56
q45 0 65.5 21.5t20.5 71.5zM284 567h-122l70 158h143z" />
    <glyph glyph-name="uni0435.var.accented" unicode="&#xf46b;" 
d="M343 142l95 -66q-49 -85 -183 -85q-105 0 -163.5 61t-58.5 165v68q0 110 53 167t153 57q206 0 206 -234v-57h-285q2 -119 94 -119q35 0 54 9.5t35 33.5zM317 309q-5 92 -77 92t-80 -92h157zM301 567h-122l70 158h143z" />
    <glyph glyph-name="uni0438.var.accented" unicode="&#xf46c;" horiz-adv-x="532" 
d="M324 567h-122l70 158h143zM51 500h128v-273l191 273h110v-500h-127v283l-193 -283h-109v500z" />
    <glyph glyph-name="uni043E.var.accented" unicode="&#xf46d;" horiz-adv-x="499" 
d="M465 281v-60q0 -110 -55 -170t-161 -60q-104 0 -160 60t-56 170v60q0 111 55.5 169.5t160.5 58.5t160.5 -58t55.5 -170zM249 99q89 0 89 126v52q0 124 -89 124t-89 -124v-52q0 -64 21 -95t68 -31zM301 567h-122l70 158h143z" />
    <glyph glyph-name="uni0443.var.accented" unicode="&#xf46e;" horiz-adv-x="479" 
d="M192 -7l-187 507h134l111 -320l100 320h129l-175 -523q-34 -102 -79 -134q-45 -33 -150 -33v114q55 0 78.5 13.5t38.5 55.5zM307 567h-122l70 158h143z" />
    <glyph glyph-name="uni044B.var.accented" unicode="&#xf46f;" horiz-adv-x="661" 
d="M51 0v500h128v-172h53q211 0 211 -163q0 -80 -52 -122.5t-149 -42.5h-191zM223 220h-44v-112h56q71 0 71 57q0 55 -83 55zM373 567h-122l70 158h143zM482 0v500h127v-500h-127z" />
    <glyph glyph-name="uni044D.var.accented" unicode="&#xf470;" horiz-adv-x="451" 
d="M290 204h-156v99h156q-5 98 -96 98q-54 0 -83 -42l-95 67q63 83 173 83q113 0 171 -57.5t58 -166.5v-68q0 -108 -59.5 -167t-169.5 -59q-124 0 -176 85l93 66q30 -43 88 -43q94 0 96 105zM260 567h-122l70 158h143z" />
    <glyph glyph-name="uni044E.var.accented" unicode="&#xf471;" horiz-adv-x="691" 
d="M657 285v-68q0 -105 -54 -165.5t-150 -60.5q-92 0 -146 55t-58 155h-70v-201h-128v500h128v-190h71q6 96 59 147.5t144 51.5q97 0 150.5 -58t53.5 -166zM453 99q77 0 77 124v56q0 122 -77 122t-77 -122v-56q0 -64 18 -94t59 -30zM333 567h-122l70 158h143z" />
    <glyph glyph-name="uni044F.var.accented" unicode="&#xf472;" horiz-adv-x="500" 
d="M448 500v-500h-127v178h-63l-105 -178h-135l120 199q-94 40 -94 146q0 73 52 114t152 41h200zM262 284h59v108h-67q-73 0 -73 -53q0 -55 81 -55zM325 567h-122l70 158h143z" />
    <glyph glyph-name="uni0451.var.accented" unicode="&#xf473;" 
d="M343 142l95 -66q-49 -85 -183 -85q-105 0 -163.5 61t-58.5 165v68q0 110 53 167t153 57q206 0 206 -234v-57h-285q2 -119 94 -119q35 0 54 9.5t35 33.5zM317 309q-5 92 -77 92t-80 -92h157zM293 717h-122l70 158h143zM197 573h-124v117h124v-117zM400 573h-123v117h123
v-117z" />
    <glyph glyph-name="dollar.fitted" unicode="&#xf5f5;" horiz-adv-x="575" 
d="M532 586l-105 -75q-34 52 -83 64v-175q105 -28 150 -76t45 -132q0 -81 -49 -133.5t-138 -64.5v-110h-116v111q-131 15 -201 109l107 74q40 -52 101 -65v181q-96 28 -142.5 79t-46.5 132q0 78 47 128t135 62v117h116v-118q122 -18 180 -108zM399 186q0 50 -55 75v-146
q55 16 55 71zM194 505q0 -47 49 -72v140q-49 -16 -49 -68z" />
    <glyph glyph-name="Euro.fitted" unicode="&#xf5f6;" horiz-adv-x="639" 
d="M8 204v112h84v51h-84v112h90q18 108 84.5 164t173.5 56q106 0 171 -56.5t82 -166.5h-134q-21 105 -119 105q-94 0 -116 -102h148v-112h-156v-51h156v-112h-146q26 -95 114 -95q51 0 79 25t40 80h133q-33 -223 -252 -223q-105 0 -170.5 54t-85.5 159h-92z" />
    <glyph glyph-name="cent.fitted" unicode="&#xf5f7;" horiz-adv-x="446" 
d="M343 145l95 -66q-40 -69 -126 -82v-113h-114v115q-78 16 -121.5 74t-43.5 146v64q0 187 165 218v121h114v-120q85 -16 126 -79l-96 -67q-30 42 -82 42q-100 0 -100 -124v-46q0 -65 23 -95.5t77 -30.5q58 0 83 43z" />
    <glyph glyph-name="sterling.fitted" unicode="&#xf5f8;" horiz-adv-x="536" 
d="M497 0h-472v118h73v159h-73v119h73v31q0 272 219 272q136 0 203 -103l-115 -65q-38 50 -82 50q-43 0 -64 -36.5t-21 -117.5v-31h131v-119h-131v-159h259v-118z" />
    <glyph glyph-name="yen.fitted" unicode="&#xf5f9;" horiz-adv-x="596" 
d="M85 119v112h143v51h-143v112h84l-156 296h162l123 -257l124 257h161l-156 -296h85v-112h-144v-51h144v-112h-144v-119h-140v119h-143z" />
    <glyph glyph-name="florin.fitted" unicode="&#xf5fa;" horiz-adv-x="324" 
d="M24 381v119h64v27q0 90 41 126.5t139 36.5h37v-119h-21q-33 0 -46 -15t-13 -51v-5h80v-119h-80v-408q0 -89 -47.5 -126t-156.5 -37v119q37 0 52 16t15 54v382h-64z" />
    <glyph glyph-name="uni20B4.fitted" unicode="&#xf5fb;" horiz-adv-x="596" 
d="M80 219h-45v106h526v-106h-338q-6 -15 -6 -33q0 -36 24.5 -56.5t71.5 -20.5q36 0 61.5 15t56.5 54l106 -74q-50 -63 -101 -88q-49 -25 -135 -25q-104 0 -164 53.5t-60 140.5q0 17 3 34zM561 366h-526v106h336q8 19 8 33q0 36 -22 56t-62 20q-33 0 -57.5 -16t-49.5 -53
l-104 74q74 113 211 113q106 0 165 -50.5t59 -135.5q0 -23 -6 -41h48v-106z" />
    <glyph glyph-name="uni20BD.fitted" unicode="&#xf5fc;" horiz-adv-x="540" 
d="M93 243h-84v118h84v329h192q124 0 191 -57t67 -164t-68.5 -166.5t-189.5 -59.5h-52v-39h115v-118h-115v-86h-140v86h-84v118h84v39zM233 571v-210h32q72 0 105 26t33 82q0 102 -138 102h-32z" />
    <glyph glyph-name="uni20B8.fitted" unicode="&#xf5fd;" horiz-adv-x="536" 
d="M8 571v119h520v-119h-520zM8 405v119h520v-119h-190v-405h-140v405h-190z" />
    <glyph glyph-name="currency.fitted" unicode="&#xf5fe;" horiz-adv-x="578" 
d="M90 366q0 49 22 92l-79 79l84 84l77 -78q45 24 95 24t94 -23l78 78l84 -84l-78 -78q23 -44 23 -94q0 -49 -24 -94l79 -78l-84 -84l-79 78q-43 -22 -93 -22t-94 23l-78 -78l-84 84l79 79q-22 40 -22 92zM289 271q44 0 69 30t24.5 65.5t-25.5 65.5t-68 30t-67.5 -30
t-24.5 -65.5t24.5 -65.5t67.5 -30z" />
    <glyph glyph-name="uniF639" unicode="&#xf639;" horiz-adv-x="570" 
d="M517 480v-269q0 -109 -66 -165q-64 -55 -166 -55q-103 0 -167 55q-65 56 -65 165v268q0 110 62.5 165t169.5 55t169.5 -55t62.5 -164zM377 223v244q0 114 -92 114q-93 0 -93 -114v-244q0 -114 93 -114q92 0 92 114z" />
    <glyph glyph-name="uniF63A" unicode="&#xf63a;" horiz-adv-x="515" 
d="M224 118h238v-118h-426v90l231 272q64 73 64 137q0 38 -24 61t-62 23q-36 0 -59.5 -22.5t-26.5 -61.5h-124q0 89 63 144q65 56 154 56q94 0 155 -58q63 -57 63 -142q0 -45 -19 -86q-21 -46 -37 -68q-16 -23 -48 -60z" />
    <glyph glyph-name="uniF63B" unicode="&#xf63b;" horiz-adv-x="513" 
d="M234 297h-51v118h51q45 0 70.5 23t25.5 65q0 35 -24 57.5t-62 22.5q-35 0 -58 -20t-28 -54h-124q4 84 65 137q62 53 152 53q93 0 155 -56q63 -55 63 -134q0 -100 -94 -151q104 -51 104 -165q0 -86 -59 -145q-58 -57 -161 -57q-105 0 -167.5 52.5t-66.5 141.5h123
q13 -76 102 -76q41 0 65.5 25.5t24.5 65.5q0 97 -106 97z" />
    <glyph glyph-name="uniF63C" unicode="&#xf63c;" horiz-adv-x="545" 
d="M13 195l236 495h153l-215 -473h132v176h140v-176h63v-119h-63v-98h-140v98h-306v97z" />
    <glyph glyph-name="uniF63D" unicode="&#xf63d;" horiz-adv-x="526" 
d="M266 355q-48 0 -73 -51h-126v386h393v-127h-256v-118q38 36 102 36q84 0 132 -64.5t48 -181.5q0 -244 -216 -244q-93 0 -154 49q-62 49 -70 138h138q16 -69 82 -69q80 0 80 119q0 127 -80 127z" />
    <glyph glyph-name="uniF63E" unicode="&#xf63e;" horiz-adv-x="531" 
d="M235 690h150l-144 -284q25 13 67 13q80 0 134 -59q55 -58 55 -147q0 -106 -62 -164t-169 -58q-106 0 -169.5 57.5t-63.5 163.5q0 70 63 197zM173 207q0 -47 28.5 -74t63.5 -27t63.5 27t28.5 74q0 46 -28.5 72.5t-63.5 26.5t-63.5 -26.5t-28.5 -72.5z" />
    <glyph glyph-name="uniF63F" unicode="&#xf63f;" horiz-adv-x="452" 
d="M135 571v-107h-119v226h422v-98l-199 -592h-145l200 571h-159z" />
    <glyph glyph-name="uniF640" unicode="&#xf640;" horiz-adv-x="536" 
d="M33 192q0 53 29 99t74 67q-42 21 -67.5 62.5t-25.5 89.5q0 85 64.5 137t160.5 52q94 0 159 -51q66 -50 66 -138q0 -48 -25.5 -89.5t-67.5 -62.5q46 -21 74.5 -66.5t28.5 -99.5q0 -93 -68 -147q-67 -54 -167 -54t-168 54q-67 54 -67 147zM173 205q0 -40 27 -68.5t68 -28.5
q40 0 68 28.5t28 68.5q0 41 -28.5 68.5t-67.5 27.5q-40 0 -67.5 -27.5t-27.5 -68.5zM182 496q0 -36 25 -61.5t61 -25.5q35 0 60.5 25.5t25.5 61.5q0 35 -25.5 60t-60.5 25q-36 0 -61 -25t-25 -60z" />
    <glyph glyph-name="uniF641" unicode="&#xf641;" horiz-adv-x="531" 
d="M295 0h-150l145 284q-26 -13 -67 -13q-81 0 -135.5 58.5t-54.5 147.5q0 109 65 165q64 57 167 57q106 0 169.5 -57.5t63.5 -163.5q0 -69 -64 -197zM358 483q0 47 -29 73.5t-63.5 26.5t-63.5 -26.5t-29 -73.5q0 -46 29 -72.5t63.5 -26.5t63.5 26.5t29 72.5z" />
    <glyph glyph-name="uniF6BA" unicode="&#xf6ba;" horiz-adv-x="319" 
d="M289 289h-259v112h259v-112z" />
    <glyph glyph-name="uniF6BB" unicode="&#xf6bb;" horiz-adv-x="509" 
d="M449 283h-389v124h389v-124z" />
    <glyph glyph-name="uniF6BC" unicode="&#xf6bc;" horiz-adv-x="706" 
d="M686 283h-666v124h666v-124z" />
    <glyph glyph-name="uniF6C3" unicode="&#xf6c3;" horiz-adv-x="332" 
d="M97 -51h137v-129l-137 -117v246z" />
    <glyph glyph-name="uniF6C9" unicode="&#xf6c9;" horiz-adv-x="379" 
d="M200 742h-124l80 129h147z" />
    <glyph glyph-name="uniF6CA" unicode="&#xf6ca;" horiz-adv-x="519" 
d="M450 879l-138 -142h-105l-138 142h133l57 -61l58 61h133z" />
    <glyph glyph-name="uniF6CB" unicode="&#xf6cb;" horiz-adv-x="492" 
d="M206 752h-124v117h124v-117zM409 752h-124v117h124v-117z" />
    <glyph glyph-name="uniF6CE" unicode="&#xf6ce;" horiz-adv-x="404" 
d="M88 871h148l80 -129h-125z" />
    <glyph glyph-name="uniF6CF" unicode="&#xf6cf;" horiz-adv-x="590" 
d="M199 742h-125l80 129h148zM402 742h-124l90 129h147z" />
    <glyph glyph-name="uniF6D0" unicode="&#xf6d0;" horiz-adv-x="490" 
d="M406 744h-322v112h322v-112z" />
    <glyph glyph-name="uniF6D1" unicode="&#xf6d1;" horiz-adv-x="455" 
d="M290 879h128q0 -151 -190 -151q-191 0 -191 151h129q0 -41 31 -57.5t62 0t31 57.5z" />
    <glyph glyph-name="uniF6D4" unicode="&#xf6d4;" horiz-adv-x="417" 
d="M259 687h104q0 -129 -154 -129q-155 0 -155 129h104q0 -55 51 -55q50 0 50 55z" />
    <glyph glyph-name="uniF6DC" unicode="&#xf6dc;" horiz-adv-x="337" 
d="M143 690h126v-690h-140v544l-99 -65v135z" />
    <glyph glyph-name="fi" unicode="&#xfb01;" horiz-adv-x="494" 
d="M14 392v108h64v27q0 93 38 128q41 35 133 35h37v-112h-24q-33 0 -45 -15.5t-12 -55.5v-7h252v-500h-128v392h-124v-392h-127v392h-64z" />
    <glyph glyph-name="fl" unicode="&#xfb02;" horiz-adv-x="553" 
d="M330 160v418h-68q-33 0 -45 -15.5t-12 -55.5v-7h81v-108h-81v-392h-127v392h-64v108h64v27q0 93 38 128q41 35 133 35h209v-501q0 -43 15.5 -61t54.5 -18v-110q-108 0 -153 35.5t-45 124.5z" />
    <glyph glyph-name="uniFEFF" unicode="&#xfeff;" horiz-adv-x="0" 
 />
    <glyph glyph-name="uniF4D3" unicode="&#x1f4d3;" horiz-adv-x="752" 
d="M60 60v815q0 25 18 43t43 18h510q25 0 43 -18t18 -43v-815q0 -25 -18 -42.5t-43 -17.5h-510q-25 0 -43 17.5t-18 42.5zM376 25q26 0 36 20.5t0 41t-36 20.5t-36.5 -20.5t0 -41t36.5 -20.5zM648 132v691h-544v-691h544z" />
    <glyph glyph-name="uniF4F1" unicode="&#x1f4f1;" horiz-adv-x="552" 
d="M60 60v715q0 25 18 43t43 18h310q25 0 43 -18t18 -43v-715q0 -25 -18 -42.5t-43 -17.5h-310q-25 0 -43 17.5t-18 42.5zM276 25q26 0 36 20.5t0 41t-36 20.5t-36.5 -20.5t0 -41t36.5 -20.5zM323 790h-94q-11 0 -11 -12t11 -12h94q11 0 11 12t-11 12zM448 132v591h-344
v-591h344z" />
    <glyph glyph-name="NULL" horiz-adv-x="0" 
 />
    <glyph glyph-name="CR" horiz-adv-x="333" 
 />
    <glyph glyph-name="CR.001" horiz-adv-x="333" 
 />
    <glyph glyph-name="uni2197.ss02" horiz-adv-x="667" 
d="M607 500v-500h-78v367l-414 -414l-55 55l414 414h-367v78h500z" />
    <glyph glyph-name="uni2199.ss02" horiz-adv-x="667" 
d="M60 0v500h78v-367l414 414l55 -55l-414 -414h367v-78h-500z" />
    <glyph glyph-name="a.ss01" horiz-adv-x="517" 
d="M33 217v68q0 105 52.5 164.5t145.5 59.5q67 0 107 -34v25h127v-500h-127v28q-40 -37 -107 -37q-94 0 -146 60.5t-52 165.5zM249 99q47 0 68 31t21 95v52q0 124 -89 124t-89 -124v-52q0 -126 89 -126z" />
    <glyph glyph-name="uni2198.ss02" horiz-adv-x="667" 
d="M529 133v367h78v-500h-500v78h367l-414 414l55 55z" />
    <glyph glyph-name="uni0434.ss01" horiz-adv-x="517" 
d="M465 460v-239q0 -110 -55 -170t-161 -60q-104 0 -160 60t-56 170v60q0 110 54.5 169t153.5 59q57 0 97 -24q-5 107 -100 107q-50 0 -106 -35l-58 79q68 63 177 63q214 0 214 -239zM249 99q89 0 89 126v52q0 124 -89 124t-89 -124v-52q0 -64 21 -95t68 -31z" />
    <glyph glyph-name="uni0438.ss01" horiz-adv-x="526" 
d="M347 500h127v-500h-125v42q-18 -28 -43.5 -39.5t-70.5 -11.5q-184 0 -184 197v312h128v-293q0 -56 19.5 -81t61.5 -25q87 0 87 105v294z" />
    <glyph glyph-name="uni0439.ss01" horiz-adv-x="526" 
d="M347 500h127v-500h-125v42q-18 -28 -43.5 -39.5t-70.5 -11.5q-184 0 -184 197v312h128v-293q0 -56 19.5 -81t61.5 -25q87 0 87 105v294zM313 687h104q0 -129 -154 -129q-155 0 -155 129h104q0 -55 51 -55q50 0 50 55z" />
    <glyph glyph-name="uni043F.ss01" horiz-adv-x="526" 
d="M179 0h-128v500h125v-42q39 51 115 51q183 0 183 -196v-313h-127v293q0 56 -19 81t-61 25q-88 0 -88 -105v-294z" />
    <glyph glyph-name="uni0442.ss01" horiz-adv-x="795" 
d="M461 294v-294h-127v293q0 106 -76 106q-37 0 -58 -27.5t-21 -77.5v-294h-128v500h125v-42q38 51 111 51q94 0 140 -67q55 67 144 67q84 0 128.5 -50t44.5 -146v-313h-128v293q0 106 -77 106q-37 0 -57.5 -27t-20.5 -78z" />
    <glyph glyph-name="arrowdown.ss02" horiz-adv-x="826" 
d="M413 -107l-353 353l55 55l259 -259v586h78v-586l259 259l55 -55z" />
    <glyph glyph-name="uni2196.ss02" horiz-adv-x="667" 
d="M138 367v-367h-78v500h500v-78h-367l414 -414l-55 -55z" />
    <glyph glyph-name="uni261E.ss02" horiz-adv-x="1061" 
d="M555 51h-277v370l292 215q8 -8 19 -30q31 -61 -25 -114l-74 -71h450q61 0 61 -50t-58 -50h-229v-36q0 -29 -13 -41.5t-41 -12.5v-36q0 -29 -13 -41.5t-41 -12.5v-34q0 -30 -12 -43t-39 -13zM60 51v370h164v-370h-164zM106 396h-20v-319h20v319zM152 396h-20v-222h20v222z
M178 77h20v319h-20v-319zM152 112h-20v-35h20v35z" />
    <glyph glyph-name="arrowup.ss02" horiz-adv-x="826" 
d="M413 629l353 -353l-55 -55l-259 259v-586h-78v586l-259 -259l-55 55z" />
    <glyph glyph-name="arrowright.ss02" horiz-adv-x="855" 
d="M795 261l-353 -353l-55 55l259 259h-586v78h586l-259 259l55 55z" />
    <glyph glyph-name="acircumflex.ss01" horiz-adv-x="517" 
d="M33 217v68q0 105 52.5 164.5t145.5 59.5q67 0 107 -34v25h127v-500h-127v28q-40 -37 -107 -37q-94 0 -146 60.5t-52 165.5zM249 99q47 0 68 31t21 95v52q0 124 -89 124t-89 -124v-52q0 -126 89 -126zM92 568l108 142h106l108 -142h-114l-47 65l-47 -65h-114z" />
    <glyph glyph-name="atilde.ss01" horiz-adv-x="517" 
d="M33 217v68q0 105 52.5 164.5t145.5 59.5q67 0 107 -34v25h127v-500h-127v28q-40 -37 -107 -37q-94 0 -146 60.5t-52 165.5zM249 99q47 0 68 31t21 95v52q0 124 -89 124t-89 -124v-52q0 -126 89 -126zM322 569q-24 0 -64 14q-37 15 -53 15q-31 0 -53 -27l-67 64
q48 61 117 61q24 0 62 -15q40 -14 55 -14q27 0 51 27l67 -64q-46 -61 -115 -61z" />
    <glyph glyph-name="adieresis.ss01" horiz-adv-x="517" 
d="M33 217v68q0 105 52.5 164.5t145.5 59.5q67 0 107 -34v25h127v-500h-127v28q-40 -37 -107 -37q-94 0 -146 60.5t-52 165.5zM249 99q47 0 68 31t21 95v52q0 124 -89 124t-89 -124v-52q0 -126 89 -126zM219 573h-124v117h124v-117zM422 573h-123v117h123v-117z" />
    <glyph glyph-name="aring.ss01" horiz-adv-x="517" 
d="M33 217v68q0 105 52.5 164.5t145.5 59.5q67 0 107 -34v25h127v-500h-127v28q-40 -37 -107 -37q-94 0 -146 60.5t-52 165.5zM249 99q47 0 68 31t21 95v52q0 124 -89 124t-89 -124v-52q0 -126 89 -126zM171 567q-34 31 -34 79t34.5 79t88.5 31q55 0 89 -31t34 -79t-34 -79
q-35 -30 -89 -30t-89 30zM223 646q0 -20 10 -32t27 -12q37 0 37 44q0 43 -37 43t-37 -43z" />
    <glyph glyph-name="egrave.ss01" 
d="M343 142l95 -66q-49 -85 -183 -85q-105 0 -163.5 61t-58.5 165v68q0 110 54 167t156 57q98 0 150 -43.5t52 -119.5q0 -71 -51 -109.5t-151 -38.5h-82q9 -99 93 -99q35 0 54 9.5t35 33.5zM243 401q-81 0 -83 -108h83q75 0 75 53q0 55 -75 55zM120 725h143l70 -158h-122z
" />
    <glyph glyph-name="eacute.ss01" 
d="M343 142l95 -66q-49 -85 -183 -85q-105 0 -163.5 61t-58.5 165v68q0 110 54 167t156 57q98 0 150 -43.5t52 -119.5q0 -71 -51 -109.5t-151 -38.5h-82q9 -99 93 -99q35 0 54 9.5t35 33.5zM243 401q-81 0 -83 -108h83q75 0 75 53q0 55 -75 55zM299 567h-122l70 158h143z
" />
    <glyph glyph-name="ecircumflex.ss01" 
d="M343 142l95 -66q-49 -85 -183 -85q-105 0 -163.5 61t-58.5 165v68q0 110 54 167t156 57q98 0 150 -43.5t52 -119.5q0 -71 -51 -109.5t-151 -38.5h-82q9 -99 93 -99q35 0 54 9.5t35 33.5zM243 401q-81 0 -83 -108h83q75 0 75 53q0 55 -75 55zM90 568l108 142h106l108 -142
h-114l-47 65l-47 -65h-114z" />
    <glyph glyph-name="edieresis.ss01" 
d="M343 142l95 -66q-49 -85 -183 -85q-105 0 -163.5 61t-58.5 165v68q0 110 54 167t156 57q98 0 150 -43.5t52 -119.5q0 -71 -51 -109.5t-151 -38.5h-82q9 -99 93 -99q35 0 54 9.5t35 33.5zM243 401q-81 0 -83 -108h83q75 0 75 53q0 55 -75 55zM211 573h-124v117h124v-117z
M414 573h-123v117h123v-117z" />
    <glyph glyph-name="uni0430.ss01" horiz-adv-x="517" 
d="M33 217v68q0 105 52.5 164.5t145.5 59.5q67 0 107 -34v25h127v-500h-127v28q-40 -37 -107 -37q-94 0 -146 60.5t-52 165.5zM249 99q47 0 68 31t21 95v52q0 124 -89 124t-89 -124v-52q0 -126 89 -126z" />
    <glyph glyph-name="uni0435.ss01" 
d="M343 142l95 -66q-49 -85 -183 -85q-105 0 -163.5 61t-58.5 165v68q0 110 54 167t156 57q98 0 150 -43.5t52 -119.5q0 -71 -51 -109.5t-151 -38.5h-82q9 -99 93 -99q35 0 54 9.5t35 33.5zM243 401q-81 0 -83 -108h83q75 0 75 53q0 55 -75 55z" />
    <glyph glyph-name="uni0451.ss01" 
d="M343 142l95 -66q-49 -85 -183 -85q-105 0 -163.5 61t-58.5 165v68q0 110 54 167t156 57q98 0 150 -43.5t52 -119.5q0 -71 -51 -109.5t-151 -38.5h-82q9 -99 93 -99q35 0 54 9.5t35 33.5zM243 401q-81 0 -83 -108h83q75 0 75 53q0 55 -75 55zM211 573h-124v117h124v-117z
M414 573h-123v117h123v-117z" />
    <glyph glyph-name="aogonek.ss01" horiz-adv-x="517" 
d="M338 500h127v-500q-58 -51 -41 -74q8 -9 24 -9q1 0 19 2l15 -65q-13 -4 -48 -4q-49 0 -79.5 20t-30.5 56q0 42 35 74h-21v28q-40 -37 -107 -37q-94 0 -146 60.5t-52 165.5v68q0 105 52.5 164.5t145.5 59.5q67 0 107 -34v25zM249 99q47 0 68 31t21 95v52q0 124 -89 124
t-89 -124v-52q0 -126 89 -126z" />
    <glyph glyph-name="abreve.ss01" horiz-adv-x="517" 
d="M33 217v68q0 105 52.5 164.5t145.5 59.5q67 0 107 -34v25h127v-500h-127v28q-40 -37 -107 -37q-94 0 -146 60.5t-52 165.5zM249 99q47 0 68 31t21 95v52q0 124 -89 124t-89 -124v-52q0 -126 89 -126zM325 690h92q-2 -51 -32.5 -86t-73.5 -43t-86.5 0t-74 43t-32.5 86h93
q8 -53 57 -53t57 53z" />
    <glyph glyph-name="eogonek.ss01" 
d="M343 142l95 -66q-32 -57 -102 -76q-26 -23 -34 -33.5t-11 -27.5q0 -22 27 -22q1 0 19 2l15 -65q-13 -4 -48 -4q-49 0 -79.5 20t-30.5 56t28 67q-90 9 -139.5 68.5t-49.5 155.5v68q0 110 54 167t156 57q98 0 150 -43.5t52 -119.5q0 -71 -51 -109.5t-151 -38.5h-82
q9 -99 93 -99q35 0 54 9.5t35 33.5zM243 401q-81 0 -83 -108h83q75 0 75 53q0 55 -75 55z" />
    <glyph glyph-name="ecaron.ss01" 
d="M343 142l95 -66q-49 -85 -183 -85q-105 0 -163.5 61t-58.5 165v68q0 110 54 167t156 57q98 0 150 -43.5t52 -119.5q0 -71 -51 -109.5t-151 -38.5h-82q9 -99 93 -99q35 0 54 9.5t35 33.5zM243 401q-81 0 -83 -108h83q75 0 75 53q0 55 -75 55zM408 710l-108 -142h-106
l-108 142h114l47 -65l47 65h114z" />
    <glyph glyph-name="amacron.ss01" horiz-adv-x="517" 
d="M33 217v68q0 105 52.5 164.5t145.5 59.5q67 0 107 -34v25h127v-500h-127v28q-40 -37 -107 -37q-94 0 -146 60.5t-52 165.5zM249 99q47 0 68 31t21 95v52q0 124 -89 124t-89 -124v-52q0 -126 89 -126zM405 573h-283v111h283v-111z" />
    <glyph glyph-name="emacron.ss01" 
d="M343 142l95 -66q-49 -85 -183 -85q-105 0 -163.5 61t-58.5 165v68q0 110 54 167t156 57q98 0 150 -43.5t52 -119.5q0 -71 -51 -109.5t-151 -38.5h-82q9 -99 93 -99q35 0 54 9.5t35 33.5zM243 401q-81 0 -83 -108h83q75 0 75 53q0 55 -75 55zM385 573h-283v111h283v-111z
" />
    <glyph glyph-name="edotaccent.ss01" 
d="M343 142l95 -66q-49 -85 -183 -85q-105 0 -163.5 61t-58.5 165v68q0 110 54 167t156 57q98 0 150 -43.5t52 -119.5q0 -71 -51 -109.5t-151 -38.5h-82q9 -99 93 -99q35 0 54 9.5t35 33.5zM243 401q-81 0 -83 -108h83q75 0 75 53q0 55 -75 55zM313 566h-138v124h138v-124z
" />
    <glyph glyph-name="uni0430.var.accented.ss01" horiz-adv-x="517" 
d="M33 217v68q0 105 52.5 164.5t145.5 59.5q67 0 107 -34v25h127v-500h-127v28q-40 -37 -107 -37q-94 0 -146 60.5t-52 165.5zM249 99q47 0 68 31t21 95v52q0 124 -89 124t-89 -124v-52q0 -126 89 -126zM311 567h-122l70 158h143z" />
    <glyph glyph-name="uni0435.var.accented.ss01" 
d="M343 142l95 -66q-49 -85 -183 -85q-105 0 -163.5 61t-58.5 165v68q0 110 54 167t156 57q98 0 150 -43.5t52 -119.5q0 -71 -51 -109.5t-151 -38.5h-82q9 -99 93 -99q35 0 54 9.5t35 33.5zM243 401q-81 0 -83 -108h83q75 0 75 53q0 55 -75 55zM299 567h-122l70 158h143z
" />
    <glyph glyph-name="uni0438.var.accented.ss01" horiz-adv-x="526" 
d="M347 500h127v-500h-125v42q-18 -28 -43.5 -39.5t-70.5 -11.5q-184 0 -184 197v312h128v-293q0 -56 19.5 -81t61.5 -25q87 0 87 105v294zM318 567h-122l70 158h143z" />
    <glyph glyph-name="uni0451.var.accented.ss01" 
d="M343 142l95 -66q-49 -85 -183 -85q-105 0 -163.5 61t-58.5 165v68q0 110 54 167t156 57q98 0 150 -43.5t52 -119.5q0 -71 -51 -109.5t-151 -38.5h-82q9 -99 93 -99q35 0 54 9.5t35 33.5zM243 401q-81 0 -83 -108h83q75 0 75 53q0 55 -75 55zM293 717h-122l70 158h143z
M197 573h-124v117h124v-117zM400 573h-123v117h123v-117z" />
    <glyph glyph-name="uni04E3.ss01" horiz-adv-x="526" 
d="M347 500h127v-500h-125v42q-18 -28 -43.5 -39.5t-70.5 -11.5q-184 0 -184 197v312h128v-293q0 -56 19.5 -81t61.5 -25q87 0 87 105v294zM405 573h-283v111h283v-111z" />
    <glyph glyph-name="uni045F.ss01" horiz-adv-x="526" 
d="M282 -117h-93v112q-138 24 -138 193v312h128v-293q0 -56 19.5 -81t61.5 -25q87 0 87 105v294h127v-500h-125v42q-23 -38 -67 -47v-112z" />
    <glyph glyph-name="arrowleft.ss02" horiz-adv-x="855" 
d="M209 222l259 -259l-55 -55l-353 353l353 353l55 -55l-259 -259h586v-78h-586z" />
    <glyph glyph-name="aacute.ss01" horiz-adv-x="517" 
d="M33 217v68q0 105 52.5 164.5t145.5 59.5q67 0 107 -34v25h127v-500h-127v28q-40 -37 -107 -37q-94 0 -146 60.5t-52 165.5zM249 99q47 0 68 31t21 95v52q0 124 -89 124t-89 -124v-52q0 -126 89 -126zM311 567h-122l70 158h143z" />
    <glyph glyph-name="agrave.ss01" horiz-adv-x="517" 
d="M33 217v68q0 105 52.5 164.5t145.5 59.5q67 0 107 -34v25h127v-500h-127v28q-40 -37 -107 -37q-94 0 -146 60.5t-52 165.5zM249 99q47 0 68 31t21 95v52q0 124 -89 124t-89 -124v-52q0 -126 89 -126zM138 725h143l70 -158h-122z" />
    <glyph glyph-name="uni0449.ss01" horiz-adv-x="807" 
d="M596 500h128v-392h66v-225h-117v117h-74v42q-36 -51 -105 -51q-92 0 -137 66q-53 -66 -137 -66q-81 0 -125 50.5t-44 145.5v313h128v-293q0 -56 17.5 -81t55.5 -25q72 0 72 105v294h127v-293q0 -106 72 -106q73 0 73 105v294z" />
    <glyph glyph-name="uni0448.ss01" horiz-adv-x="776" 
d="M324 206v294h127v-293q0 -106 72 -106q73 0 73 105v294h128v-500h-125v42q-36 -51 -105 -51q-92 0 -137 66q-53 -66 -137 -66q-81 0 -125 50.5t-44 145.5v313h128v-293q0 -56 17.5 -81t55.5 -25q72 0 72 105z" />
    <glyph glyph-name="uni0446.ss01" horiz-adv-x="557" 
d="M347 500h127v-392h66v-225h-116v117h-75v42q-18 -28 -43.5 -39.5t-70.5 -11.5q-184 0 -184 197v312h128v-293q0 -56 19.5 -81t61.5 -25q87 0 87 105v294z" />
    <glyph glyph-name="e.ss01" 
d="M343 142l95 -66q-49 -85 -183 -85q-105 0 -163.5 61t-58.5 165v68q0 110 54 167t156 57q98 0 150 -43.5t52 -119.5q0 -71 -51 -109.5t-151 -38.5h-82q9 -99 93 -99q35 0 54 9.5t35 33.5zM243 401q-81 0 -83 -108h83q75 0 75 53q0 55 -75 55z" />
    </font>
</defs>
</svg>
